<?xml version="1.0" encoding="utf-8"?>
<!-- Generator: Adobe Illustrator 24.0.1, SVG Export Plug-In . SVG Version: 6.00 Build 0)  -->
<svg version="1.1" id="Layer_1" xmlns="http://www.w3.org/2000/svg" xmlns:xlink="http://www.w3.org/1999/xlink" x="0px" y="0px"
	 viewBox="0 0 120.5 161" style="enable-background:new 0 0 120.5 161;" xml:space="preserve">
<style type="text/css">
	.st0{fill:#FFFFFF;}
</style>
<title>Asset 7</title>
<path class="st0" d="M37.3,50.1C57.3,65,60,69.3,74.8,92.2c0.3,0.3,0.5,0.6,0.8,0.8c1.4,0.9,3.3,0.7,4.4-0.8
	C95,68.7,97.8,66.3,117.4,49.9c0.3-0.3,0.4-0.4,0.6-0.7c1.4-1.8,1-4.4-0.9-5.8c-20.7-14.6-23.5-20-37.6-42.1C79.2,1,79,0.6,78.6,0.4
	c-1.3-0.8-2.9-0.3-3.7,0.9c-13.5,23-18.6,27.8-37.5,42.3C35.6,45.3,35.6,48.8,37.3,50.1z"/>
<path class="st0" d="M14.7,123.6c15.2,11.3,17.3,14.6,28.6,32.1c0.2,0.2,0.3,0.4,0.6,0.6c1.1,0.8,2.6,0.5,3.4-0.6
	c11.5-17.9,13.6-19.8,28.6-32.4c0.2-0.2,0.2-0.3,0.4-0.5c1-1.4,0.8-3.5-0.6-4.5c-15.8-11.1-17.9-15.3-28.8-32.1
	c-0.2-0.3-0.4-0.6-0.7-0.7c-1-0.6-2.2-0.2-2.7,0.7c-10.3,17.5-14.1,21.3-28.6,32.4C13.3,119.8,13.3,122.6,14.7,123.6z"/>
</svg>
