<?xml version="1.0" encoding="utf-8"?>
<!-- Generator: Adobe Illustrator 24.0.1, SVG Export Plug-In . SVG Version: 6.00 Build 0)  -->
<svg version="1.1" id="Layer_1" xmlns="http://www.w3.org/2000/svg" xmlns:xlink="http://www.w3.org/1999/xlink" x="0px" y="0px"
	 viewBox="0 0 163.6 151.2" style="enable-background:new 0 0 163.6 151.2;" xml:space="preserve">
<style type="text/css">
	.st0{fill:#FFFFFF;}
</style>
<title>Asset 7</title>
<g id="Layer_2_1_">
	<g id="Layer_30">
		<path class="st0" d="M95.4,51.1c-22.1-17-28.1-22.7-43.9-49.6c-0.9-1.5-2.8-2-4.3-1.1c-0.5,0.3-0.8,0.7-1.1,1.1
			C29.5,27.4,26.3,33.7,2,50.8c-2.2,1.6-2.6,4.7-1,6.8c0.2,0.3,0.4,0.5,0.7,0.8c23,19.3,26.2,22.1,43.9,49.6c1.2,1.7,3.5,2,5.1,0.9
			c0.3-0.2,0.6-0.5,0.9-0.9c17.3-26.8,20.5-31.9,43.9-49.3C97.6,57.1,97.6,53,95.4,51.1z"/>
		<path class="st0" d="M162.3,103.8c-18-13.8-22.8-18.5-35.6-40.3c-0.7-1.2-2.2-1.6-3.4-0.9c-0.4,0.2-0.7,0.5-0.9,0.9
			c-13.6,21-16.2,26.2-35.9,40c-1.8,1.3-2.1,3.8-0.8,5.6c0.2,0.2,0.3,0.4,0.5,0.6c18.7,15.6,21.3,18,35.6,40.3
			c1,1.3,2.8,1.7,4.2,0.7c0.3-0.2,0.5-0.4,0.7-0.7c14.1-21.8,16.7-25.9,35.6-40C164.1,108.7,164.1,105.3,162.3,103.8z"/>
	</g>
</g>
</svg>
