<?xml version="1.0" encoding="utf-8"?>
<!-- Generator: Adobe Illustrator 24.0.1, SVG Export Plug-In . SVG Version: 6.00 Build 0)  -->
<svg version="1.1" xmlns="http://www.w3.org/2000/svg" xmlns:xlink="http://www.w3.org/1999/xlink" x="0px" y="0px"
	 viewBox="0 0 164.7 213.8" style="enable-background:new 0 0 164.7 213.8;" xml:space="preserve">
<style type="text/css">
	.st0{display:none;}
	.st1{display:inline;fill:#9E9E9E;}
	.st2{fill:#FFFFFF;}
</style>
<g id="Layer_2" class="st0">
	<rect x="-16.7" y="-7" class="st1" width="202.2" height="229.8"/>
</g>
<g id="Layer_1">
	<title>Asset 6</title>
	<g id="Layer_2_1_">
		<g id="Layer_30">
			<path class="st2" d="M95.4,105.2c-22.1-17-28.1-22.7-43.9-49.6c-0.9-1.5-2.8-2-4.3-1.1c-0.5,0.3-0.8,0.7-1.1,1.1
				C29.5,81.6,26.3,87.9,2,104.9c-2.2,1.6-2.6,4.7-1,6.8c0.2,0.3,0.4,0.5,0.7,0.8c23,19.3,26.2,22.1,43.9,49.6
				c1.2,1.7,3.5,2,5.1,0.9c0.3-0.2,0.6-0.5,0.9-0.9c17.4-26.8,20.5-31.9,43.9-49.3C97.6,111.2,97.6,107.1,95.4,105.2z"/>
			<path class="st2" d="M163.3,166.4c-18-13.8-22.8-18.5-35.6-40.3c-0.7-1.2-2.2-1.6-3.4-0.9c-0.4,0.2-0.7,0.5-0.9,0.9
				c-13.6,21-16.2,26.1-35.9,40c-1.8,1.3-2.1,3.8-0.8,5.6c0.1,0.2,0.3,0.4,0.5,0.5c18.7,15.6,21.3,18,35.6,40.3
				c1,1.3,2.8,1.7,4.2,0.7c0.3-0.2,0.5-0.4,0.7-0.7c14.1-21.8,16.7-25.9,35.6-40C165.1,171.3,165.1,168,163.3,166.4z"/>
			<path class="st2" d="M127.3,32.9C113.1,21.9,109.2,18.3,99,1c-0.6-1-1.8-1.3-2.7-0.7C96,0.4,95.7,0.7,95.5,1
				C84.8,17.7,82.8,21.7,67.1,32.7c-1.4,1-1.7,3-0.7,4.4c0.1,0.2,0.3,0.3,0.4,0.5C81.7,50,83.8,51.8,95.2,69.5
				c0.8,1.1,2.2,1.3,3.3,0.6c0.2-0.2,0.4-0.3,0.6-0.6c11.2-17.3,13.2-20.5,28.3-31.7C128.7,36.8,128.7,34.1,127.3,32.9z"/>
		</g>
	</g>
</g>
<g id="Layer_3">
</g>
</svg>
