<svg xmlns="http://www.w3.org/2000/svg" viewBox="0 0 219.94 219.93"><defs><style>.cls-1{fill:#e9a18b;}.cls-2{fill:#1e1b19;}.cls-3{fill:#f8f8f8;}</style></defs><title>AfterEffect--icon-new</title><g id="Layer_2" data-name="Layer 2"><g id="Layer_26" data-name="Layer 26"><rect class="cls-1" x="13.12" y="13.12" width="193.7" height="193.7"/><path class="cls-2" d="M194.18,17a8.76,8.76,0,0,1,8.75,8.75V194.18a8.75,8.75,0,0,1-8.75,8.75H25.75A8.76,8.76,0,0,1,17,194.18V25.75A8.77,8.77,0,0,1,25.75,17H194.18m0-17H25.75A25.75,25.75,0,0,0,0,25.75V194.18a25.75,25.75,0,0,0,25.75,25.75H194.18a25.76,25.76,0,0,0,25.76-25.75V25.75A25.76,25.76,0,0,0,194.18,0Z"/><path class="cls-3" d="M116.47,140.79c2.09,6.05,8.68,11,14.85,11v2.75l-44-.11v-2.64c6-.11,9.24-4.95,7.15-11L88,121.65H63.77l-7.7,19.14c-2.42,5.94.44,10.89,6.38,11v2.75H33.85v-2.75c6,0,13.2-4.95,15.62-11L79.39,66.54H91.05ZM66,116.15H86.1L76.86,89.31Z"/><path class="cls-3" d="M186,121.54h-37.4c0,14.19,7.15,24.53,18.82,24.09,6.16-.22,12.21-2.42,15.95-9.24l1,.44c-4.06,11.66-14.08,18.92-24.85,18.92-17.5,0-30.26-13.09-30.26-30.8,0-17,12.54-32.12,30.8-32.12C176,92.83,186.43,105,186,121.54Zm-15.73-4.4c0-11.33-4.73-18.7-10.67-18.7s-10.67,7.37-10.67,18.7Z"/></g></g></svg>