<svg xmlns="http://www.w3.org/2000/svg" viewBox="0 0 219.93 219.93"><defs><style>.cls-1{fill:#e9a18b;}.cls-2{fill:#f8f8f8;}.cls-3{fill:#1e1b19;}</style></defs><title>Asset 29</title><g id="Layer_2" data-name="Layer 2"><g id="Layer_22" data-name="Layer 22"><rect class="cls-1" x="13.12" y="13.12" width="193.7" height="193.7"/><path class="cls-2" d="M109.75,140.22c2.09,6.05,8.69,11,14.85,11V154l-44-.11v-2.64c6.05-.11,9.24-4.95,7.15-11l-6.49-19.14H57.06l-7.7,19.14c-2.42,5.94.44,10.89,6.38,11V154H27.14v-2.75c6,0,13.2-4.95,15.62-11L72.68,66H84.34ZM59.26,115.58H79.39L70.15,88.74Z"/><path class="cls-2" d="M187.3,104.69v41a5.45,5.45,0,0,0,5.5,5.5V154H162.55v-2.75a5.45,5.45,0,0,0,5.5-5.5V108.21c0-2.75-2.64-5.28-6.27-5.28-5.39,0-9.79,6.49-10.23,7v35.75a5.45,5.45,0,0,0,5.5,5.5V154H126.8v-2.75a5.45,5.45,0,0,0,5.5-5.5v-41.8c0-2.53-1.87-4.29-5.06-4.29L126.8,97l24.75-4v11.44s9-12.21,22.55-12.21C185.43,92.26,187.3,101.5,187.3,104.69Z"/><path class="cls-3" d="M194.18,17a8.76,8.76,0,0,1,8.75,8.75V194.18a8.75,8.75,0,0,1-8.75,8.75H25.75A8.76,8.76,0,0,1,17,194.18V25.75A8.77,8.77,0,0,1,25.75,17H194.18m0-17H25.75A25.75,25.75,0,0,0,0,25.75V194.18a25.75,25.75,0,0,0,25.75,25.75H194.18a25.75,25.75,0,0,0,25.75-25.75V25.75A25.75,25.75,0,0,0,194.18,0Z"/></g></g></svg>