<?xml version="1.0" encoding="utf-8"?>
<!-- Generator: Adobe Illustrator 24.0.1, SVG Export Plug-In . SVG Version: 6.00 Build 0)  -->
<svg version="1.1" id="Layer_1" xmlns="http://www.w3.org/2000/svg" xmlns:xlink="http://www.w3.org/1999/xlink" x="0px" y="0px"
	 viewBox="0 0 374.2 209.5" style="enable-background:new 0 0 374.2 209.5;" xml:space="preserve">
<style type="text/css">
	.st0{fill:#221D23;}
</style>
<title>Asset 1</title>
<g id="Layer_2_1_">
	<g id="Layer_1-2">
		<path class="st0" d="M288.2,281.6c6-9.3,4.5-20.5-4.1-29.2c-20.8-21-41.7-41.9-62.7-62.8c-0.6-0.5-1-1.1-1.4-1.7l-33.5-33.5l0,0
			L138.2,106c-0.7-0.7-0.7-1.8,0-2.4l48.4-48.4L220,21.7c0.4-0.7,0.9-1.4,1.5-1.9c21.2-21.1,42.3-42.3,63.4-63.5
			c9.2-9.3,9.1-23.3,0.1-32.2c-3.8-3.8-8.8-6.1-14.1-6.5h-2.8c-5.6,0.4-11,2.8-14.9,6.9c-27.6,27.5-55.1,55-82.6,82.5
			C143.7,33.9,116.8,60.8,90,87.7c-4.8,4.8-7.3,10.4-7.6,16v2.1c0.3,5.5,2.8,11,7.4,15.7c39.5,39.5,79,79,118.5,118.5
			c15,15,29.9,30.1,45,45c4.2,4.3,10,6.7,16,6.9h0.2C277.1,291.9,284.2,288,288.2,281.6z"/>
	</g>
</g>
</svg>
