<svg xmlns="http://www.w3.org/2000/svg" viewBox="0 0 102.92 122.68"><defs><style>.cls-1,.cls-2{fill:none;stroke:#fff;stroke-width:3.68px;}.cls-1{stroke-miterlimit:10;}.cls-2{stroke-linecap:round;stroke-linejoin:round;}</style></defs><title>Asset 9</title><g id="Layer_2" data-name="Layer 2"><g id="Layer_25" data-name="Layer 25"><path class="cls-1" d="M24,56.39v-23h6.7a5.87,5.87,0,0,1,5.94,5.79h0A5.87,5.87,0,0,1,30.71,45H24"/><polyline class="cls-1" points="44.4 31.87 44.4 45.56 44.4 56.39"/><line class="cls-1" x1="57.12" y1="44.13" x2="44.4" y2="44.13"/><line class="cls-1" x1="57.12" y1="31.87" x2="57.12" y2="56.39"/><line class="cls-1" x1="67.61" y1="31.87" x2="67.61" y2="56.39"/><path class="cls-2" d="M13.19,3.51h87.9V120.08H13.19l-2.11.53a7.36,7.36,0,0,1-1.81.23h0a7.44,7.44,0,0,1-7.43-7.44V7.62A5.77,5.77,0,0,1,7.62,1.84H8.69a5.87,5.87,0,0,1,2.81.72Z"/><path class="cls-2" d="M88.14,4.48V110.24H10.51a2.28,2.28,0,0,0-2.28,2.28h0a2.28,2.28,0,0,0,2.28,2.29h83.9V5.2"/></g></g></svg>