<?xml version="1.0" encoding="utf-8"?>
<!-- Generator: Adobe Illustrator 24.0.1, SVG Export Plug-In . SVG Version: 6.00 Build 0)  -->
<svg version="1.1" id="Layer_1" xmlns="http://www.w3.org/2000/svg" xmlns:xlink="http://www.w3.org/1999/xlink" x="0px" y="0px"
	 viewBox="0 0 237.9 237.6" style="enable-background:new 0 0 237.9 237.6;" xml:space="preserve">
<style type="text/css">
	.st0{fill:#1E1B19;}
	.st1{fill:#E9A18B;}
	.st2{fill:#F8F8F8;}
</style>
<title>bredd</title>
<g>
	<title>bredd</title>
	<path class="st0" d="M236.9,184c-1.3-13.4-1.7-26.9-1.3-40.3c0-0.1,0-0.2,0-0.4c-0.1-5.6,0-10.6,0.2-15.5
		c0.7-16.8,1.2-31.6-15.8-40.2c9.2-21.9,4.6-37.8-1.3-47.7c-7.4-12.4-21.2-22.6-39.8-29.6C162.3,4.1,142.3,0.5,121.1,0H119h-0.1
		h-0.1C82,0.5,36.5,11.2,19.3,39.7c-5.9,9.9-10.7,25.9-1.4,47.9C0.9,96.2,1.4,111,2,127.8c0.2,4.9,0.4,10,0.2,15.5
		c0,0.1,0,0.2,0,0.4c0.4,13.5,0,26.9-1.3,40.3c-1.1,13.7-1.9,23.6,1.7,33.5v0.1C9,234.4,28.2,237.1,48,237.4
		c9.3,0.2,44,0.2,70.9,0.2c26.9,0,61.6-0.1,70.9-0.2c19.8-0.4,39-3,45.4-19.9v-0.1C238.8,207.6,238,197.7,236.9,184z"/>
	<g id="Layer_2_1_">
		<g id="Layer_3">
			<g>
				<path class="st1" d="M229.6,143.5C228.9,116,236,99,212,90.7C240.3,35.3,181.6,7.4,121,6h-2.1l0,0C57.6,6.8-2.7,34.7,25.9,90.7
					C1.9,99,9,116,8.3,143.5c1.3,39-5.7,56.4,0,71.9c4.8,12.6,19.3,15.6,39.9,16c8.4,0.1,39.6,0.2,70.8,0.2s62.4-0.1,70.8-0.2
					c20.6-0.4,35.1-3.4,39.9-16C235.3,199.9,228.3,182.5,229.6,143.5z M216.2,200.9L216.2,200.9c-5.5,14.6-21.8,16.9-38.6,17.2
					c-7.8,0.1-36.5,0.2-58.8,0.2s-51,0-58.8-0.2c-16.8-0.3-33.1-2.6-38.6-17.1v-0.1c-3.1-8.4-2.4-16.7-1.5-28.2
					c1-11.1,1.4-22.2,1.1-33.3V139c0.1-4.6,0-8.8-0.2-12.8c-0.5-13.5-1-26.3,12.8-33.8c-7.3-18.2-3.4-31.5,1.6-39.7
					c14.5-24,52.6-33,83.4-33.4h0.1l0.1,0.1h1.8c17.6,0.4,34.3,3.4,48.2,8.6c15.7,5.8,27.3,14.5,33.5,25c4.9,8.2,8.8,21.5,1.5,39.5
					c13.8,7.5,13.3,20.3,12.8,33.8c-0.2,4-0.3,8.2-0.2,12.8c0,0.1,0,0.2,0,0.4c-0.3,11.1,0,22.2,1.1,33.3
					C218.6,184.2,219.3,192.6,216.2,200.9z"/>
				<path class="st0" d="M236.9,184c-1.3-13.4-1.7-26.9-1.3-40.3c0-0.1,0-0.2,0-0.4c-0.1-5.6,0-10.6,0.2-15.5
					c0.7-16.8,1.2-31.6-15.8-40.2c9.2-21.9,4.6-37.8-1.3-47.7c-7.4-12.4-21.2-22.6-39.8-29.6C162.3,4.1,142.3,0.5,121.1,0H119h-0.1
					h-0.1C82,0.5,36.5,11.2,19.3,39.7c-5.9,9.9-10.7,25.9-1.4,47.9C0.9,96.2,1.4,111,2,127.8c0.2,4.9,0.4,10,0.2,15.5
					c0,0.1,0,0.2,0,0.4c0.4,13.5,0,26.9-1.3,40.3c-1.1,13.7-1.9,23.6,1.7,33.5v0.1C9,234.4,28.2,237.1,48,237.4
					c9.3,0.2,44,0.2,70.9,0.2s61.6-0.1,70.9-0.2c19.8-0.4,39-3,45.4-19.9v-0.1C238.8,207.6,238,197.7,236.9,184z M229.6,215.4
					c-4.8,12.6-19.3,15.6-39.9,16c-8.4,0.1-39.6,0.2-70.8,0.2s-62.4-0.1-70.8-0.2C27.6,231,13,228,8.3,215.4
					c-5.7-15.5,1.3-32.9,0-71.9C9,116,1.9,99,25.9,90.7c-28.6-56,31.7-83.9,93-84.7l0,0h2.1c60.6,1.4,119.3,29.3,91,84.7
					c24,8.3,16.9,25.3,17.6,52.8C228.3,182.5,235.3,199.9,229.6,215.4z"/>
				<path class="st2" d="M210.7,139.2c-0.6-22.8,5.3-36.8-14.6-43.7c23.4-45.9-25.2-69-75.4-70.2H119C68.1,26,18.2,49.2,41.8,95.5
					c-19.9,6.9-14,20.9-14.6,43.7c1.1,32.3-4.7,46.7,0,59.6c4,10.4,16,13,33.1,13.3c7,0.1,32.8,0.2,58.7,0.2s51.7-0.1,58.7-0.2
					c17.1-0.3,29.1-2.8,33.1-13.3C215.3,186,209.6,171.6,210.7,139.2z"/>
				<path class="st0" d="M216.6,139.5c0-0.1,0-0.2,0-0.4c-0.1-4.6,0-8.8,0.2-12.8c0.5-13.5,1-26.3-12.8-33.8
					c7.3-18.1,3.4-31.3-1.5-39.5c-6.2-10.5-17.8-19.1-33.5-25c-13.9-5.2-30.6-8.2-48.2-8.6H119l-0.1-0.1h-0.1
					C88.1,19.7,50,28.7,35.5,52.8c-5,8.2-8.9,21.6-1.6,39.7C20.1,100,20.6,112.8,21,126.3c0.1,4,0.3,8.2,0.2,12.8v0.4
					c0.3,11.1,0,22.2-1.1,33.3c-0.9,11.5-1.6,19.8,1.5,28.2v0.1c5.5,14.6,21.8,16.8,38.6,17.1c7.7,0.1,36.5,0.2,58.8,0.2
					s51,0,58.8-0.2c16.8-0.3,33.1-2.6,38.6-17.1V201c3.1-8.4,2.4-16.7,1.5-28.2C216.6,161.7,216.3,150.6,216.6,139.5z M210.7,198.8
					c-4,10.4-16,13-33.1,13.3c-7,0.1-32.8,0.2-58.7,0.2s-51.7-0.1-58.7-0.2c-17.1-0.3-29.1-2.8-33.1-13.3c-4.7-12.8,1.1-27.3,0-59.6
					c0.6-22.8-5.3-36.8,14.6-43.7C18.2,49.2,68.1,26,118.9,25.3h1.7c50.2,1.2,98.8,24.3,75.4,70.2c19.9,6.9,14,20.9,14.6,43.7
					C209.6,171.6,215.3,186,210.7,198.8z"/>
			</g>
			<path class="st0" d="M158.3,162.2c-5.9,20.6-28.4,28.3-55.5,20.6L30.1,162l1.1-3.8c8.4,2.4,17.2-2.5,19.7-10.9l24-84.1
				C77.3,54.8,72.4,46,64,43.5l1.1-3.8l65.3,18.6c25.1,7.2,38.3,24,32.8,43.3c-3.1,11-13,19.4-27.9,20.8
				C154.8,132.3,162.3,148.3,158.3,162.2z M95,108.6c19.3,5.5,33,0.8,37.5-14.8c4.7-16.5-8.8-25.5-24.7-30L95,108.6z M93,115.6
				l-14,49c29.5,8.4,44.2,5.2,48.9-11.4C132.6,136.7,120.7,123.5,93,115.6L93,115.6z"/>
			<path class="st0" d="M206,189.1l-5-13.9c-0.4-1-0.3-2.2,0.2-3.2s1.3-1.8,2.4-2.1l2.4-0.8l-0.8-2.4l-0.6-1.6l-0.8-2.4l-2.4,0.8
				l-25.1,8.9l-2.4,0.8l0.8,2.4l0.6,1.6l0.8,2.4l2.4-0.8c0.4-0.2,0.9-0.2,1.4-0.2c1.8,0,3.3,1.1,3.9,2.8l2.6,7.4
				c-1.8,2.3-4.4,3.9-7.3,4.4c-0.5,0.1-1.1,0.1-1.6,0.1c-6.5,0-12.9-6.6-16.6-17.1c-2.4-6.6-1.7-11.4-0.7-14.3
				c1.1-3.3,3.2-5.7,5.6-6.6c1.5-0.6,3.1-0.8,4.7-0.9c4.7,0,8.8,2.9,12.3,8.7l1,1.6l1.8-0.5l1.6-0.4l2.7-0.7l-1-2.6
				c-1.1-2.6-2.5-6.5-3.9-10.3c-1-2.8-2-5.4-2.8-7.4l-1.2-3.2l-2.7,2.1l-4.3,3.4c-1.4-0.1-2.5-0.1-3.6-0.1c-2.8-0.1-5.6,0.4-8.3,1.3
				c-7.2,2.5-13.1,7.8-16.3,14.7c-3.6,7.6-4,16.2-1.2,24.1c4.4,12.4,14.7,20.1,26.9,20.1c3.6,0,7.1-0.7,10.5-1.9
				c3.9-1.5,7.4-4,9.9-7.4c1.1-1.4,2.8-2.2,4.6-2.2c0.4,0,0.8,0,1.2,0.1l3.6,0.8c0.3,0.1,0.6,0.1,0.9,0.1c1.3,0,2.6-0.7,3.4-1.8
				C206.3,191.8,206.5,190.4,206,189.1z"/>
		</g>
	</g>
</g>
</svg>
