<?xml version="1.0" encoding="utf-8"?>
<!-- Generator: Adobe Illustrator 24.0.1, SVG Export Plug-In . SVG Version: 6.00 Build 0)  -->
<svg version="1.1" id="Layer_2" xmlns="http://www.w3.org/2000/svg" xmlns:xlink="http://www.w3.org/1999/xlink" x="0px" y="0px"
	 viewBox="0 0 237.9 237.6" style="enable-background:new 0 0 237.9 237.6;" xml:space="preserve">
<style type="text/css">
	.st0{fill:none;}
	.st1{fill:#E9A18B;}
	.st2{fill:#1E1B19;}
	.st3{fill:#F8F8F8;}
</style>
<g>
	<g>
		<path class="st0" d="M36.4,79.8c-0.1-0.6-0.2-1.1-0.2-1.6C36.2,78.7,36.3,79.3,36.4,79.8z"/>
		<path class="st0" d="M36.1,78c-0.1-0.5-0.1-1-0.2-1.6C36,77,36,77.5,36.1,78z"/>
		<path class="st0" d="M35.9,76.2c0-0.5-0.1-1-0.1-1.5C35.8,75.2,35.9,75.7,35.9,76.2z"/>
		<path class="st0" d="M35.8,74.5c0-0.5,0-1,0-1.5C35.8,73.5,35.8,74,35.8,74.5z"/>
		<path class="st0" d="M35.8,72.8c0-0.5,0-1,0-1.5C35.8,71.8,35.8,72.3,35.8,72.8z"/>
		<path class="st0" d="M118.9,218.3c-22.3,0-51-0.1-58.8-0.2c-16.8-0.3-33.1-2.6-38.6-17.2v-0.1c-3-8.4-2.4-16.7-1.5-28.2
			c1-11.1,1.4-22.2,1.1-33.3v-0.4c0.1-4.6,0-8.8-0.2-12.8c-0.3-8.4-0.6-16.6,2.6-23.3c-3.2,6.8-2.9,15-2.6,23.4
			c0.2,4,0.3,8.2,0.2,12.8v0.4c0.3,11.1-0.1,22.2-1.1,33.3c-0.9,11.5-1.6,19.8,1.5,28.2v0.1c5.5,14.6,21.8,16.8,38.6,17.1
			C67.9,218.3,96.6,218.3,118.9,218.3c22.2,0,51,0,58.7-0.2c13.1-0.2,25.9-1.7,33.5-9.3c-7.6,7.6-20.4,9-33.5,9.2
			C169.9,218.3,141.2,218.3,118.9,218.3z"/>
		<path class="st0" d="M216.8,126.3c-0.2,4-0.3,8.2-0.2,12.8c0,0.1,0,0.2,0,0.4c-0.3,11.1,0,22.2,1.1,33.3c0.2,2,0.3,4,0.5,5.8
			c-0.1-1.8-0.3-3.7-0.4-5.7c-1-11.1-1.4-22.2-1.1-33.3c0-0.1,0-0.2,0-0.4c-0.1-4.6,0-8.8,0.2-12.8c0.2-6.3,0.5-12.5-0.8-18.1
			C217.3,113.8,217,120,216.8,126.3z"/>
		<path class="st0" d="M35.8,71.1c0-0.5,0.1-1,0.1-1.5C35.9,70.1,35.9,70.6,35.8,71.1z"/>
		<path class="st0" d="M30,76.9c0.4,4.7,1.6,9.9,3.9,15.6c0,0,0,0,0,0C31.5,86.8,30.4,81.6,30,76.9z"/>
		<path class="st0" d="M204,92.5C204,92.5,204,92.5,204,92.5c4.6-11.3,4.8-20.7,3.1-28.2C208.7,71.8,208.5,81.2,204,92.5z"/>
		<path class="st0" d="M119,25.4h1.6c47.1,1.1,92.8,21.5,78.9,61.9c0,0,0,0.1,0,0.1c14.1-40.5-31.7-61-78.9-62.1L119,25.4
			c-40.2,0.5-80,15.1-83,44.2C39,40.5,78.7,25.9,119,25.4z"/>
		<path class="st0" d="M210.7,139.2c-0.5-19.8,3.8-33-8-40.6c0,0,0,0.1,0,0.1C214.4,106.4,210.1,119.5,210.7,139.2
			c-1.1,32.3,4.6,46.8-0.1,59.6h0C215.4,186,209.6,171.6,210.7,139.2z"/>
		<path class="st0" d="M229.6,143.5C228.9,116,236,99,212,90.7C240.3,35.3,181.6,7.4,121,6h-2.1c-15.3,0.2-30.6,2.1-44.4,5.7
			c13.8-3.6,29.1-5.5,44.4-5.7h2.1c60.6,1.4,119.3,29.3,91,84.7C236,99,228.9,116,229.6,143.5c-1.3,39,5.6,56.4,0,71.9
			c-1.5,3.9-3.9,6.9-7.2,9.2c3.3-2.3,5.7-5.3,7.2-9.2v0C235.3,199.9,228.3,182.5,229.6,143.5z"/>
		<path class="st0" d="M27.2,198.8c-4.7-12.8,1.1-27.3,0-59.6c0.5-19.7-3.8-32.9,7.9-40.5c0,0,0,0,0-0.1
			c-11.7,7.7-7.4,20.8-7.9,40.5C28.3,171.6,22.5,186,27.2,198.8c1.2,3.2,3.2,5.7,6,7.6C30.5,204.6,28.5,202.1,27.2,198.8z"/>
		<path class="st0" d="M36.4,79.9c0.4,2.4,1,4.8,1.9,7.4c0,0,0,0,0,0C37.4,84.7,36.8,82.3,36.4,79.9z"/>
		<path class="st1" d="M229.6,215.4c5.7-15.5-1.3-32.9,0-71.9C228.9,116,236,99,212,90.7C240.2,35.3,181.6,7.4,121,6h-2.1
			c-15.3,0.2-30.6,2.1-44.4,5.7c-41.5,10.8-70,37-48.6,79C1.9,99,9,116,8.3,143.5c1.3,39-5.7,56.4,0,71.9
			c4.7,12.6,19.3,15.6,39.9,16c8.4,0.1,39.6,0.2,70.8,0.2s62.4-0.1,70.8-0.2c14.1-0.2,25.4-1.8,32.7-6.8
			C225.7,222.3,228.1,219.3,229.6,215.4z M216.2,200.9L216.2,200.9c-1.2,3.3-2.9,5.9-5.1,8c-7.6,7.6-20.4,9-33.5,9.3
			c-7.8,0.1-36.5,0.2-58.8,0.2c-22.3,0-51,0-58.8-0.2c-16.8-0.3-33.1-2.6-38.6-17.1V201c-3-8.4-2.4-16.7-1.5-28.2
			c1-11.1,1.4-22.2,1.1-33.3v-0.4c0.1-4.6,0-8.8-0.2-12.8c-0.3-8.4-0.6-16.6,2.6-23.4c1.9-4.1,5.1-7.6,10.2-10.4
			c-2.3-5.7-3.5-10.9-3.9-15.6c-0.9-10.4,2-18.5,5.5-24.2c14.5-24,52.6-33,83.4-33.4h0.1l0.1,0.1h1.8c17.6,0.4,34.3,3.4,48.2,8.6
			c15.7,5.8,27.3,14.5,33.5,25c1.8,3.1,3.5,6.9,4.5,11.4c1.7,7.5,1.5,16.9-3,28.2c7.3,4,10.6,9.5,12,15.8c1.3,5.6,1,11.8,0.8,18.1
			c-0.2,4-0.3,8.2-0.2,12.8c0,0.1,0,0.2,0,0.4c-0.3,11.1,0,22.2,1.1,33.3c0.2,2,0.3,3.9,0.4,5.7C218.8,187.2,218.8,194,216.2,200.9z
			"/>
		<path class="st2" d="M236.9,184c-1.3-13.4-1.7-26.9-1.3-40.3c0-0.1,0-0.2,0-0.3c-0.1-5.6,0-10.6,0.2-15.5
			c0.7-16.8,1.2-31.5-15.8-40.2c9.2-21.9,4.6-37.8-1.3-47.7c-7.4-12.4-21.2-22.6-39.8-29.6C162.3,4.1,142.3,0.5,121.1,0h-2.3
			C82,0.5,36.5,11.2,19.3,39.8c-5.9,9.8-10.7,25.9-1.4,47.9C0.9,96.2,1.4,111,2,127.8c0.2,4.9,0.4,10,0.2,15.5v0.3
			c0.4,13.5,0,26.9-1.2,40.3c-1.2,13.7-2,23.6,1.6,33.5v0.1C9,234.4,28.2,237.1,48,237.4c9.3,0.2,44,0.2,70.9,0.2s61.6-0.1,70.9-0.2
			c19.8-0.4,39-3,45.4-19.9v-0.1C238.8,207.6,238,197.7,236.9,184z M229.6,215.4L229.6,215.4c-1.5,3.9-3.9,6.9-7.2,9.2
			c-7.2,5-18.5,6.5-32.7,6.8c-8.4,0.1-39.6,0.2-70.8,0.2s-62.4-0.1-70.8-0.2C27.6,231,13,228,8.3,215.4c-5.7-15.5,1.3-32.9,0-71.9
			C9,116,1.9,99,25.9,90.7c-21.4-42,7.1-68.2,48.6-79c13.8-3.6,29.1-5.5,44.4-5.7h2.1c60.6,1.4,119.3,29.3,91,84.7
			c24,8.3,16.9,25.3,17.6,52.8C228.3,182.5,235.3,199.9,229.6,215.4z"/>
		<path class="st3" d="M210.6,139.2c-0.6-19.7,3.8-32.9-7.9-40.5c0,0,0-0.1,0-0.1c-1.8-1.2-4-2.2-6.6-3.1c1.4-2.8,2.6-5.5,3.5-8.1
			c0,0,0-0.1,0-0.1c13.9-40.4-31.8-60.8-78.9-61.9H119c-40.3,0.5-80,15.1-83,44.2c0,0,0,0.1,0,0.1c-0.1,0.5-0.1,1-0.1,1.5
			c0,0.1,0,0.1,0,0.2c0,0.5,0,1,0,1.5c0,0.1,0,0.1,0,0.2c0,0.5,0,1,0,1.5c0,0.1,0,0.2,0,0.2c0,0.5,0.1,1,0.1,1.5c0,0.1,0,0.1,0,0.2
			c0,0.5,0.1,1,0.2,1.6c0,0.1,0,0.1,0,0.2c0.1,0.5,0.2,1.1,0.2,1.6c0,0,0,0.1,0,0.1c0.4,2.4,1,4.8,1.9,7.4c0,0,0,0,0,0
			c0.9,2.7,2.1,5.4,3.5,8.2c-2.7,0.9-4.9,2-6.7,3.2c0,0,0,0,0,0.1c-11.7,7.7-7.4,20.8-7.9,40.5c1.1,32.3-4.7,46.7,0,59.6
			c1.2,3.2,3.3,5.7,6,7.6c6,4.2,15.3,5.4,27.1,5.6c7,0.1,32.8,0.2,58.7,0.2s51.7-0.1,58.7-0.2c17.1-0.3,29.1-2.8,33.1-13.3h0
			C215.3,186,209.6,171.6,210.6,139.2z"/>
		<path class="st2" d="M217.7,172.8c-1-11.1-1.4-22.2-1.1-33.3c0-0.1,0-0.2,0-0.4c-0.1-4.6,0-8.8,0.2-12.8c0.2-6.3,0.5-12.5-0.8-18
			c-1.4-6.3-4.7-11.8-12-15.8c0,0,0,0-0.1,0c4.6-11.3,4.7-20.7,3.1-28.2c-1-4.5-2.7-8.3-4.5-11.4c-6.2-10.5-17.8-19.1-33.5-25
			c-13.9-5.2-30.6-8.2-48.2-8.6H119l-0.1-0.1h-0.1C88,19.7,49.9,28.7,35.4,52.8C32,58.4,29.1,66.5,30,76.9c0.4,4.7,1.6,9.9,3.9,15.6
			c0,0,0,0,0,0c-5.2,2.8-8.3,6.4-10.2,10.4c-3.2,6.8-2.9,14.9-2.6,23.3c0.1,4,0.3,8.2,0.2,12.8v0.4c0.3,11.1-0.1,22.2-1.1,33.3
			c-0.9,11.5-1.6,19.8,1.5,28.2v0.1c5.5,14.6,21.8,16.9,38.6,17.2c7.7,0.1,36.5,0.2,58.8,0.2c22.3,0,51-0.1,58.8-0.2
			c13.1-0.2,25.9-1.7,33.5-9.2c2.1-2.1,3.9-4.7,5.1-7.9v-0.1c2.5-6.9,2.5-13.7,1.9-22.3C218,176.7,217.9,174.8,217.7,172.8z
			 M210.6,198.8L210.6,198.8c-4,10.4-16,13-33.1,13.3c-7,0.1-32.8,0.2-58.7,0.2s-51.7-0.1-58.7-0.2c-11.7-0.2-21.1-1.5-27.1-5.6
			c-2.7-1.9-4.7-4.4-6-7.6c-4.7-12.8,1.1-27.3,0-59.6c0.5-19.7-3.8-32.9,7.9-40.5c1.8-1.2,4-2.2,6.7-3.2c-1.4-2.8-2.6-5.6-3.5-8.2
			c-0.9-2.5-1.5-5-1.9-7.4c0,0,0-0.1,0-0.1c-0.1-0.6-0.2-1.1-0.2-1.6c0-0.1,0-0.1,0-0.2c-0.1-0.5-0.1-1-0.2-1.6c0-0.1,0-0.1,0-0.2
			c0-0.5-0.1-1-0.1-1.5c0-0.1,0-0.2,0-0.2c0-0.5,0-1,0-1.5c0-0.1,0-0.1,0-0.2c0-0.5,0-1,0-1.5c0-0.1,0-0.1,0-0.2
			c0-0.5,0.1-1,0.1-1.5c0,0,0-0.1,0-0.1c3.1-29.1,42.8-43.7,83-44.2h1.7c47.2,1.1,92.9,21.6,78.9,62.1c-0.9,2.6-2.1,5.3-3.5,8.1
			c2.6,0.9,4.8,1.9,6.6,3.1c11.9,7.6,7.5,20.8,8,40.6C209.6,171.6,215.4,186,210.6,198.8L210.6,198.8z"/>
	</g>
	<g>
		<path class="st2" d="M119.1,79c-22,0-39.8,17.8-39.8,39.8s17.8,39.8,39.8,39.8s39.8-17.8,39.8-39.8C158.9,96.8,141.1,79,119.1,79z
			 M119.1,146.6c-15.4,0-27.8-12.4-27.8-27.8S103.8,91,119.1,91s27.8,12.4,27.8,27.8C146.9,134.2,134.5,146.6,119.1,146.6
			L119.1,146.6z"/>
		<path class="st2" d="M119.1,164.8c-3.3,0-6,2.7-6,6v18.7c0,3.3,2.7,6,6,6s6-2.7,6-6v-18.7C125.1,167.4,122.4,164.8,119.1,164.8z"
			/>
		<path class="st2" d="M73.6,118.8c0-3.3-2.7-6-6-6H48.9c-3.3,0-6,2.7-6,6s2.7,6,6,6h18.7C70.9,124.8,73.6,122.1,73.6,118.8z"/>
		<path class="st2" d="M75.1,150.5l-11.4,11.4c-2,2-1.8,5.6,0.6,7.9c2.3,2.3,5.9,2.6,7.9,0.6l11.4-11.4c2-2,1.8-5.6-0.6-7.9
			S77.1,148.4,75.1,150.5z"/>
		<path class="st2" d="M119.1,72.9c3.3,0,6-2.7,6-6V48.2c0-3.3-2.7-6-6-6s-6,2.7-6,6v18.7C113.1,70.2,115.8,72.9,119.1,72.9z"/>
		<path class="st2" d="M75.1,87.2c2,2,5.6,1.8,7.9-0.6c2.3-2.3,2.6-5.9,0.6-7.9L72.1,67.3c-2-2-5.6-1.8-7.9,0.6
			c-2.4,2.3-2.6,5.9-0.6,7.9L75.1,87.2z"/>
		<path class="st2" d="M189,112.8h-18.7c-3.3,0-6,2.7-6,6s2.7,6,6,6H189c3.3,0,6-2.7,6-6S192.3,112.8,189,112.8L189,112.8z"/>
		<path class="st2" d="M162.8,150.5c-2-2-5.6-1.8-7.9,0.6c-2.4,2.3-2.6,5.9-0.6,7.9l11.4,11.4c2,2,5.6,1.8,7.9-0.6s2.6-5.9,0.6-7.9
			L162.8,150.5z"/>
		<path class="st2" d="M162.8,87.2l11.4-11.4c2-2,1.8-5.6-0.6-7.9s-5.9-2.6-7.9-0.6l-11.4,11.4c-2,2-1.8,5.6,0.6,7.9
			S160.8,89.2,162.8,87.2z"/>
	</g>
</g>
</svg>
