<?xml version="1.0" encoding="utf-8"?>
<!-- Generator: Adobe Illustrator 24.0.1, SVG Export Plug-In . SVG Version: 6.00 Build 0)  -->
<svg version="1.1" id="Layer_1" xmlns="http://www.w3.org/2000/svg" xmlns:xlink="http://www.w3.org/1999/xlink" x="0px" y="0px"
	 viewBox="0 0 237.9 237.6" style="enable-background:new 0 0 237.9 237.6;" xml:space="preserve">
<style type="text/css">
	.st0{fill:#1E1B19;}
	.st1{fill:#1E2433;}
	.st2{fill:#235789;}
</style>
<title>Bred dark</title>
<g>
	<path class="st0" d="M236.9,184c-1.3-13.4-1.7-26.9-1.3-40.3c0-0.1,0-0.2,0-0.4c-0.1-5.6,0-10.6,0.2-15.5
		c0.7-16.8,1.2-31.6-15.8-40.2c9.2-21.9,4.6-37.8-1.3-47.7c-7.4-12.4-21.2-22.6-39.8-29.6C162.3,4.1,142.3,0.5,121.1,0H119h-0.1
		h-0.1C82,0.5,36.5,11.2,19.3,39.7c-5.9,9.9-10.7,25.9-1.4,47.9C0.9,96.2,1.4,111,2,127.8c0.2,4.9,0.4,10,0.2,15.5
		c0,0.1,0,0.2,0,0.4c0.4,13.5,0,26.9-1.3,40.3c-1.1,13.7-1.9,23.6,1.7,33.5v0.1C9,234.4,28.2,237.1,48,237.4
		c9.3,0.2,44,0.2,70.9,0.2c26.9,0,61.6-0.1,70.9-0.2c19.8-0.4,39-3,45.4-19.9v-0.1C238.8,207.6,238,197.7,236.9,184z"/>
	<g id="Layer_2_1_">
		<g id="Layer_3">
			<path class="st1" d="M229.6,143.5C228.9,116,236,99,212,90.7C240.3,35.3,181.6,7.4,121,6h-2.1C57.6,6.8-2.7,34.7,25.9,90.7
				C1.9,99,9,116,8.3,143.5c1.3,39-5.7,56.4,0,71.9c4.7,12.6,19.3,15.6,39.9,16c8.4,0.1,39.6,0.2,70.8,0.2s62.4-0.1,70.8-0.2
				c20.6-0.4,35.1-3.4,39.9-16C235.3,199.9,228.3,182.5,229.6,143.5z M216.3,200.9L216.3,200.9c-5.5,14.6-21.8,16.9-38.6,17.2
				c-7.8,0.1-36.5,0.2-58.8,0.2s-51-0.1-58.8-0.2c-16.8-0.3-33.1-2.6-38.6-17.1v-0.1c-3-8.4-2.4-16.7-1.5-28.2
				c1-11.1,1.4-22.2,1.1-33.3v-0.4c0.1-4.6,0-8.8-0.2-12.8c-0.5-13.5-1-26.3,12.8-33.8c-7.3-18.2-3.4-31.5,1.6-39.7
				c14.5-24,52.6-33,83.4-33.4h0.1l0.1,0.1h1.8c17.7,0.4,34.3,3.4,48.2,8.6c15.7,5.8,27.3,14.5,33.5,25c4.9,8.2,8.8,21.5,1.5,39.5
				c13.8,7.5,13.3,20.3,12.8,33.8c-0.2,4-0.3,8.2-0.2,12.8c0,0.1,0,0.2,0,0.4c-0.3,11.1,0,22.2,1.1,33.3
				C218.6,184.2,219.3,192.6,216.3,200.9z"/>
			<path class="st0" d="M236.9,184c-1.3-13.4-1.7-26.9-1.3-40.3c0-0.1,0-0.2,0-0.4c-0.1-5.6,0-10.6,0.2-15.5
				c0.7-16.8,1.2-31.5-15.8-40.2c9.2-21.9,4.6-37.8-1.3-47.7c-7.4-12.4-21.2-22.6-39.8-29.6C162.3,4.1,142.3,0.5,121.1,0h-2.3
				C82,0.5,36.5,11.2,19.3,39.8c-5.9,9.8-10.7,25.9-1.4,47.9C0.9,96.2,1.4,111,2,127.8c0.2,4.9,0.4,10,0.2,15.5v0.4
				c0.4,13.5,0,26.9-1.2,40.3c-1.2,13.7-2,23.6,1.6,33.5v0.1C9,234.4,28.2,237.1,48,237.4c9.3,0.2,44,0.2,70.9,0.2
				s61.6-0.1,70.9-0.2c19.8-0.4,39-3,45.4-19.9v-0.1C238.8,207.6,238,197.7,236.9,184z M229.6,215.4c-4.8,12.6-19.3,15.6-39.9,16
				c-8.4,0.1-39.6,0.2-70.8,0.2s-62.4-0.1-70.8-0.2C27.6,231,13,228,8.3,215.4c-5.7-15.5,1.3-32.9,0-71.9C9,116,1.9,99,25.9,90.7
				c-28.6-56,31.7-83.9,93-84.7h2.1c60.6,1.4,119.3,29.3,91,84.7c24,8.3,16.9,25.3,17.6,52.8C228.3,182.5,235.3,199.9,229.6,215.4
				L229.6,215.4z"/>
			<path class="st2" d="M210.7,139.2c-0.7-22.8,5.3-36.8-14.7-43.7c23.4-45.9-25.2-69-75.4-70.2H119C68.2,26,18.2,49.2,41.9,95.5
				c-19.9,6.9-14,20.9-14.6,43.7c1.1,32.3-4.7,46.7,0,59.6c4,10.4,16,13,33.1,13.3c7,0.1,32.8,0.2,58.7,0.2s51.7-0.1,58.7-0.2
				c17.1-0.3,29.1-2.8,33.1-13.3C215.4,186,209.6,171.6,210.7,139.2z M50.9,100.9c-2.3-2.3-2.3-6.1,0-8.5c0,0,0,0,0,0l37.3-37.3
				c2.4-2.3,6.2-2.1,8.5,0.3c2.1,2.3,2.1,5.9,0,8.2l-37.3,37.3C57,103.2,53.2,103.2,50.9,100.9z M61.9,137.7c-3.3,0-6-2.7-6-6
				c0-1.6,0.6-3.1,1.8-4.2l65.6-65.6c2.4-2.3,6.2-2.3,8.5,0.1c2.3,2.3,2.3,6.1,0,8.4l-65.6,65.6C65,137,63.5,137.7,61.9,137.7
				L61.9,137.7z M73.8,174c-3.3,0-6-2.7-6-6c0-1.6,0.6-3.1,1.8-4.2l90-90c2.4-2.3,6.2-2.3,8.5,0.1c2.3,2.3,2.3,6.1,0,8.4l-90,90
				C76.9,173.4,75.4,174,73.8,174z M114.4,184.2c-2.3,2.4-6.1,2.4-8.5,0.1c-2.4-2.3-2.4-6.1-0.1-8.5c0,0,0,0,0.1-0.1l65.6-65.6
				c2.3-2.4,6.1-2.4,8.5-0.1c2.4,2.3,2.4,6.1,0.1,8.5c0,0,0,0-0.1,0.1L114.4,184.2z M186.7,153.6l-37.3,37.3
				c-2.4,2.3-6.2,2.3-8.5-0.1c-2.3-2.3-2.3-6.1,0-8.4l37.3-37.3c2.3-2.3,6.1-2.3,8.5,0S189.1,151.3,186.7,153.6z"/>
			<path class="st0" d="M216.6,139.5c0-0.1,0-0.2,0-0.4c-0.1-4.6,0-8.8,0.2-12.8c0.5-13.5,1-26.3-12.8-33.8
				c7.3-18.1,3.4-31.3-1.5-39.5c-6.2-10.5-17.8-19.1-33.5-25c-13.9-5.2-30.6-8.2-48.2-8.6H119l-0.1-0.1h-0.1
				C88,19.7,49.9,28.7,35.4,52.8c-5,8.2-8.9,21.6-1.6,39.7c-13.7,7.5-13.3,20.3-12.8,33.8c0.1,4,0.3,8.2,0.2,12.8v0.4
				c0.3,11.1-0.1,22.2-1.1,33.3c-0.9,11.5-1.6,19.8,1.5,28.2v0.1c5.5,14.6,21.8,16.9,38.6,17.1c7.7,0.1,36.5,0.2,58.8,0.2
				s51-0.1,58.8-0.2c16.8-0.3,33.1-2.6,38.6-17.1v-0.1c3.1-8.4,2.4-16.7,1.4-28.2C216.7,161.7,216.3,150.6,216.6,139.5z
				 M210.6,198.8c-4,10.4-16,13-33.1,13.3c-7,0.1-32.8,0.2-58.7,0.2s-51.7-0.1-58.7-0.2c-17.1-0.3-29.1-2.8-33.1-13.3
				c-4.7-12.9,1.1-27.3,0-59.6c0.6-22.8-5.3-36.8,14.6-43.7C18.2,49.2,68.2,26,119,25.3h1.7c50.2,1.1,98.8,24.3,75.4,70.2
				c19.9,6.9,14,20.9,14.6,43.7C209.6,171.6,215.4,186,210.6,198.8L210.6,198.8z"/>
			<path class="st0" d="M131.7,61.8c-2.3-2.3-6.1-2.3-8.5,0l-65.6,65.6c-2.4,2.3-2.4,6.1-0.1,8.5c2.3,2.4,6.1,2.4,8.5,0.1
				c0,0,0,0,0.1-0.1l65.6-65.6C134.1,68,134.1,64.2,131.7,61.8C131.7,61.8,131.7,61.8,131.7,61.8z"/>
			<path class="st0" d="M168.1,73.7c-2.3-2.3-6.1-2.3-8.5,0l-90,90c-2.5,2.2-2.8,6-0.6,8.5c2.2,2.5,6,2.8,8.5,0.6
				c0.2-0.2,0.4-0.4,0.6-0.6l90-90C170.4,79.9,170.4,76.1,168.1,73.7C168.1,73.7,168.1,73.7,168.1,73.7z"/>
			<path class="st0" d="M96.7,63.6c2.3-2.4,2.1-6.2-0.3-8.5c-2.3-2.1-5.9-2.1-8.2,0L50.9,92.4c-2.4,2.3-2.4,6.1-0.1,8.5
				c2.3,2.4,6.1,2.4,8.5,0.1c0,0,0,0,0.1-0.1L96.7,63.6z"/>
			<path class="st0" d="M180,110.1c-2.3-2.3-6.1-2.3-8.5,0l-65.6,65.6c-2.4,2.3-2.4,6.1-0.1,8.5c2.3,2.4,6.1,2.4,8.5,0.1
				c0,0,0,0,0.1-0.1l65.6-65.6C182.3,116.2,182.3,112.4,180,110.1C180,110.1,180,110.1,180,110.1z"/>
			<path class="st0" d="M178.2,145.1l-37.3,37.3c-2.3,2.4-2.3,6.2,0.1,8.5c2.3,2.3,6.1,2.3,8.4,0l37.3-37.3c2.3-2.3,2.3-6.1,0-8.5
				S180.6,142.8,178.2,145.1L178.2,145.1z"/>
		</g>
	</g>
</g>
</svg>
