<svg xmlns="http://www.w3.org/2000/svg" viewBox="0 0 237.85 237.65"><defs><style>.cls-1{fill:#1e2433;}.cls-2{fill:#1e1b19;}.cls-3{fill:#235789;}</style></defs><title>Asset 1</title><g id="Layer_2" data-name="Layer 2"><g id="Layer_1-2" data-name="Layer 1"><path class="cls-1" d="M229.64,143.48C228.93,116,236,99,212,90.68,240.26,35.33,181.59,7.39,121,6h-2.1c-61.26.79-121.59,28.72-93,84.72C1.91,99,9,116,8.27,143.48c1.29,39-5.67,56.42,0,71.92C13,228,27.58,231,48.17,231.4c8.38.15,39.58.23,70.78.23s62.4-.08,70.78-.23c20.59-.35,35.14-3.39,39.91-16C235.3,199.9,228.34,182.48,229.64,143.48Zm-13.39,57.43V201c-5.51,14.56-21.79,16.85-38.57,17.15-7.76.14-36.49.19-58.76.19s-51-.05-58.76-.19c-16.78-.3-33.06-2.59-38.56-17.15v-.06c-3.05-8.36-2.38-16.67-1.45-28.16a274,274,0,0,0,1.09-33.29v-.36c.12-4.59,0-8.81-.18-12.81-.49-13.46-1-26.25,12.81-33.79-7.34-18.17-3.4-31.49,1.6-39.73,14.51-24,52.6-33,83.4-33.43H119l.08.08h1.76c17.65.41,34.32,3.37,48.22,8.58,15.69,5.83,27.28,14.48,33.48,25,4.89,8.21,8.79,21.48,1.49,39.55,13.81,7.54,13.3,20.33,12.81,33.79-.18,4-.3,8.22-.18,12.81a2.16,2.16,0,0,1,0,.36,272,272,0,0,0,1.09,33.29C218.63,184.24,219.31,192.55,216.25,200.91Z"/><path class="cls-2" d="M236.91,184a331,331,0,0,1-1.32-40.33,2,2,0,0,0,0-.35c-.14-5.58,0-10.64.22-15.54C236.46,111,237,96.23,220,87.62c9.2-21.87,4.57-37.84-1.29-47.66-7.39-12.39-21.17-22.64-39.83-29.64C162.28,4.08,142.3.53,121.14,0h-2.31C82,.48,36.51,11.17,19.27,39.75,13.33,49.6,8.61,65.63,17.85,87.62.9,96.23,1.44,111,2,127.79c.18,4.9.36,10,.22,15.54v.35A328.91,328.91,0,0,1,1,184C-.16,197.72-1,207.63,2.63,217.46v.06C9,234.4,28.23,237.06,48,237.42c9.32.17,44,.23,70.89.23s61.57-.06,70.89-.23c19.81-.36,39-3,45.41-19.9v-.06C238.83,207.63,238,197.72,236.91,184Zm-7.27,31.39c-4.77,12.61-19.32,15.65-39.91,16-8.38.15-39.58.23-70.78.23s-62.4-.08-70.78-.23C27.58,231,13,228,8.27,215.4c-5.67-15.5,1.29-32.88,0-71.92C9,116,1.91,99,25.91,90.72c-28.59-56,31.74-83.93,93-84.72H121c60.58,1.39,119.25,29.33,91,84.68,24,8.32,16.92,25.32,17.63,52.8C228.34,182.48,235.3,199.9,229.64,215.4Z"/><path class="cls-3" d="M210.66,139.23C210,116.44,215.93,102.4,196,95.51c23.43-45.86-25.18-69-75.39-70.17H119C68.15,26,18.17,49.16,41.86,95.51c-19.89,6.89-14,20.93-14.62,43.72,1.07,32.34-4.7,46.74,0,59.59,4,10.44,16,13,33.06,13.27,7,.13,32.8.19,58.65.19s51.65-.06,58.65-.19c17.06-.27,29.06-2.83,33.06-13.27C215.36,186,209.59,171.57,210.66,139.23Z"/><path class="cls-2" d="M216.61,139.46a2.16,2.16,0,0,0,0-.36c-.12-4.59,0-8.77.18-12.81.49-13.46,1-26.25-12.81-33.79,7.3-18.07,3.4-31.34-1.49-39.55C196.29,42.48,184.7,33.83,169,28c-13.9-5.21-30.57-8.17-48.22-8.58H119l-.08-.08h-.08c-30.8.4-68.89,9.39-83.4,33.43-5,8.24-8.94,21.56-1.6,39.73C20.1,100,20.57,112.83,21.06,126.29c.14,4,.3,8.22.18,12.81v.36a274,274,0,0,1-1.09,33.29c-.93,11.49-1.6,19.8,1.45,28.16V201c5.5,14.56,21.78,16.85,38.56,17.15,7.73.14,36.49.19,58.76.19s51-.05,58.76-.19c16.78-.3,33.06-2.59,38.57-17.15v-.06c3.06-8.36,2.38-16.67,1.45-28.16A272,272,0,0,1,216.61,139.46Zm-6,59.36c-4,10.44-16,13-33.06,13.27-7,.13-32.8.19-58.65.19s-51.7-.06-58.65-.19c-17.06-.31-29.11-2.83-33.06-13.27-4.7-12.85,1.07-27.25,0-59.59.58-22.79-5.27-36.83,14.62-43.72C18.17,49.16,68.15,26,119,25.34h1.7c50.21,1.15,98.82,24.31,75.39,70.17,19.89,6.89,14,20.93,14.62,43.72C209.59,171.57,215.36,186,210.66,198.82Z"/><path class="cls-2" d="M158.3,162.22c-5.89,20.65-28.42,28.28-55.49,20.55L30.15,162l1.09-3.82A16,16,0,0,0,50.9,147.25l24-84.13A16,16,0,0,0,64,43.47l1.09-3.82L130.41,58.3c25.08,7.17,38.3,24,32.8,43.28-3.14,11-13,19.45-27.94,20.81C154.78,132.26,162.28,148.3,158.3,162.22ZM95,108.59c19.27,5.5,33,.82,37.47-14.78,4.72-16.52-8.77-25.5-24.68-30Zm-2,7-14,49c29.52,8.43,44.18,5.17,48.9-11.35s-7.2-29.69-34.9-37.6Z"/><path class="cls-2" d="M206,189.15l-5-13.87a4.2,4.2,0,0,1,.17-3.17,4.14,4.14,0,0,1,2.36-2.14l2.36-.84-.84-2.35-.56-1.57-.84-2.35-2.35.83-25.1,8.93-2.35.83.83,2.36.56,1.57.84,2.35,2.35-.83a4,4,0,0,1,1.38-.24,4.19,4.19,0,0,1,3.94,2.76l2.62,7.39a12,12,0,0,1-7.28,4.38,9.83,9.83,0,0,1-1.62.13c-6.5,0-12.88-6.56-16.63-17.11-2.35-6.62-1.7-11.44-.74-14.32,1.09-3.27,3.2-5.74,5.63-6.6a14.11,14.11,0,0,1,4.68-.87c4.69,0,8.83,2.92,12.32,8.68l1,1.6,1.81-.48,1.61-.44,2.73-.73-1-2.61c-1-2.6-2.49-6.52-3.89-10.31-1-2.8-2-5.45-2.75-7.37L181,139.61l-2.66,2.09L174,145.09c-1.37-.09-2.54-.14-3.62-.14a23.56,23.56,0,0,0-8.32,1.33A28.42,28.42,0,0,0,145.74,161a31.63,31.63,0,0,0-1.21,24.1c4.4,12.39,14.7,20.08,26.88,20.08a31.67,31.67,0,0,0,10.51-1.88,22,22,0,0,0,9.9-7.41,5.79,5.79,0,0,1,4.59-2.24,6.53,6.53,0,0,1,1.24.13l3.58.77a4.32,4.32,0,0,0,.88.1,4.15,4.15,0,0,0,3.37-1.75A4.08,4.08,0,0,0,206,189.15Z"/></g></g></svg>