<svg xmlns="http://www.w3.org/2000/svg" viewBox="0 0 208.19 236.05"><defs><style>.cls-1{fill:#1e1b19;}.cls-2{fill:#e9a18b;}.cls-3{fill:#f8f8f8;}</style></defs><title>Asset 40</title><g id="Layer_2" data-name="Layer 2"><g id="Layer_2-2" data-name="Layer 2"><path class="cls-1" d="M104.12,123.11v-.22h0A1.8,1.8,0,0,0,104.12,123.11Z"/><path class="cls-1" d="M194.11,0H11.75C8.6.05,5.45.23,2.31.12.17,0-.19.8.08,2.77.53,6.11.67,9.5.94,12.86a109.31,109.31,0,0,1,1.11,14,81.55,81.55,0,0,1,1.28,14,104.73,104.73,0,0,1,1.33,14L6,68.91q.6,7,1.18,14.07A93.38,93.38,0,0,1,8.3,97a87.77,87.77,0,0,1,1.31,14q.66,7,1.33,14L12.2,139l.1,1.39c0,.93.08,1.85.11,2.78,0,.46.07.92.1,1.39,1,2.72.64,5.57.79,8.37A80.79,80.79,0,0,1,14.57,167a94.11,94.11,0,0,1,1.33,14q.64,7,1.3,14t1.25,14.07c-.18,3.1,1.55,4.4,4.39,4.8a18.81,18.81,0,0,1,2.95.89,114.23,114.23,0,0,1,14.05,4c9.46,2.19,18.78,4.85,28,7.77l14,3.77c6.29,1.73,12.59,3.39,18.84,5.24a11.43,11.43,0,0,0,6.8,0c5.14-1.51,10.33-2.82,15.49-4.22A115.41,115.41,0,0,1,138,227.2a93.48,93.48,0,0,1,13-3.67,2.84,2.84,0,0,1,2.24-.53A70.4,70.4,0,0,1,166,219.45a116.12,116.12,0,0,1,14.06-4,47.25,47.25,0,0,1,5.66-1.61c2.83-.47,4.33-1.87,4.23-4.8a94.09,94.09,0,0,1,1.32-14A84,84,0,0,1,192.54,181a89.22,89.22,0,0,1,1-12.54l.09-1.38q.65-7,1.27-14.06t1.34-14a86.63,86.63,0,0,1,1.31-14,91.94,91.94,0,0,1,1.17-14q.58-7,1.18-14.08t1.28-14a106.41,106.41,0,0,1,1.34-14,87.45,87.45,0,0,1,1.26-14c.61-13.23,2.31-26.36,3.27-39.56.37-5.09,1.35-10.13,1.07-15.26Zm-20,198.69a1.62,1.62,0,0,1-1.2,1.41l-68.81,18.47V192h0q-25.25-7.06-50.48-14.12c-1.7-.48-3.21-.75-3.39-3.16q-1.36-18.14-3.1-36.23c-.2-2.12.38-2.58,2.36-2.55,7,.09,14,.11,21,0,2.15,0,2.74.7,2.86,2.77.31,5.35.93,10.68,1.34,16,.09,1.29.36,2.25,1.76,2.59,9.27,2.25,18.27,5.68,27.65,7.47h0V123.31c-8.51-.06-17-.23-25.53-.09-2.58,0-3.47-.73-3.64-3.23-.45-6.62-1-13.25-1.74-19.85-.33-2.83.75-3.42,3.25-3.4q13.83.11,27.65,0c0,.07,0,0,0,0V70.33c-5.36-.07-10.72,0-16.07,0-14.37,0-28.75-.32-43.11-.12-3.18,0-4.16-.94-4.35-4-.37-6.28-1-12.56-1.69-18.81-.31-2.75.65-3.29,3.22-3.28,19.28.11,38.56.06,57.83.05,1.39,0,2.78-.11,4.17-.17V17.47h86.76Z"/><path class="cls-1" d="M104.12,44.42v-.15a.76.76,0,0,0,0,.15Z"/><path class="cls-2" d="M104.12,44h0a1.64,1.64,0,0,0,0,.23v.15c.92-.07,1.84-.21,2.77-.21,19.73,0,39.47,0,59.21-.06,2.56,0,3.47.49,3.2,3.27q-3.86,40.9-7.49,81.83c-1.29,14.39-2.58,28.79-3.69,43.2-.26,3.31-1.23,5-4.79,5.87-16.13,4.15-32.16,8.71-48.23,13.12h0c0,.06,0,.08,0,.08l-.06-.05-.94.53v26.57l68.81-18.47a1.62,1.62,0,0,0,1.2-1.41L190.88,17.47H104.12Z"/><polygon class="cls-2" points="105.1 191.44 105.1 191.44 105.1 191.44 105.1 191.44 105.1 191.44"/><path class="cls-2" d="M105,191.39s0,0,.1.05h0C105,191.39,105,191.38,105,191.39Z"/><path class="cls-2" d="M105.06,191.47l.06.05s0,0,0-.08Z"/><path class="cls-2" d="M133.6,153.59c.62-9.05,1.27-18.11,2.37-27.11.39-3.2-.7-3.39-3.23-3.36-8.27.11-16.55,0-24.83,0-1.26,0-2.52-.17-3.79-.26v.22c0,.06,0,.13,0,.2h0V164.8c8.64-2.36,17.25-4.84,25.93-7C132.53,157.16,133.42,156.12,133.6,153.59Z"/><path class="cls-2" d="M104.15,96.74c10.27-.08,20.54-.13,30.81,0,2.93,0,3.82-.56,4-3.22.46-6.51.91-13,1.71-19.51.44-3.49-.94-3.7-4-3.68-10.85.1-21.7.07-32.55,0h0V96.74S104.14,96.61,104.15,96.74Z"/><path class="cls-2" d="M105.05,191.46v0Z"/><path class="cls-2" d="M104.11,164.8c-9.38-1.79-18.38-5.22-27.65-7.47-1.4-.34-1.67-1.3-1.76-2.59-.41-5.35-1-10.68-1.34-16-.12-2.07-.71-2.81-2.86-2.77-7,.12-14,.1-21,0-2,0-2.56.43-2.36,2.55q1.73,18.1,3.1,36.23c.18,2.41,1.69,2.68,3.39,3.16q25.25,7,50.48,14.12h0V164.8Z"/><path class="cls-2" d="M104.11,44.42a.76.76,0,0,1,0-.15V44c-1.39.06-2.78.17-4.17.17-19.27,0-38.55.06-57.83-.05-2.57,0-3.53.53-3.22,3.28.73,6.25,1.32,12.53,1.69,18.81.19,3,1.17,4,4.35,4,14.36-.2,28.74.1,43.11.12,5.35,0,10.71-.07,16.07,0V44.42Z"/><path class="cls-2" d="M104.1,122.89h0V96.74s0,.07,0,0q-13.81.11-27.65,0c-2.5,0-3.58.57-3.25,3.4C74,106.74,74.5,113.37,75,120c.17,2.5,1.06,3.27,3.64,3.23,8.51-.14,17,0,25.53.09v-.2A1.8,1.8,0,0,1,104.1,122.89Z"/><polygon class="cls-3" points="105.1 191.44 105.1 191.44 105.1 191.44 105.1 191.44"/><path class="cls-3" d="M104.14,44h0v.23A1.64,1.64,0,0,1,104.14,44Z"/><path class="cls-3" d="M105,191.44s0,0,0-.05S105,191.42,105,191.44Z"/><path class="cls-3" d="M105.12,191.52s0,0,0-.08h0C105.14,191.5,105.14,191.52,105.12,191.52Z"/><polygon class="cls-3" points="105.1 191.44 105.1 191.44 105.1 191.44 105.1 191.44"/><path class="cls-3" d="M104.12,123.11v.2h0C104.13,123.24,104.13,123.17,104.12,123.11Z"/><path class="cls-3" d="M105.05,191.46v0s0,0,0-.05,0,0,.1.05c16.07-4.41,32.1-9,48.23-13.12,3.56-.91,4.53-2.56,4.79-5.87,1.11-14.41,2.4-28.81,3.69-43.2q3.69-40.92,7.49-81.83c.27-2.78-.64-3.28-3.2-3.27-19.74.1-39.48.05-59.21.06-.93,0-1.85.14-2.77.21V70.33h0c10.85.07,21.7.1,32.55,0,3,0,4.41.19,4,3.68-.8,6.47-1.25,13-1.71,19.51-.18,2.66-1.07,3.26-4,3.22-10.27-.13-20.54-.08-30.81,0,0-.13,0,0,0,0v26.15c1.27.09,2.53.26,3.79.26,8.28,0,16.56.08,24.83,0,2.53,0,3.62.16,3.23,3.36-1.1,9-1.75,18.06-2.37,27.11-.18,2.53-1.07,3.57-3.55,4.19-8.68,2.18-17.29,4.66-25.93,7V192l.94-.53Z"/><path class="cls-3" d="M105.05,191.46h0Z"/><path class="cls-3" d="M105.1,191.44h0c-.07-.05-.1-.06-.1-.05s0,0,0,.05v0h0Z"/><path class="cls-3" d="M105.06,191.47l.06.05-.06-.05Z"/></g></g></svg>