<svg xmlns="http://www.w3.org/2000/svg" viewBox="0 0 219.93 219.93"><defs><style>.cls-1{fill:#1e1b19;}</style></defs><title>ExtLink--icon</title><g id="Layer_2" data-name="Layer 2"><g id="Layer_26_copy_3" data-name="Layer 26 copy 3"><path class="cls-1" d="M211.43,110.59a8.5,8.5,0,0,0-8.5,8.5v75.09a8.74,8.74,0,0,1-8.75,8.75H25.75A8.75,8.75,0,0,1,17,194.18V25.75A8.75,8.75,0,0,1,25.75,17h75.1a8.5,8.5,0,0,0,0-17H25.75A25.75,25.75,0,0,0,0,25.75V194.18a25.75,25.75,0,0,0,25.75,25.75H194.18a25.74,25.74,0,0,0,25.75-25.75V119.09A8.49,8.49,0,0,0,211.43,110.59Z"/><path class="cls-1" d="M138,16.59c8.44,0,17.69.05,28.37,0a1.38,1.38,0,0,1,.36.05l23.91,0-86.08,86.07a8.5,8.5,0,0,0,12,12l86.64-86.65,0,24.82,0,.3a1.17,1.17,0,0,1,.05.46q0,14.3,0,28.58a8.47,8.47,0,0,0,2.45,6,8.25,8.25,0,0,0,5.88,2.4,8.53,8.53,0,0,0,5.5-2l.68-.69a8.38,8.38,0,0,0,2.08-5.66q0-18.61,0-37.18,0-18.16,0-36.32a8.89,8.89,0,0,0-2.23-6.12l-.51-.52a8.92,8.92,0,0,0-6-2.16H151.08c-4.51,0-9,0-13.5,0a8.53,8.53,0,0,0-6,2.43,8.22,8.22,0,0,0-2.2,7.59C130.23,14.06,133.52,16.56,138,16.59Z"/></g></g></svg>