<svg xmlns="http://www.w3.org/2000/svg" viewBox="0 0 219.93 219.93"><defs><style>.cls-1{fill:#e9a18b;}.cls-2{fill:#f8f8f8;}.cls-3{fill:#1e1b19;}</style></defs><title>Asset 34</title><g id="Layer_2" data-name="Layer 2"><g id="Layer_17_copy" data-name="Layer 17 copy"><rect class="cls-1" x="13.12" y="13.12" width="193.7" height="193.7"/><path class="cls-2" d="M85,85.06h25a0,0,0,0,1,0,0v49.75a0,0,0,0,1,0,0H85a24.87,24.87,0,0,1-24.87-24.87v0A24.87,24.87,0,0,1,85,85.06Z"/><path class="cls-3" d="M85,134.79h25a0,0,0,0,1,0,0v24.87a24.87,24.87,0,0,1-24.87,24.87H85a24.87,24.87,0,0,1-24.87-24.87v0A24.87,24.87,0,0,1,85,134.79Z"/><path class="cls-3" d="M85,35.4h25a0,0,0,0,1,0,0V85.15a0,0,0,0,1,0,0H85A24.87,24.87,0,0,1,60.14,60.27v0A24.87,24.87,0,0,1,85,35.4Z"/><path class="cls-2" d="M134.84,35.4h25a0,0,0,0,1,0,0V85.15a0,0,0,0,1,0,0h-25A24.87,24.87,0,0,1,110,60.27v0A24.87,24.87,0,0,1,134.84,35.4Z" transform="translate(269.76 120.55) rotate(180)"/><rect class="cls-3" x="109.97" y="85.15" width="49.83" height="49.75" rx="24.87" transform="translate(269.76 220.05) rotate(-180)"/><path class="cls-3" d="M194.18,17a8.76,8.76,0,0,1,8.75,8.75V194.18a8.75,8.75,0,0,1-8.75,8.75H25.75A8.76,8.76,0,0,1,17,194.18V25.75A8.77,8.77,0,0,1,25.75,17H194.18m0-17H25.75A25.75,25.75,0,0,0,0,25.75V194.18a25.75,25.75,0,0,0,25.75,25.75H194.18a25.75,25.75,0,0,0,25.75-25.75V25.75A25.75,25.75,0,0,0,194.18,0Z"/></g></g></svg>