<svg xmlns="http://www.w3.org/2000/svg" viewBox="0 0 79.05 122.52"><defs><style>.cls-1{fill:none;stroke-linejoin:round;stroke-width:3.52px;}.cls-1,.cls-2{stroke:#fff;}.cls-2{fill:#fff;stroke-miterlimit:10;stroke-width:0.88px;}</style></defs><title>Layer 26 (2)</title><g id="Layer_2" data-name="Layer 2"><g id="Layer_25" data-name="Layer 25"><g id="Layer_26" data-name="Layer 26"><path class="cls-1" d="M30.25,61.11V46.2h0c-10.63-8-26.7-24.91-28.41-27,0,0-.08-3.08-.08-4.84C1.76,3,18,2.41,19.76,2.25,38.61.49,59.92,3.51,77.3,11h0V111.48h0C59.92,119,38.61,122,19.76,120.27c-1.72-.16-18-.71-18-12.07,0-1.76.08-4.84.08-4.84,1.71-2.13,17.78-19.06,28.41-27h0Z"/><path class="cls-1" d="M77.3,28.34,62.73,44.69a5.07,5.07,0,0,0-1.65,3.74V74.06a5.06,5.06,0,0,0,1.68,3.77L77.3,93.9"/><circle class="cls-1" cx="42.79" cy="81.98" r="6.06"/><circle class="cls-1" cx="42.79" cy="40.45" r="6.06"/><circle class="cls-2" cx="64.23" cy="99.75" r="3.02"/><circle class="cls-2" cx="58.19" cy="105.79" r="3.02"/><circle class="cls-2" cx="58.19" cy="93.71" r="3.02"/><circle class="cls-2" cx="52.15" cy="99.75" r="3.02"/><polyline class="cls-1" points="1.84 103.36 5.36 90.69 24.01 72.87 24.01 50.06 5.36 30.27 1.84 19.16"/><line class="cls-1" x1="58.19" y1="13.05" x2="58.19" y2="31.17"/><line class="cls-1" x1="49.13" y1="22.11" x2="67.25" y2="22.11"/></g></g></g></svg>