<?xml version="1.0" encoding="utf-8"?>
<!-- Generator: Adobe Illustrator 24.0.1, SVG Export Plug-In . SVG Version: 6.00 Build 0)  -->
<svg version="1.1" id="Layer_1" xmlns="http://www.w3.org/2000/svg" xmlns:xlink="http://www.w3.org/1999/xlink" x="0px" y="0px"
	 viewBox="0 0 79.1 122.5" style="enable-background:new 0 0 79.1 122.5;" xml:space="preserve">
<style type="text/css">
	.st0{fill:none;stroke:#FFFFFF;stroke-width:5;stroke-linejoin:round;}
	.st1{fill:#FFFFFF;}
</style>
<title>Layer 26 (2)</title>
<g id="Layer_26">
	<path class="st0" d="M30.3,61.1V46.2l0,0c-10.6-8-26.7-24.9-28.4-27c0,0-0.1-3.1-0.1-4.8C1.8,3,18,2.4,19.8,2.3
		C38.6,0.5,59.9,3.5,77.3,11l0,0v100.5l0,0c-17.4,7.5-38.7,10.5-57.5,8.8c-1.7-0.2-18-0.7-18-12.1c0-1.8,0.1-4.8,0.1-4.8
		c1.7-2.1,17.8-19.1,28.4-27l0,0V61.1z"/>
	<path class="st0" d="M77.3,28.3L62.7,44.7c-1.1,1-1.6,2.3-1.7,3.7v25.6c0,1.4,0.6,2.8,1.7,3.8l14.5,16.1"/>
	<circle class="st0" cx="42.8" cy="82" r="6.1"/>
	<circle class="st0" cx="42.8" cy="40.5" r="6.1"/>
	<polyline class="st0" points="1.8,103.4 5.4,90.7 18.7,72.9 18.7,50.1 5.4,30.3 1.8,19.2 	"/>
	<line class="st0" x1="58.2" y1="13.1" x2="58.2" y2="31.2"/>
	<line class="st0" x1="49.1" y1="22.1" x2="67.3" y2="22.1"/>
</g>
<g id="Layer_2">
	<circle class="st1" cx="64.8" cy="99.8" r="3.3"/>
	<circle class="st1" cx="58.2" cy="106.3" r="3.3"/>
	<circle class="st1" cx="58.2" cy="93.2" r="3.3"/>
	<circle class="st1" cx="51.6" cy="99.8" r="3.3"/>
</g>
</svg>
