<svg xmlns="http://www.w3.org/2000/svg" viewBox="0 0 219.93 219.91"><defs><style>.cls-1{fill:#1e1b19;}</style></defs><title>GitHub-outline--icon</title><g id="Layer_2" data-name="Layer 2"><g id="Layer_32" data-name="Layer 32"><path class="cls-1" d="M219.87,25.33C219.86,13.22,211,2.91,199,.44A11.81,11.81,0,0,1,197.57,0H22.33c-3.77,1.56-7.85,2.65-11.26,4.79C5.14,8.52,1.77,14.28.41,21.17A9.39,9.39,0,0,1,0,22.33V197.57c1.12,4.28,2.4,8.49,5.22,12.06,5.14,6.51,11.82,10.21,20.12,10.22q84.59.12,169.18,0a25.58,25.58,0,0,0,25.35-25.36Q220,109.94,219.87,25.33ZM202.72,192.78c0,6.57-3.33,9.94-9.85,9.94H142.75a9.68,9.68,0,0,1-.21-2.28c0-10,.19-19.93.07-29.89-.09-7-1.8-13.56-6.94-18.77-.06-.06,0-.23,0-.38a91.29,91.29,0,0,0,18.93-3.94C166.69,143.35,175.9,136,181,124c3.18-7.46,4.25-15.34,4.58-23.36.49-11.72-2.72-22.17-10.6-31a1.78,1.78,0,0,1-.25-2,39.06,39.06,0,0,0,.07-22.49c-1.59-5.71-2.12-6-8-4.8-8.23,1.65-15.43,5.57-22.37,10.06a3.63,3.63,0,0,1-3.16.51,105.13,105.13,0,0,0-52.12.1,3,3,0,0,1-2.64-.49,83,83,0,0,0-14.89-7.92A33.52,33.52,0,0,0,60.21,40c-1.09,0-2.56-.51-3.12,1-3.16,8.68-4.18,17.49-1.17,26.43a2.41,2.41,0,0,1-.58,2.82,40,40,0,0,0-9,17c-2,7.9-1.53,15.87-.32,23.8,1.65,10.89,5.85,20.56,14.4,27.92,6.81,5.85,14.9,9,23.54,10.88,3.64.79,7.33,1.3,11.18,2a23.38,23.38,0,0,0-6.79,13.62,1.37,1.37,0,0,1-1,1.25c-5.84,2.33-11.8,3.46-18,1.66-5.8-1.68-9.83-5.56-12.94-10.57S49.23,148.92,43.54,147a13,13,0,0,0-7.29-.55c-2.24.55-2.67,1.81-1.11,3.49a12.44,12.44,0,0,0,2.6,2.2c6.41,3.83,10.24,9.7,13,16.39a24,24,0,0,0,14.1,13.8c7,2.73,14.15,2.56,21.35,1.17,1.5-.29,1.81,0,1.8,1.5,0,5.39.07,10.78.13,16.18a6.62,6.62,0,0,1-.14,1.6H27.12c-6.58,0-9.94-3.33-9.94-9.85V27.12c0-6.58,3.33-9.94,9.85-9.94H192.78c6.66,0,9.94,3.32,9.94,10.06Z"/></g></g></svg>