<svg xmlns="http://www.w3.org/2000/svg" viewBox="0 0 208.19 236.05"><defs><style>.cls-1{fill:#1e1b19;}.cls-2{fill:#e9a18b;}.cls-3{fill:#f8f8f8;}</style></defs><title>Asset 38</title><g id="Layer_2" data-name="Layer 2"><g id="Layer_11" data-name="Layer 11"><path class="cls-1" d="M194.11,0H11.75C8.6.05,5.45.23,2.31.12.17,0-.19.8.08,2.77.53,6.11.67,9.5.94,12.86a109.31,109.31,0,0,1,1.11,14,81.55,81.55,0,0,1,1.28,14,104.73,104.73,0,0,1,1.33,14L6,68.91q.6,7,1.18,14.07A93.38,93.38,0,0,1,8.3,97a87.77,87.77,0,0,1,1.31,14q.66,7,1.33,14L12.2,139l.1,1.39c0,.93.08,1.85.11,2.78,0,.46.07.92.1,1.39,1,2.72.64,5.57.79,8.37A80.79,80.79,0,0,1,14.57,167a94.11,94.11,0,0,1,1.33,14q.64,7,1.3,14t1.25,14.07c-.18,3.1,1.55,4.4,4.39,4.8a18.81,18.81,0,0,1,2.95.89,114.23,114.23,0,0,1,14.05,4c9.46,2.19,18.78,4.85,28,7.77l14,3.77c6.29,1.73,12.59,3.39,18.84,5.24a11.43,11.43,0,0,0,6.8,0c5.14-1.51,10.33-2.82,15.49-4.22A115.41,115.41,0,0,1,138,227.2a93.48,93.48,0,0,1,13-3.67,2.84,2.84,0,0,1,2.24-.53A70.4,70.4,0,0,1,166,219.45a116.12,116.12,0,0,1,14.06-4,47.25,47.25,0,0,1,5.66-1.61c2.83-.47,4.33-1.87,4.23-4.8a94.09,94.09,0,0,1,1.32-14A84,84,0,0,1,192.54,181a89.22,89.22,0,0,1,1-12.54l.09-1.38q.65-7,1.27-14.06t1.34-14a86.63,86.63,0,0,1,1.31-14,91.94,91.94,0,0,1,1.17-14q.58-7,1.18-14.08t1.28-14a106.41,106.41,0,0,1,1.34-14,87.45,87.45,0,0,1,1.26-14c.61-13.23,2.31-26.36,3.27-39.56.37-5.09,1.35-10.13,1.07-15.26Z"/><path class="cls-2" d="M190.88,17.47H104.12v201.1l68.81-18.47a1.62,1.62,0,0,0,1.2-1.41Z"/><path class="cls-3" d="M166.76,41.8c-5.25.09-10.5,0-15.75,0L104.12,42V67.79q18.54.06,37.09.13c7.82,0,15.64,0,23.45,0,1.25,0,2.49.28,2.65-1.76.56-7.31,1.25-14.62,2-21.92C169.57,42,168.58,41.77,166.76,41.8Z"/><path class="cls-2" d="M60.69,41.88c-6.43,0-12.85,0-19.27,0-1.9,0-2.89.4-2.52,2.51.18,1,.14,2.1.24,3.14q1.63,18.29,3.3,36.57,1.48,16.72,3,33.45c.15,1.62.19,3.1,2.68,3.08,18.69-.14,37.37-.14,56.05-.19V94.63c-10.5,0-21-.15-31.51,0-2.4,0-3.24-.74-3.4-3-.48-6.86-.91-13.73-1.78-20.54-.38-3,.67-3.16,3.08-3.15,11.2.07,22.41,0,33.61,0V42Z"/><path class="cls-3" d="M133.5,120.54c2.18,0,2.71.51,2.47,2.78-1,9-1.82,18.08-2.35,27.14-.19,3.16-1.39,4.31-4.32,5-8.44,2.13-16.8,4.6-25.19,6.93v26.68l1.37-.19a10.19,10.19,0,0,0,1.36-.25q22.91-6.27,45.8-12.57c5.17-1.43,5-1.45,5.49-7,1-12,2.13-23.89,3.19-35.84s2.09-24.14,3.21-36.2c.17-1.89-.17-2.67-2.31-2.66-19.36.12-38.73.13-58.09.18V120.4C113.91,120.46,123.71,120.58,133.5,120.54Z"/><path class="cls-2" d="M104.11,162.44c-8.65-2.33-17.27-4.77-26-6.92-2.65-.65-3.48-1.82-3.58-4.47-.18-4.88-1-9.74-1.2-14.62-.11-2.12-.74-2.76-2.87-2.72-7,.12-14,.15-21,0-2.4-.06-2.54.78-2.35,2.83,1.12,11.82,2.16,23.65,3,35.5.18,2.44,1.46,3.06,3.38,3.57,11.46,3.1,22.9,6.28,34.37,9.35,2.69.72,5.34,1.58,8,2.34a58,58,0,0,0,8.16,1.83h0Z"/></g></g></svg>