<svg xmlns="http://www.w3.org/2000/svg" viewBox="0 0 219.94 219.93"><defs><style>.cls-1{fill:#e9a18b;}.cls-2{fill:#1e1b19;}.cls-3{fill:#f8f8f8;}</style></defs><title>Illustrator--icon-new</title><g id="Layer_2" data-name="Layer 2"><g id="Layer_17" data-name="Layer 17"><rect class="cls-1" x="13.12" y="13.12" width="193.7" height="193.7"/><path class="cls-2" d="M194.18,17a8.76,8.76,0,0,1,8.75,8.75V194.18a8.75,8.75,0,0,1-8.75,8.75H25.75A8.76,8.76,0,0,1,17,194.18V25.75A8.77,8.77,0,0,1,25.75,17H194.18m0-17H25.75A25.75,25.75,0,0,0,0,25.75V194.18a25.75,25.75,0,0,0,25.75,25.75H194.18a25.76,25.76,0,0,0,25.76-25.75V25.75A25.76,25.76,0,0,0,194.18,0Z"/><path class="cls-3" d="M116.46,140.82c2.09,6.05,8.69,11,14.85,11v2.75l-44-.11v-2.64c6-.11,9.24-4.95,7.15-11L88,121.68H63.77l-7.7,19.14c-2.42,5.94.44,10.89,6.38,11v2.75H33.85v-2.75c6,0,13.2-4.95,15.62-11L79.39,66.57H91.05ZM66,116.18H86.1L76.86,89.34Z"/><path class="cls-3" d="M152.21,69.76C154,71.63,161,74.6,161,74.6s-7,3.08-8.8,5-5,8.8-5,8.8-3.08-7-4.84-8.8-8.91-5-8.91-5,7.15-3,8.91-4.84,4.84-8.91,4.84-8.91S150.34,68,152.21,69.76Zm6,23.87-24.75,4,.44,2.64a4.44,4.44,0,0,1,5.06,4.29v41.8a5.45,5.45,0,0,1-5.5,5.5v2.75h30.25v-2.75a5.45,5.45,0,0,1-5.5-5.5Z"/></g></g></svg>