<svg xmlns="http://www.w3.org/2000/svg" viewBox="0 0 219.94 219.93"><defs><style>.cls-1{fill:#e9a18b;}.cls-2{fill:#1e1b19;}.cls-3{fill:#f8f8f8;}</style></defs><title>InDesign--icon-new</title><g id="Layer_2" data-name="Layer 2"><g id="Layer_26_copy_2" data-name="Layer 26 copy 2"><rect class="cls-1" x="13.12" y="13.12" width="193.7" height="193.7"/><path class="cls-2" d="M194.18,17a8.76,8.76,0,0,1,8.75,8.75V194.18a8.75,8.75,0,0,1-8.75,8.75H25.75A8.76,8.76,0,0,1,17,194.18V25.75A8.77,8.77,0,0,1,25.75,17H194.18m0-17H25.75A25.75,25.75,0,0,0,0,25.75V194.18a25.75,25.75,0,0,0,25.75,25.75H194.18a25.76,25.76,0,0,0,25.76-25.75V25.75A25.76,25.76,0,0,0,194.18,0Z"/><path class="cls-3" d="M65.47,72c1.76,1.87,8.8,4.84,8.8,4.84s-7,3.08-8.8,5-4.95,8.8-4.95,8.8-3.08-7-4.84-8.8-8.91-5-8.91-5,7.15-3,8.91-4.84,4.84-8.91,4.84-8.91S63.6,70.26,65.47,72Zm6,23.87-24.75,4,.44,2.64a4.44,4.44,0,0,1,5.06,4.29v41.8a5.45,5.45,0,0,1-5.5,5.5v2.75H77v-2.75a5.45,5.45,0,0,1-5.5-5.5Z"/><path class="cls-3" d="M132,68.94c24.86,0,41.14,16.17,41.14,44,0,17.6-10.89,43.89-41,43.89H79.88v-2.75a11,11,0,0,0,11-11V82.58a11,11,0,0,0-11-11V68.83ZM112.88,149c27.94,0,38.5-20.79,38.5-36.19,0-20.68-10.67-36.3-38.5-36.3Z"/></g></g></svg>