<svg xmlns="http://www.w3.org/2000/svg" viewBox="0 0 208.19 236.05"><defs><style>.cls-1{fill:#1e1b19;}.cls-2{fill:#e9a18b;}.cls-3{fill:none;}.cls-4{fill:#f8f8f8;}</style></defs><title>Asset 39</title><g id="Layer_2" data-name="Layer 2"><g id="Layer_13" data-name="Layer 13"><path class="cls-1" d="M194.11,0H11.75C8.6.05,5.45.23,2.31.12.17,0-.19.8.08,2.77.53,6.11.67,9.5.94,12.86a109.31,109.31,0,0,1,1.11,14,81.55,81.55,0,0,1,1.28,14,104.73,104.73,0,0,1,1.33,14L6,68.91q.6,7,1.18,14.07A93.38,93.38,0,0,1,8.3,97a87.77,87.77,0,0,1,1.31,14q.66,7,1.33,14L12.2,139l.1,1.39c0,.93.08,1.85.11,2.78,0,.46.07.92.1,1.39,1,2.72.64,5.57.79,8.37A80.79,80.79,0,0,1,14.57,167a94.11,94.11,0,0,1,1.33,14q.64,7,1.3,14t1.25,14.07c-.18,3.1,1.55,4.4,4.39,4.8a18.81,18.81,0,0,1,2.95.89,114.23,114.23,0,0,1,14.05,4c9.46,2.19,18.78,4.85,28,7.77l14,3.77c6.29,1.73,12.59,3.39,18.84,5.24a11.43,11.43,0,0,0,6.8,0c5.14-1.51,10.33-2.82,15.49-4.22A115.41,115.41,0,0,1,138,227.2a93.48,93.48,0,0,1,13-3.67,2.84,2.84,0,0,1,2.24-.53A70.4,70.4,0,0,1,166,219.45a116.12,116.12,0,0,1,14.06-4,47.25,47.25,0,0,1,5.66-1.61c2.83-.47,4.33-1.87,4.23-4.8a94.09,94.09,0,0,1,1.32-14A84,84,0,0,1,192.54,181a89.22,89.22,0,0,1,1-12.54l.09-1.38q.65-7,1.27-14.06t1.34-14a86.63,86.63,0,0,1,1.31-14,91.94,91.94,0,0,1,1.17-14q.58-7,1.18-14.08t1.28-14a106.41,106.41,0,0,1,1.34-14,87.45,87.45,0,0,1,1.26-14c.61-13.23,2.31-26.36,3.27-39.56.37-5.09,1.35-10.13,1.07-15.26Z"/><path class="cls-2" d="M190.88,17.47H104.12v201.1l68.81-18.47a1.62,1.62,0,0,0,1.2-1.41Z"/><path class="cls-3" d="M101.12,63.85c-1.53,0-3.06.14-4.59.16-5.81.12-11.61.27-17.41.57-1.23.07-1.27.06-1.42,1.35-.25,2.12-.45,4.24-.66,6.37-.32,3.28-.62,6.55-.93,9.83q-.67,7.14-1.34,14.27c-.23,2.36-.43,4.71-.69,7.06-.19,1.62-.23,1.62,1.44,1.62h24.82c.51,0,1,0,1.53,0l.56-.14h1.67V64.08L102.46,64C102.05,63.69,101.57,63.84,101.12,63.85Z"/><path class="cls-2" d="M102.43,105l-.56.14c-.51,0-1,0-1.53,0H75.52c-1.67,0-1.63,0-1.44-1.62.26-2.35.46-4.7.69-7.06q.67-7.12,1.34-14.27c.31-3.28.61-6.55.93-9.83.21-2.13.41-4.25.66-6.37.15-1.29.19-1.28,1.42-1.35,5.8-.3,11.6-.45,17.41-.57,1.53,0,3.06-.12,4.59-.16.45,0,.93-.16,1.34.17l1.64.06V35.68l-1.68,0c-.46,0-.93,0-1.39,0-8,0-16.08,0-24.12,0-6.92,0-13.85,0-20.77.29a16.16,16.16,0,0,0-2.07.22c-.49.09-.72.28-.77.8-.15,1.71-.35,3.41-.52,5.12-.32,3.32-.62,6.64-.94,10-.44,4.75-.9,9.5-1.34,14.26-.21,2.26-.39,4.52-.6,6.79-.43,4.66-.88,9.32-1.29,14-.33,3.65-.62,7.31-.94,11-.44,5.08-.91,10.16-1.36,15.24q-.33,3.81-.64,7.62c-.25,3-.55,6-.71,9-.1,1.93-.23,1.69,1.7,1.69h54c.6,0,1.2,0,1.8.07h1.68V105Z"/><path class="cls-2" d="M101.87,172.3a2.72,2.72,0,0,1-1.23-.15c-8.8-2.11-17.49-4.62-26.22-7-1.07-.29-1.14-.4-1.24-1.52s-.19-2.5-.3-3.74c-.31-3.65-.61-7.31-.94-11-.11-1.29-.32-2.57-.43-3.87-.05-.6-.33-.81-.88-.8h-24c-2,0-1.68.08-1.7,1.77s.14,3.25.23,4.87c.21,4,.63,8,1,11.93.45,5.07,1.05,10.14,1.62,15.21.24,2.07.58,4.13.86,6.2a1.88,1.88,0,0,0,1.6,1.78c1.85.46,3.65,1.1,5.48,1.61q19.75,5.55,39.53,11.05c1.14.32,2.27.66,3.41,1a28.94,28.94,0,0,0,3.47.75h0l2-.52V172A6.47,6.47,0,0,1,101.87,172.3Z"/><path class="cls-4" d="M113.59,64.33c5,.15,9.91.42,14.87.68,1.43.07,2.85.34,4.28.47a1,1,0,0,1,1.06,1c0,.36.12.73.16,1.1.23,1.93.47,3.86.67,5.79.35,3.32.7,6.63,1,9.95.23,2.49.52,5,.57,7.48,0,.49.11.94.73,1h0c.56,0,1.11-.09,1.67-.09h22.44c.38,0,.75,0,1.12,0,.62,0,.82-.29.71-.88-.44-2.41-.56-4.85-.82-7.28-.25-2.24-.37-4.5-.74-6.73a28.38,28.38,0,0,1-.26-3.31c-.14-2.59-.5-5.15-.69-7.73s-.32-5-.73-7.42c-.19-1.14-.17-2.31-.25-3.45-.1-1.57-.27-3.14-.41-4.7a43.52,43.52,0,0,0-.42-4.54,33.09,33.09,0,0,1-.29-3.86c-.11-1.33-.36-2.66-.35-4,0-.68-.3-.95-1-1.07a32.09,32.09,0,0,0-5.54-.26c-1.72,0-3.41-.42-5.13-.32-.11,0-.23-.14-.34-.21a17.33,17.33,0,0,0-2.79,0c-3.1-.07-6.2-.18-9.31-.2-9.74,0-19.48,0-29.22-.07h-.54v28.4C107.26,64.19,110.42,64.22,113.59,64.33Z"/><path class="cls-4" d="M108.31,198.8a33.29,33.29,0,0,0,3.36-1l.51-.1c.06-.32.25-.44.56-.52q6.14-1.65,12.27-3.34c.84-.23,1.69-.45,2.52-.7a.45.45,0,0,1,.59.18l.52-.11a3.91,3.91,0,0,1,3.14-1v0c.34-.52.76-.75,1.35-.36l.53-.09a.94.94,0,0,1,1.42-.47l.53-.09c.84-1,2-.94,3.13-1v0a1.93,1.93,0,0,1,2-.58v0a2,2,0,0,1,2-.6l0,0c.18-.45.52-.34.86-.26v0c.21-.61.7-.34,1.09-.34h0c.18-.42.52-.34.86-.26h0c.23-.56.71-.32,1.11-.33l0,0c.18-.42.53-.33.86-.28v0c.2-.47.59-.33,1-.3a28.79,28.79,0,0,0,3.42-.93c1.13-.36,2.24-.76,3.37-1.12a1.16,1.16,0,0,0,.84-1.13c.28-2.82.59-5.63.87-8.45.33-3.28.63-6.56.93-9.84q.66-6.93,1.29-13.87c.33-3.56.62-7.12.94-10.68s.68-7.21,1-10.81.59-7,.93-10.54c.41-4.3.87-8.59,1.29-12.89.15-1.49,0-1.65-1.53-1.77s-3.16-.24-4.73-.26c-15.49-.17-31-.1-46.45-.12-2.14,0-4.28,0-6.42,0v26.68l29.14,0h.28c.57,0,.69.22.61.77-.79,5.28-1.16,10.6-1.62,15.91-.39,4.62-.9,9.24-1.35,13.85a7.6,7.6,0,0,0-.23,2.07c0,.13-.07.27-.1.41a85.93,85.93,0,0,1-9.3,2.83c-5.62,1.54-11.25,3.08-16.94,4.36l-.49.13v27.9l.81-.22C106,199.35,107.18,199.09,108.31,198.8Z"/></g></g></svg>