<svg xmlns="http://www.w3.org/2000/svg" viewBox="0 0 277.92 255.52"><defs><style>.cls-1{fill:#1e1b19;}.cls-2{fill:#e9a18b;}.cls-3{fill:#f8f8f8;}</style></defs><title>Maya logo</title><g id="Layer_2" data-name="Layer 2"><g id="Layer_28" data-name="Layer 28"><rect class="cls-1" x="25.67" y="48.2" width="252.26" height="207.32" rx="1.38"/><path class="cls-2" d="M47.12,0H243.2a14.3,14.3,0,0,1,14.3,14.3v192a1,1,0,0,1-1,1H47.12a0,0,0,0,1,0,0V0A0,0,0,0,1,47.12,0Z"/><polygon class="cls-3" points="47.12 0 0 28.6 0 235.91 47.12 207.32 47.12 0"/><path class="cls-3" d="M208.79,62.41a11,11,0,0,0-11,11v60.5a11,11,0,0,0,11,11v2.75h-44v-2.75a11,11,0,0,0,11-11V83.64l-20,64H133.44l-20-64v50.27a11,11,0,0,0,11,11v2.75H95.82v-2.75a11,11,0,0,0,11-11V73.41c0-5.94-4-10.23-11-11V59.66h44v2.75c-6,0-9.46,5-7.59,11l20,64.24,20.13-64.24c2-6.38-1.87-11-7.59-11V59.66h44Z"/><path class="cls-3" d="M135.22,238.7a4.84,4.84,0,0,0,4.22,3.12v.78l-12.49,0v-.75c1.72,0,2.62-1.41,2-3.12l-1.85-5.44h-6.87l-2.18,5.44c-.69,1.68.12,3.09,1.81,3.12v.78h-8.12v-.78a5.27,5.27,0,0,0,4.43-3.12l8.5-21.09H128Zm-14.33-7h5.71L124,224.08Z"/><path class="cls-3" d="M162.37,217.61v.78a5.74,5.74,0,0,0-5.06,3.13L153.65,229v9.72a3.14,3.14,0,0,0,3.12,3.12v.78H144.28v-.78a3.13,3.13,0,0,0,3.12-3.12v-8.13l-4.34-9a5.77,5.77,0,0,0-4.62-3.13v-.78h12.49v.78c-1.71,0-2.46,1.41-1.62,3.13l3,6.31,3.09-6.31c.78-1.6.25-2.91-1.19-3.1v-.81Z"/><path class="cls-3" d="M184.82,238.7a4.84,4.84,0,0,0,4.22,3.12v.78l-12.49,0v-.75a2.16,2.16,0,0,0,2-3.12l-1.85-5.44h-6.87l-2.19,5.44c-.68,1.68.13,3.09,1.82,3.12v.78h-8.13v-.78a5.3,5.3,0,0,0,4.44-3.12l8.5-21.09h3.31Zm-14.33-7h5.71l-2.62-7.62Z"/></g></g></svg>