<svg xmlns="http://www.w3.org/2000/svg" viewBox="0 0 219.93 219.93"><defs><style>.cls-1{fill:#e9a18b;}.cls-2{fill:#1e1b19;}</style></defs><title>Asset 42</title><g id="Layer_2" data-name="Layer 2"><g id="Layer_25" data-name="Layer 25"><rect class="cls-1" x="13.12" y="12.78" width="193.7" height="193.7"/><path class="cls-2" d="M61.62,59.78,68.15,70c1.77-1.2,2.91-4.26,2.09-5.92C68.35,60.2,65.94,58.12,61.62,59.78Z"/><path class="cls-2" d="M199.73,196.6a13.4,13.4,0,0,1-1.35-1.38,58.13,58.13,0,0,0-17.46-15,45.53,45.53,0,0,1-6.43-4.44,9.61,9.61,0,0,1-1.74-2.08l-.06-.08.31-.07c1.13-.27,2.1-.5,3.08-.71l5-1,4.18-.86q5.6-1.17,11.18-2.38a2.2,2.2,0,0,0,1.86-1.38,2.07,2.07,0,0,0-.65-2.09c-.77-.83-1.52-1.69-2.27-2.55a65.2,65.2,0,0,0-6-6.24c-10.67-9.29-20.48-15.37-30.88-19.14a9.35,9.35,0,0,1-5.77-5.17l-1.48-3.24q-7-15.27-14-30.55a88.21,88.21,0,0,0-4.1-8.12c-10.13-17-24-30.83-42.5-42.2a51.92,51.92,0,0,0-26.83-7.76,5.41,5.41,0,0,1-3.89-1.45,42.3,42.3,0,0,0-11.93-7.34c-3.7-1.64-8.15-3.3-13.17-3.09A10.55,10.55,0,0,0,27,32.15a10.78,10.78,0,0,0-2.31,8.51A21.1,21.1,0,0,0,29,50c1,1.31,2,2.61,3,3.9,1.45,1.88,3,3.83,4.33,5.8a29,29,0,0,1,3.37,6.14c.82,2.14,1.53,4.39,2.21,6.55.58,1.85,1.18,3.75,1.85,5.61,2.39,6.57,5.15,13.44,10.43,18.93a2.11,2.11,0,0,1,.52,1.39c-.56,2.28-1.25,4.59-1.91,6.81-.28.93-.56,1.86-.83,2.8a56.83,56.83,0,0,0-.22,31c1.91,7,4.78,11.95,9,15.44,2.61,2.14,5.64,2.81,8.31,1.84s4.58-3.45,5.22-6.8c.25-1.33.44-2.69.62-4,.15-1,.29-2,.46-3.06s.41-2.15.64-3.26a11.72,11.72,0,0,1,.55,1.13,74.86,74.86,0,0,0,12.89,20.67c1.7,1.87,10.29,8.64,13.4,9,.57.07,1.09.32,1.47-.12a1,1,0,0,0-.06-1.41c-14.06-14.23-22.24-32-27.81-46l-.55-1.36-1.07,1c-4.27,4-6.52,7.89-7.51,12.91-.69,3.5-1.14,7.1-1.57,10.58l-.19,1.49a4.2,4.2,0,0,1-.28,1.21,2.76,2.76,0,0,1-.73-.52,15.8,15.8,0,0,1-3.69-4.83c-4.35-9.29-5.36-19.64-3-30.76a70.14,70.14,0,0,1,2.61-8.55c.39-1.08.77-2.16,1.13-3.24,1.09-3.27.31-6.12-2.37-8.71a16.58,16.58,0,0,1-3.44-4.33l-.73-1.43a56.37,56.37,0,0,1-4.35-10.1c-3.36-11.93-8.41-21.59-15.44-29.53a21.06,21.06,0,0,1-2.7-4.35c-1.1-2.14-1.13-3.6-.09-4.75s2.52-1.31,4.61-.59c6,2.09,12.36,4.52,17.55,9.14a7.8,7.8,0,0,0,3.57,2,36.17,36.17,0,0,0,7.1.67A30.53,30.53,0,0,1,77.57,51.1c13.87,6,25.8,15,36.45,27.62a96.13,96.13,0,0,1,15,23.6c3.66,8.3,7.51,16.69,11.23,24.8l3.42,7.46a18.78,18.78,0,0,0,1,1.83c.29.47.56.92.79,1.38,1.64,3.3,4.4,5.46,8.7,6.79l2.8.83a44.79,44.79,0,0,1,10,3.79c5.35,3.11,10.54,6.72,15.57,10.21l5.19,3.6a1.8,1.8,0,0,1,.46.53c-.25,0-.47,0-.69,0-1.19.07-2.4.11-3.6.15a61.24,61.24,0,0,0-8.62.72,79.39,79.39,0,0,0-10,2.68l-2.66.84a3.09,3.09,0,0,0-2.13,1.58,2.24,2.24,0,0,0,.14,1.93l.48,1a32.64,32.64,0,0,0,3.11,5.36c4.05,5.3,9.52,9.4,17.75,13.29,5.2,2.46,7.89,5.55,12.37,9.78.48.45,1.26,1.29,2.05,2.17a7.79,7.79,0,0,0,5.57-3.81c-.23-.34-.46-.68-.72-1A13.19,13.19,0,0,0,199.73,196.6Z"/><path class="cls-2" d="M194.18,17a8.76,8.76,0,0,1,8.75,8.75V194.18a8.75,8.75,0,0,1-8.75,8.75H25.75A8.76,8.76,0,0,1,17,194.18V25.75A8.77,8.77,0,0,1,25.75,17H194.18m0-17H25.75A25.75,25.75,0,0,0,0,25.75V194.18a25.75,25.75,0,0,0,25.75,25.75H194.18a25.75,25.75,0,0,0,25.75-25.75V25.75A25.75,25.75,0,0,0,194.18,0Z"/></g></g></svg>