<svg xmlns="http://www.w3.org/2000/svg" viewBox="0 0 210.59 210.59"><defs><style>.cls-1{fill:#1e1b19;}.cls-2{fill:#e9a18b;}</style></defs><title>Asset 37</title><g id="Layer_2" data-name="Layer 2"><g id="Layer_27" data-name="Layer 27"><circle class="cls-1" cx="105.29" cy="105.29" r="105.29"/><path class="cls-2" d="M75.83,66.19a3.12,3.12,0,0,0-.44,0H69a3.09,3.09,0,0,0-3.09,3.09v81.83A3.08,3.08,0,0,0,69,154.14h6.42a3.08,3.08,0,0,0,3.09-3.08V89.54L153.17,199.1a104.6,104.6,0,0,0,9.2-5.31L78.71,67.52A3.1,3.1,0,0,0,75.83,66.19Z"/><path class="cls-2" d="M140.37,63.27H134a3.08,3.08,0,0,0-3.09,3.08v54.9l12.6,19.37V66.35A3.09,3.09,0,0,0,140.37,63.27Z"/></g></g></svg>