<svg xmlns="http://www.w3.org/2000/svg" viewBox="0 0 219.94 219.93"><defs><style>.cls-1{fill:#e9a18b;}.cls-2{fill:#1e1b19;}.cls-3{fill:#f8f8f8;}</style></defs><title>Photoshop--icon-new</title><g id="Layer_2" data-name="Layer 2"><g id="Layer_26_copy" data-name="Layer 26 copy"><rect class="cls-1" x="13.12" y="13.12" width="193.7" height="193.7"/><path class="cls-2" d="M194.18,17a8.76,8.76,0,0,1,8.75,8.75V194.18a8.75,8.75,0,0,1-8.75,8.75H25.75A8.76,8.76,0,0,1,17,194.18V25.75A8.77,8.77,0,0,1,25.75,17H194.18m0-17H25.75A25.75,25.75,0,0,0,0,25.75V194.18a25.75,25.75,0,0,0,25.75,25.75H194.18a25.76,25.76,0,0,0,25.76-25.75V25.75A25.76,25.76,0,0,0,194.18,0Z"/><path class="cls-3" d="M75.48,117.28v21.89a11,11,0,0,0,11,11v2.75h-44v-2.75a11,11,0,0,0,11-11V78.67a11,11,0,0,0-11-11V64.92H92.75c19.47,0,32.34,9.35,32.34,24.2C125.09,99.9,115.63,117.28,75.48,117.28Zm0-6.49c17.6,0,27.61-8.58,27.61-19.69,0-13-10.12-18.59-27.61-18.59Z"/><path class="cls-3" d="M177.45,134.88c0,13.09-13.53,19.91-26.51,20.13-10.67.11-21-4.29-23.32-13.53-1.43-5.61,2.2-11.55,7.81-10.89,4.95.66,7.26,5.39,4.84,10.34-2.64,5.61,4,8.14,10.78,8.14,5.39,0,12.1-3,12.1-8.25,0-6.16-9.79-8.8-19.91-12.1s-15.18-9.79-15.18-18.37c0-15.29,13.42-19.25,24.31-19.36,10.45-.11,20.35,3.41,22.22,11.33,1.32,5.5-2.31,11.55-7.92,10.78-4.84-.55-7.26-5.28-4.84-10.23,4.29-8.91-20.13-8-20.13,1.21,0,4,1.54,4.07,21.45,11.44C173.05,119.15,177.45,126.85,177.45,134.88Z"/></g></g></svg>