<?xml version="1.0" encoding="utf-8"?>
<!-- Generator: Adobe Illustrator 24.0.1, SVG Export Plug-In . SVG Version: 6.00 Build 0)  -->
<svg version="1.1" id="Layer_1" xmlns="http://www.w3.org/2000/svg" xmlns:xlink="http://www.w3.org/1999/xlink" x="0px" y="0px"
	 viewBox="0 0 51 121.5" style="enable-background:new 0 0 51 121.5;" xml:space="preserve">
<style type="text/css">
	.st0{fill:none;stroke:#FFFFFF;stroke-width:4;stroke-linecap:round;stroke-linejoin:round;}
</style>
<title>Layer 27 (2)</title>
<g id="Layer_2_1_">
	<g id="Layer_25">
		<g id="Layer_27">
			<path class="st0" d="M36,65.8v23l-14.9,15.9l0,0c0,5.1-2.5,9.8-6.7,12.6l-4.2,2.9v-15.5l6.7-11.9c1.5-2.6,2.3-5.6,2.3-8.7V18
				c0-9.3,7.6-16.8,16.8-16.8c0,0,0,0,0,0l0,0v43.3"/>
			<path class="st0" d="M31.8,35.7l18,38v7.9c0,0.6-0.5,1.1-1.1,1c-0.4,0-0.7-0.2-0.9-0.5l-4.9-9.5l-11-11"/>
			<path class="st0" d="M19,36.2L1.3,73.7v7.9c0,0.6,0.5,1.1,1.1,1c0.4,0,0.7-0.2,0.9-0.5l4.9-9.5L19,61.9"/>
			<line class="st0" x1="25" y1="5.3" x2="25" y2="16"/>
		</g>
	</g>
</g>
</svg>
