<svg xmlns="http://www.w3.org/2000/svg" viewBox="0 0 50.97 121.5"><defs><style>.cls-1{fill:none;stroke:#fff;stroke-linecap:round;stroke-linejoin:round;stroke-width:2.5px;}</style></defs><title>Layer 27 (2)</title><g id="Layer_2" data-name="Layer 2"><g id="Layer_25" data-name="Layer 25"><g id="Layer_27" data-name="Layer 27"><path class="cls-1" d="M36,65.81v23L21.08,104.74h0a15.33,15.33,0,0,1-6.66,12.64l-4.18,2.87V104.74l6.66-11.9a17.66,17.66,0,0,0,2.26-8.67V18A16.79,16.79,0,0,1,36,1.25h0V44.57"/><path class="cls-1" d="M31.75,35.68l18,38v7.93a1.07,1.07,0,0,1-2,.49l-4.9-9.48-11-11.05"/><path class="cls-1" d="M19,36.16,1.25,73.71v7.93a1.07,1.07,0,0,0,2,.49l4.91-9.48L19,61.88"/><line class="cls-1" x1="25.04" y1="5.28" x2="25.04" y2="15.97"/></g></g></g></svg>