<svg xmlns="http://www.w3.org/2000/svg" viewBox="0 0 264.34 309.36"><title>Asset 2</title><g id="Layer_2" data-name="Layer 2"><g id="Layer_1-2" data-name="Layer 1"><path d="M264.23,189.43a69.36,69.36,0,0,0-51.08-63.71,70,70,0,0,0,18.31-47.06V69.73A69.91,69.91,0,0,0,161.71,0H0V286.39l74.28.49a101.12,101.12,0,0,0,63.47,22.48h25.34a100.46,100.46,0,0,0,76.14-34.56v34.56h25.11V189.43ZM61.82,131.32a44.76,44.76,0,0,1,44.62-44.55h85.62V61.65H106.44a70,70,0,0,0-69.73,69.63l-.13,76.84a100.23,100.23,0,0,0,15.29,53.5l-26.79-.18V25.11h136.6A44.74,44.74,0,0,1,206.3,69.73v8.93a44.74,44.74,0,0,1-44.62,44.62H97v25.11h97.89a44.48,44.48,0,0,1,44.35,44.34v15.39a76.34,76.34,0,0,1-76.16,76.13H137.83a76.34,76.34,0,0,1-76.14-76.12Z"/></g></g></svg>