<svg xmlns="http://www.w3.org/2000/svg" viewBox="0 0 223.07 221.39"><defs><style>.cls-1{fill:#1e1b19;}.cls-2{fill:#f8f8f8;}.cls-3{fill:#e9a18b;}</style></defs><title>Asset 48</title><g id="Layer_2" data-name="Layer 2"><g id="Layer_30" data-name="Layer 30"><path class="cls-1" d="M70.83,57.32c12.5,0,25-.13,37.51.08,3.56.06,3.42-1.88,3.42-4.22,0-4.14-.17-4.42-3.55-4.42-15,0-29.92,0-44.88-.08-6.49,0-5.55.57-5.6-5.73,0-5.48.16-11,0-16.45-.34-9.63,4.9-15.62,13-19.47C80.35,2.4,90.85,1,101.48.31a120.15,120.15,0,0,1,37.15,2.94c8.72,2.18,16.81,5.68,22.19,13.44a17.84,17.84,0,0,1,3.44,10.42c0,17.25.06,34.49,0,51.73-.09,14.74-9.64,25.19-24.41,26.85a87.2,87.2,0,0,1-9.7.56c-16.63,0-33.27,0-49.9,0-17,0-28.62,10.39-30,27.26-.72,9-.52,18-.5,27,0,2.73-.85,3.54-3.54,3.43-6-.25-12.11.49-18-.43-11.68-1.83-18.23-10-22.56-20.26-3.24-7.68-4.37-15.82-5.18-24A93.86,93.86,0,0,1,3.53,84.13C6,75.58,10.24,68,17.69,62.84a29,29,0,0,1,17.12-5.46c12,.11,24,0,36,0Zm9.68-41.07c-6.08,0-10.63,4.27-10.23,10.36.38,5.93,4.17,9.74,10.34,9.78A10.16,10.16,0,0,0,90.73,26.22,10.05,10.05,0,0,0,80.51,16.25Z"/><path class="cls-2" d="M80.51,16.25a10.05,10.05,0,0,1,10.22,10A10.16,10.16,0,0,1,80.62,36.39c-6.17,0-10-3.85-10.34-9.78C69.88,20.52,74.43,16.26,80.51,16.25Z"/><path class="cls-3" d="M152.24,164.07c-12.5,0-25,.13-37.5-.09-3.57-.06-3.43,1.88-3.43,4.23,0,4.14.17,4.41,3.55,4.42,15,0,29.92,0,44.88.07,6.49,0,5.55-.57,5.6,5.73,0,5.49-.16,11,0,16.46.34,9.63-4.9,15.61-13,19.47-9.7,4.63-20.2,6-30.83,6.72a120.5,120.5,0,0,1-37.15-2.94c-8.72-2.19-16.81-5.68-22.19-13.44a18,18,0,0,1-3.44-10.43c0-17.24-.06-34.48,0-51.73.09-14.74,9.64-25.18,24.41-26.85a89.82,89.82,0,0,1,9.7-.55c16.64,0,33.27,0,49.91,0,16.95,0,28.61-10.38,30-27.25.73-9,.52-18,.5-27,0-2.73.85-3.54,3.54-3.43,6,.25,12.11-.49,18,.43,11.69,1.83,18.23,10,22.56,20.26,3.24,7.67,4.37,15.82,5.18,24a93.88,93.88,0,0,1-3.05,35.14c-2.42,8.55-6.71,16.08-14.16,21.29A28.92,28.92,0,0,1,188.26,164c-12-.1-24,0-36,0Zm-9.68,41.06c6.08,0,10.63-4.26,10.23-10.36-.38-5.92-4.17-9.74-10.34-9.77a10.16,10.16,0,0,0-10.11,10.16A10.06,10.06,0,0,0,142.56,205.13Z"/><path class="cls-2" d="M142.56,205.13a10.06,10.06,0,0,1-10.22-10A10.16,10.16,0,0,1,142.45,185c6.17,0,10,3.85,10.34,9.77C153.19,200.87,148.64,205.12,142.56,205.13Z"/></g></g></svg>