<svg xmlns="http://www.w3.org/2000/svg" viewBox="0 0 294.13 263.86"><defs><style>.cls-1{fill:none;}.cls-2{fill:#f8f8f8;}.cls-3{fill:#1e1b19;}.cls-4{fill:#e9a18b;}</style></defs><title>Asset 36</title><g id="Layer_2" data-name="Layer 2"><g id="Layer_9" data-name="Layer 9"><path class="cls-1" d="M208.81,221.7c1.47-8,1.23-18-.7-29.17-4.52.85-9.2,1.6-14,2.25-3.22.43-6.52.82-9.85,1.17-2.22,3.11-4.45,6.15-6.68,9.06-2.61,3.4-5.24,6.68-7.86,9.81,9,7.64,17.69,13.07,25.24,15.73a23.81,23.81,0,0,0,7.74,1.59,5.17,5.17,0,0,0,1.94-.25h0C205.31,231.48,207.5,228.73,208.81,221.7Z"/><path class="cls-1" d="M118.17,206.33c-2.62-3.29-5.22-6.7-7.78-10.19-3.86-.36-7.67-.79-11.36-1.27-4.26-.56-8.42-1.2-12.45-1.91-2.14,11.6-2.49,21.87-1,29.75,1.16,6.18,3.1,8.68,3.67,9a5.63,5.63,0,0,0,2.23.32,26.71,26.71,0,0,0,8.67-1.81c7.71-2.72,16.36-8,25.15-15.35Q121.7,210.77,118.17,206.33Z"/><path class="cls-1" d="M86.72,71.4c3.41-.63,6.9-1.22,10.44-1.74,4.25-.64,8.61-1.19,13-1.66,4.79-6.57,9.72-12.79,14.72-18.61C116.11,42.07,107.59,36.77,100,34a26.3,26.3,0,0,0-9-2,5.27,5.27,0,0,0-2,.27c-.61.47-2.47,3.09-3.54,9.32C84.16,49.52,84.57,59.82,86.72,71.4Z"/><path class="cls-1" d="M73.24,132c-3.31-7.46-6.25-14.85-8.8-22.11-11.31,4-20.55,8.85-26.72,14.13-4.77,4.09-6,7-6,7.69s1.31,4.06,6.74,8.71c6.2,5.31,15.1,10.16,25.84,14.1,1.21-3.44,2.51-6.93,3.89-10.43C69.76,140.06,71.45,136,73.24,132Z"/><path class="cls-1" d="M117.51,149.05c3.24,5.61,6.69,11.17,10.28,16.57,6.24.31,12.71.47,19.28.47s13.11-.18,19.51-.54c3.4-5.28,6.78-10.82,10.08-16.53s6.39-11.45,9.27-17.18c-2.87-5.59-6-11.29-9.3-17S170,103.67,166.48,98.36c-6.4-.39-12.91-.58-19.41-.58s-13,.2-19.4.59c-3.53,5.35-7,10.88-10.19,16.5l0,0c-3.22,5.57-6.29,11.3-9.17,17.07C111.16,137.71,114.25,143.43,117.51,149.05Zm29.56-41.84a24.49,24.49,0,1,1-24.48,24.49A24.49,24.49,0,0,1,147.07,107.21Z"/><path class="cls-1" d="M177.89,59.73c2.07,2.68,4.15,5.46,6.2,8.3,8.07.87,15.9,2,23.41,3.45,2-11.24,2.31-21.27,1-29.22-1.18-7-3.28-9.87-4-10.35a5.36,5.36,0,0,0-1.7-.2,25.41,25.41,0,0,0-8.16,1.78c-7.57,2.78-16.25,8.26-25.19,15.86Q173.69,54.32,177.89,59.73Z"/><path class="cls-1" d="M256.12,124c-6.19-5.16-15.26-9.95-26.31-13.89q-2.19,6.17-4.79,12.52c-1.23,3-2.54,6.06-3.91,9.12,1.58,3.46,3.09,6.9,4.49,10.27,1.68,4,3.22,8,4.64,11.87,10.45-3.87,19.09-8.5,25.2-13.53,5.5-4.53,6.91-7.78,7-8.61C262.31,131,261,128,256.12,124Z"/><circle class="cls-2" cx="147.07" cy="131.7" r="15.48" transform="translate(-39.2 66.31) rotate(-22.5)"/><path class="cls-3" d="M147.07,156.18a24.49,24.49,0,1,0-24.48-24.48A24.48,24.48,0,0,0,147.07,156.18Zm0-40a15.49,15.49,0,1,1-15.48,15.49A15.5,15.5,0,0,1,147.07,116.21Z"/><path class="cls-4" d="M284.13,131.69c0-8.27-4.88-16.7-14.1-24.4-8.47-7.06-20.45-13.38-34.64-18.27-2.84-1-5.79-1.9-8.81-2.78.49-2,.95-4,1.35-6,3.22-15.61,3.9-30,2-41.56-2.08-12.45-7.12-21.3-14.56-25.59A24.69,24.69,0,0,0,202.82,10a45.78,45.78,0,0,0-15.66,3.12c-10.35,3.8-21.81,11-33.13,20.87q-3.42,3-6.83,6.26-2.28-2.18-4.54-4.19c-11.92-10.58-24-18.35-35-22.45a47.81,47.81,0,0,0-16.56-3.36,25.42,25.42,0,0,0-12.88,3.19c-7.15,4.14-12,12.58-14,24.42C62.27,48.73,62.8,62.26,65.68,77c.58,3,1.26,6,2,9.07q-5.26,1.5-10.15,3.2c-14,4.86-25.7,11.16-33.95,18.22-8.9,7.62-13.61,16-13.61,24.2,0,8.45,4.95,17.16,14.33,25.19,8.81,7.55,21.19,14.18,35.8,19.17,2.38.81,4.85,1.59,7.41,2.32q-1.25,5-2.15,9.81c-2.76,14.52-3.16,27.84-1.17,38.51,2.15,11.52,7,19.78,14.16,23.88a25.85,25.85,0,0,0,13.08,3.21h0a48.14,48.14,0,0,0,15.9-3c11-3.86,22.88-11.27,34.49-21.43q2.85-2.49,5.73-5.28,3.71,3.57,7.4,6.75c11.21,9.64,22.55,16.64,32.79,20.25a45.57,45.57,0,0,0,14.95,2.83,25.23,25.23,0,0,0,12.81-3.18c7.31-4.23,12.37-12.88,14.62-25,2.12-11.42,1.65-25.46-1.34-40.6-.48-2.39-1-4.83-1.65-7.33q2.61-.77,5.1-1.59c15.12-5,27.91-11.61,37-19.07C279,149.06,284.13,140.28,284.13,131.69ZM161.71,42.83C172,33.9,182.17,27.43,191.2,24.11a34.41,34.41,0,0,1,11.61-2.4,13.27,13.27,0,0,1,6.67,1.52c4.25,2.45,7.39,8.62,8.86,17.38,1.7,10.17,1,23.06-1.88,37.27q-.54,2.67-1.22,5.43a280.68,280.68,0,0,0-36.66-5.79q-4.23-6-8.6-11.67c-4.84-6.25-9.71-12-14.57-17.25C157.51,46.58,159.62,44.65,161.71,42.83ZM97.16,132c3.55-7.42,7.46-14.83,11.66-22.11h0c4.22-7.33,8.67-14.4,13.27-21.15,8.2-.63,16.58-1,25-1s16.84.32,25,.94c4.54,6.69,9,13.75,13.22,21.1s8.27,14.81,11.82,22c-3.56,7.34-7.5,14.79-11.79,22.21s-8.69,14.55-13.11,21.2c-8.15.58-16.57.88-25.14.88s-16.86-.26-24.8-.77c-4.68-6.82-9.19-13.95-13.42-21.26h0C104.61,146.74,100.7,139.35,97.16,132ZM91,145.77q3.69,7.09,7.77,14.16h0q4.16,7.2,8.61,14.09A247,247,0,0,1,82.07,170C84.49,162.14,87.48,154,91,145.77Zm0-27.57c-3.4-8.06-6.32-16-8.71-23.7,7.83-1.75,16.17-3.18,24.84-4.26Q102.74,97,98.67,104T90.93,118.2Zm104.54,41.66q4.2-7.28,8-14.55a245.22,245.22,0,0,1,9.2,24.12,250.19,250.19,0,0,1-25.57,4.36Q191.33,167,195.47,159.86Zm7.84-41.65q-3.74-7.06-7.89-14.26-4.06-7-8.34-13.72c8.73,1.1,17.11,2.57,25,4.37C209.72,102.17,206.78,110.09,203.31,118.21ZM147.2,57c5.39,5.85,10.8,12.39,16.13,19.48-5.37-.25-10.8-.38-16.26-.38s-10.81.12-16.14.37C136.24,69.44,141.7,62.91,147.2,57ZM75.68,39.85c1.41-8.19,4.38-14,8.38-16.27a13.91,13.91,0,0,1,7-1.62,36.57,36.57,0,0,1,12.45,2.62c9.66,3.6,20.5,10.6,31.35,20.23,1.37,1.22,2.74,2.48,4.12,3.8A279.86,279.86,0,0,0,115.64,77.5c-5.75.54-11.43,1.22-17,2-6.83,1-13.37,2.23-19.58,3.64-.72-2.87-1.34-5.68-1.88-8.44C74.56,61.4,74.05,49.33,75.68,39.85Zm-5,127.24q-3.5-1-6.77-2.12c-13.21-4.52-24.27-10.39-32-17-6.6-5.65-10.23-11.43-10.23-16.29,0-4.62,3.38-10,9.51-15.3,7.16-6.12,17.6-11.68,30.19-16.07,3-1,6.17-2,9.44-3A280.78,280.78,0,0,0,84.21,132q-3.61,7.88-6.73,15.75Q73.57,157.67,70.68,167.09Zm63.46,53.4c-10.51,9.19-21.12,15.83-30.68,19.21a36.89,36.89,0,0,1-12,2.38,14.43,14.43,0,0,1-7.23-1.65c-4-2.31-7-8-8.5-15.89-1.73-9.25-1.33-21.07,1.16-34.18.56-3,1.23-6,2-9.12,6.69,1.48,13.85,2.72,21.43,3.71q7.53,1,15.5,1.63c3.3,4.65,6.69,9.17,10.16,13.52q6.66,8.37,13.39,15.58Q136.76,218.22,134.14,220.49Zm13.41-13.25c-5.55-6-11.1-12.64-16.5-19.75q7.86.31,16,.31c5.6,0,11.14-.12,16.59-.36A247.49,247.49,0,0,1,147.55,207.24Zm71.09,16.29c-1.59,8.54-4.78,14.58-9,17a13.77,13.77,0,0,1-6.95,1.6A34.1,34.1,0,0,1,191.65,240c-8.88-3.13-18.92-9.38-29-18.08q-3.42-2.94-6.88-6.28,6.93-7.58,13.91-16.69,4.57-6,9.07-12.5,7.17-.63,14.06-1.56c8.15-1.1,15.86-2.49,23.06-4.16q.84,3.39,1.48,6.64C220,201.05,220.49,213.56,218.64,223.53ZM261.79,148c-8,6.56-19.45,12.43-33.21,17q-2.25.75-4.61,1.44c-2.08-6.6-4.62-13.5-7.6-20.64q-2.88-6.93-6.27-14.07c2-4.35,3.91-8.67,5.66-13,3-7.33,5.57-14.44,7.68-21.27,2.8.81,5.51,1.66,8.14,2.57,12.86,4.42,23.56,10,30.95,16.19,6.38,5.32,9.89,10.79,9.89,15.4C272.42,136.59,268.64,142.4,261.79,148Z"/><path class="cls-3" d="M276.44,99.62C267,91.78,254,84.85,238.64,79.57l-.36-.13c3-15.73,3.49-30.34,1.47-42.41-2.59-15.5-9.31-26.77-19.42-32.6A34.52,34.52,0,0,0,202.82,0a55.62,55.62,0,0,0-19.11,3.73c-11.48,4.22-24,12.08-36.25,22.72l-.3.26C135,16.27,122.59,8.52,111.12,4.24a57.57,57.57,0,0,0-20.05-4A35.17,35.17,0,0,0,73.18,4.79c-9.8,5.67-16.34,16.52-18.89,31.37C52.21,48.22,52.76,63,55.87,78.92c0,.11,0,.22.07.33l-1.67.57C39.15,85.09,26.3,92,17.11,99.89,5.92,109.47,0,120.46,0,131.69c0,11.46,6.16,22.8,17.82,32.78,9.54,8.17,22.65,15.3,38,20.66-.08.4-.15.79-.23,1.18-3,15.74-3.39,30.34-1.17,42.22,2.7,14.48,9.27,25.09,19,30.7a35.64,35.64,0,0,0,18.07,4.55,58,58,0,0,0,19.23-3.61c11.85-4.18,24.58-12,36.88-22.58l.89.77c12.14,10.45,24.59,18.09,36,22.1a55.48,55.48,0,0,0,18.27,3.4,35.2,35.2,0,0,0,17.82-4.52c9.92-5.74,16.64-16.76,19.44-31.85,2.29-12.31,1.9-27.16-1.11-43,14.79-5.24,27.43-12,36.72-19.65,12.13-10,18.54-21.43,18.54-33.11C294.13,120.36,288,109.27,276.44,99.62Zm-44.18,76.53q-2.49.82-5.1,1.59c.63,2.5,1.17,4.94,1.65,7.33,3,15.14,3.46,29.18,1.34,40.6-2.25,12.13-7.31,20.78-14.62,25a25.23,25.23,0,0,1-12.81,3.18A45.57,45.57,0,0,1,187.77,251c-10.24-3.61-21.58-10.61-32.79-20.25q-3.69-3.18-7.4-6.75-2.88,2.79-5.73,5.28c-11.61,10.16-23.54,17.57-34.49,21.43a48.14,48.14,0,0,1-15.9,3h0a25.85,25.85,0,0,1-13.08-3.21c-7.11-4.1-12-12.36-14.16-23.88-2-10.67-1.59-24,1.17-38.51q.9-4.8,2.15-9.81c-2.56-.73-5-1.51-7.41-2.32-14.61-5-27-11.62-35.8-19.17C15,148.85,10,140.14,10,131.69c0-8.22,4.71-16.58,13.61-24.2,8.25-7.06,20-13.36,34-18.22q4.88-1.71,10.15-3.2C66.94,83,66.26,80,65.68,77c-2.88-14.74-3.41-28.27-1.54-39.14,2-11.84,6.9-20.28,14-24.42a25.42,25.42,0,0,1,12.88-3.19,47.81,47.81,0,0,1,16.56,3.36c11,4.1,23.11,11.87,35,22.45q2.26,2,4.54,4.19Q150.62,37,154,34c11.32-9.85,22.78-17.07,33.13-20.87A45.78,45.78,0,0,1,202.82,10a24.69,24.69,0,0,1,12.51,3.09c7.44,4.29,12.48,13.14,14.56,25.59,1.94,11.58,1.26,25.95-2,41.56-.4,2-.86,4-1.35,6,3,.88,6,1.81,8.81,2.78,14.19,4.89,26.17,11.21,34.64,18.27,9.22,7.7,14.1,16.13,14.1,24.4,0,8.59-5.15,17.37-14.89,25.39C260.17,164.54,247.38,171.14,232.26,176.15Z"/><path class="cls-3" d="M147.07,76.07c5.46,0,10.89.13,16.26.38C158,69.36,152.59,62.82,147.2,57c-5.5,5.94-11,12.47-16.27,19.47C136.26,76.19,141.65,76.07,147.07,76.07Z"/><path class="cls-3" d="M79.06,83.19c6.21-1.41,12.75-2.62,19.58-3.64,5.57-.83,11.25-1.51,17-2A279.86,279.86,0,0,1,139,48.61c-1.38-1.32-2.75-2.58-4.12-3.8C124,35.18,113.19,28.18,103.53,24.58A36.57,36.57,0,0,0,91.08,22a13.91,13.91,0,0,0-7,1.62c-4,2.31-7,8.08-8.38,16.27-1.63,9.48-1.12,21.55,1.5,34.9C77.72,77.51,78.34,80.32,79.06,83.19Zm10-51a5.27,5.27,0,0,1,2-.27,26.3,26.3,0,0,1,9,2c7.56,2.82,16.08,8.12,24.85,15.44-5,5.82-9.93,12-14.72,18.61-4.39.47-8.75,1-13,1.66-3.54.52-7,1.11-10.44,1.74-2.15-11.58-2.56-21.88-1.18-29.85C86.61,35.32,88.47,32.7,89.08,32.23Z"/><path class="cls-3" d="M262.53,116.29c-7.39-6.17-18.09-11.77-30.95-16.19-2.63-.91-5.34-1.76-8.14-2.57-2.11,6.83-4.67,13.94-7.68,21.27-1.75,4.29-3.65,8.61-5.66,13q3.38,7.13,6.27,14.07c3,7.14,5.52,14,7.6,20.64q2.35-.69,4.61-1.44c13.76-4.56,25.25-10.43,33.21-17,6.85-5.64,10.63-11.45,10.63-16.35C272.42,127.08,268.91,121.61,262.53,116.29Zm-7.09,24c-6.11,5-14.75,9.66-25.2,13.53-1.42-3.89-3-7.86-4.64-11.87-1.4-3.37-2.91-6.81-4.49-10.27,1.37-3.06,2.68-6.12,3.91-9.12q2.59-6.34,4.79-12.52c11.05,3.94,20.12,8.73,26.31,13.89,4.86,4.06,6.19,7,6.3,7.75C262.35,132.54,260.94,135.79,255.44,140.32Z"/><path class="cls-3" d="M84.21,132A280.78,280.78,0,0,1,70.85,97.36c-3.27.93-6.43,1.92-9.44,3-12.59,4.39-23,10-30.19,16.07-6.13,5.25-9.51,10.68-9.51,15.3,0,4.86,3.63,10.64,10.23,16.29,7.7,6.6,18.76,12.47,32,17q3.27,1.11,6.77,2.12,2.88-9.41,6.8-19.37Q80.58,139.86,84.21,132Zm-45.76,8.42c-5.43-4.65-6.72-7.93-6.74-8.71s1.24-3.6,6-7.69c6.17-5.28,15.41-10.16,26.72-14.13,2.55,7.26,5.49,14.65,8.8,22.11-1.79,4-3.48,8.09-5.06,12.09-1.38,3.5-2.68,7-3.89,10.43C53.55,150.55,44.65,145.7,38.45,140.39Z"/><path class="cls-3" d="M215.84,180.71c-7.2,1.67-14.91,3.06-23.06,4.16q-6.89.93-14.06,1.56-4.49,6.51-9.07,12.5-7,9.09-13.91,16.69,3.47,3.33,6.88,6.28c10.11,8.7,20.15,14.95,29,18.08a34.1,34.1,0,0,0,11.06,2.16,13.77,13.77,0,0,0,6.95-1.6c4.2-2.43,7.39-8.47,9-17,1.85-10,1.39-22.48-1.32-36.18Q216.68,184.1,215.84,180.71Zm-11.19,51.18a5.17,5.17,0,0,1-1.94.25,23.81,23.81,0,0,1-7.74-1.59c-7.55-2.66-16.27-8.09-25.24-15.73,2.62-3.13,5.25-6.41,7.86-9.81,2.23-2.91,4.46-5.95,6.68-9.06,3.33-.35,6.63-.74,9.85-1.17,4.79-.65,9.47-1.4,14-2.25,1.93,11.17,2.17,21.2.7,29.17-1.31,7-3.5,9.78-4.16,10.19Z"/><path class="cls-3" d="M147.07,187.8q-8.16,0-16-.31c5.4,7.11,10.95,13.75,16.5,19.75a247.49,247.49,0,0,0,16.11-19.8C158.21,187.68,152.67,187.8,147.07,187.8Z"/><path class="cls-3" d="M115.83,186.58q-8-.65-15.5-1.63c-7.58-1-14.74-2.23-21.43-3.71-.78,3.11-1.45,6.16-2,9.12-2.49,13.11-2.89,24.93-1.16,34.18,1.48,7.94,4.5,13.58,8.5,15.89a14.43,14.43,0,0,0,7.23,1.65,36.89,36.89,0,0,0,12-2.38c9.56-3.38,20.17-10,30.68-19.21q2.61-2.28,5.24-4.81-6.72-7.2-13.39-15.58C122.52,195.75,119.13,191.23,115.83,186.58Zm-24.37,45.5a5.63,5.63,0,0,1-2.23-.32c-.57-.37-2.51-2.87-3.67-9-1.47-7.88-1.12-18.15,1-29.75,4,.71,8.19,1.35,12.45,1.91,3.69.48,7.5.91,11.36,1.27,2.56,3.49,5.16,6.9,7.78,10.19q3.52,4.42,7.11,8.59c-8.79,7.34-17.44,12.63-25.15,15.35A26.71,26.71,0,0,1,91.46,232.08Z"/><path class="cls-3" d="M122.27,175.32q11.91.77,24.8.77c8.57,0,17-.3,25.14-.88,4.42-6.65,8.81-13.73,13.11-21.2s8.23-14.87,11.79-22.21q-5.33-10.76-11.82-22c-4.26-7.35-8.68-14.41-13.22-21.1-8.16-.62-16.53-.94-25-.94s-16.78.32-25,1c-4.6,6.75-9,13.82-13.27,21.15h0c-4.2,7.28-8.11,14.69-11.66,22.11,3.54,7.36,7.45,14.75,11.69,22.07h0C113.08,161.37,117.59,168.5,122.27,175.32Zm-4.79-60.45c3.24-5.62,6.66-11.15,10.19-16.5,6.44-.39,13-.59,19.4-.59s13,.19,19.41.58c3.49,5.31,6.89,10.83,10.15,16.47s6.43,11.42,9.3,17c-2.88,5.73-6,11.49-9.27,17.18s-6.68,11.25-10.08,16.53c-6.4.36-12.94.54-19.51.54s-13-.16-19.28-.47c-3.59-5.4-7-11-10.28-16.57s-6.35-11.34-9.22-17.07c2.88-5.77,5.95-11.5,9.17-17.07Z"/><path class="cls-3" d="M107.33,174q-4.44-6.89-8.61-14.09h0q-4.08-7.05-7.77-14.16C87.48,154,84.49,162.14,82.07,170A247,247,0,0,0,107.33,174Z"/><path class="cls-3" d="M178.58,77.52a280.68,280.68,0,0,1,36.66,5.79q.67-2.76,1.22-5.43c2.93-14.21,3.58-27.1,1.88-37.27-1.47-8.76-4.61-14.93-8.86-17.38a13.27,13.27,0,0,0-6.67-1.52,34.41,34.41,0,0,0-11.61,2.4c-9,3.32-19.23,9.79-29.49,18.72-2.09,1.82-4.2,3.75-6.3,5.77,4.86,5.23,9.73,11,14.57,17.25Q174.34,71.49,178.58,77.52Zm24.23-45.81a5.36,5.36,0,0,1,1.7.2c.69.48,2.79,3.32,4,10.35,1.33,8,1,18-1,29.22C200,70.05,192.16,68.9,184.09,68c-2.05-2.84-4.13-5.62-6.2-8.3q-4.19-5.4-8.43-10.38c8.94-7.6,17.62-13.08,25.19-15.86A25.41,25.41,0,0,1,202.81,31.71Z"/><path class="cls-3" d="M187.08,90.23q4.28,6.67,8.34,13.72t7.89,14.26c3.47-8.12,6.41-16,8.78-23.61C204.19,92.8,195.81,91.33,187.08,90.23Z"/><path class="cls-3" d="M107.06,90.24c-8.67,1.08-17,2.51-24.84,4.26,2.39,7.69,5.31,15.64,8.71,23.7q3.67-7.12,7.74-14.17T107.06,90.24Z"/><path class="cls-3" d="M203.44,145.31q-3.78,7.26-8,14.55t-8.4,13.93a250.19,250.19,0,0,0,25.57-4.36A245.22,245.22,0,0,0,203.44,145.31Z"/></g></g></svg>