<svg xmlns="http://www.w3.org/2000/svg" viewBox="0 0 181.24 208.66"><defs><style>.cls-1{fill:#e9a18b;}.cls-2{fill:#1e1b19;}.cls-3{fill:#f8f8f8;}</style></defs><title>Asset 35</title><g id="Layer_2" data-name="Layer 2"><g id="Layer_10" data-name="Layer 10"><path class="cls-1" d="M104.28,132.39s-.43.41-.24.52.78-.06,1.37-.36h0c1.68-1.06,5.41-3.65,5.41-7.54v-.32c-.87,1.14-1.68,2.14-2.35,3C107.28,129.18,104.28,132.39,104.28,132.39Z"/><path class="cls-1" d="M123.89,128.34c2.11-.76,5.57-2.57,5.59-7.43a6.56,6.56,0,0,0-.41-2.32,16.79,16.79,0,0,0-4.1,5.29C123.51,127,123.46,128,123.89,128.34Z"/><path class="cls-1" d="M75.4,132.66c1.76.5,4.68-8.18,6-11.56h0c.87-2.11,4.24-11.51,3.54-12.81-.59-1-3-.18-5.16,2.25a30,30,0,0,0-4.72,8.67C73,125.69,73.89,132.26,75.4,132.66Z"/><path class="cls-1" d="M11.06,58.63V150.5l79.56,45.93,79.55-45.93V58.63L90.62,12.71Zm101.62,4.12c3,12-7.35,26.29-20.67,31.45-11.89,4.59-21.72,3.86-25.74,2.54-4.6-1.52-7.3-4.54-7.95-6.24-.27-.68-.7-1.81,0-2.19.43-.24.6-.19,1.76,1.08S65.59,93.85,74,92.9c22-2.46,35.23-19.53,31-28.72-2.94-6.44-19.88-9.33-41,1.21C38.14,78.24,36.74,88.86,36.52,92.89,35.93,104,50.23,109.8,57.94,118l.3.32c1.46-.77,3-1.65,4.48-2.46l9.3-5.06c2.73-4,8.24-8.32,12.23-8.32,6.38,0,4.19,9.16,4.19,9.16s.14-.43.3-.43a2.46,2.46,0,0,1,2.84-.48c2,.73,1.56,2.16,1.56,2.29,0,.3-2.4,8.43-3.4,13.65-.46,2.48-.19,4.29,0,4.29s.58-.65,1-1.32v0s.28-.51.76-1.43c0-.11-.49.89.08-.19s1.35-2.68,2.24-4.67c1.76-3.92,8.48-18.94,9.08-20.62s.89-3.4,1.16-4.13,2.67-1.29,5.46-1.27,3.08,1.18,3.08,1.45a44.28,44.28,0,0,0-1.65,5.89,17.9,17.9,0,0,0,.24,5.45,16.79,16.79,0,0,0,1.93,4.76c2.89-4.73,8-13.73,8.45-16.26a31,31,0,0,1,1.17-4.14c.27-.73,2.67-1.29,5.45-1.27s3.08,1.19,3.08,1.46a43.2,43.2,0,0,0-1.64,5.89,18,18,0,0,0,.24,5.46c.21,1.67,1.51,3.91,2.8,6.48a28.6,28.6,0,0,1,12.55-2.92h0c12.51-.07,19.56,8,19.24,15.46-.22,5.78-5.54,8.18-6.54,8.35-.73.11-1.1.13-1.21-.44-.08-.37.19-.54,1-1.08a8,8,0,0,0,3.81-5.4c.46-3.13-1.92-10.65-13.94-12.06a26.43,26.43,0,0,0-13.4,1.54,16.57,16.57,0,0,1,1.16,5.05c.14,3.76-2.46,6.54-5.16,8.54a16.57,16.57,0,0,1-4.67,2.41,7.24,7.24,0,0,1-3.7.76c-2.35-.49-3.6-2.58-2-7.16.86-2.49,3.37-6.27,7.37-9.54a38.62,38.62,0,0,1-2.45-5.56,48.5,48.5,0,0,1-1.33-5.57A115.73,115.73,0,0,1,115.77,118c-.24.37-.49.72-.73,1.08a17.19,17.19,0,0,1,1.6,6.07,9.76,9.76,0,0,1-4.19,8.62,17.68,17.68,0,0,1-4.39,2.3,15.28,15.28,0,0,1-5.08,1.16,5.38,5.38,0,0,1-3.4-.54c-1-.76-1.11-1.7-.59-3,.44-1.08,3.72-4.85,6.47-8.13.76-.92,1.49-1.84,2.14-2.7l0,0s.49-.65,1.3-1.79a51.68,51.68,0,0,1-2.9-6.48,48.79,48.79,0,0,1-1.32-5.56s-3.35,8.59-6.84,15.45c-2.7,5.32-4.51,8.54-5.32,9.94v.06c-.1.17-.21.32-.32.51l-.16.27v0c-.92,1.36-3,4-5,4-5.54,0-3.52-11.26-3.52-11.26s-1.62,4.16-3.45,7.75c-1.49,2.95-2.84,5.41-5.81,5.41A4.57,4.57,0,0,1,70.94,140c-2.57-2.44-4.52-8.59-4.14-13.35a34.17,34.17,0,0,1,1.81-9.19c-1.54.84-3.29,1.82-5.08,2.87L60.78,122l.08.16c2.29,4.4,2.92,14-2.08,21.47S44.54,155.54,35.52,153c-2.92-.81-7.29-6.84-3.51-15.21,3.35-7.4,16.72-14.4,20.23-16.13.29-.16.61-.35,1-.54-7-6.13-24.56-14.43-27-27.15-.7-3.57,1-12.16,11.51-22,8.87-8.29,21.19-14.61,32.56-18.67C89.36,46.57,109.57,50.57,112.68,62.75Z"/><path class="cls-1" d="M43.8,132.92c-4.89,4.62-5.89,11-3.33,12.51,2.38,1.42,8-.24,11.94-4.58h0a17.25,17.25,0,0,0,4.1-16.94l-.62.38-.27.16-2.46,1.49A63,63,0,0,0,43.8,132.92Z"/><path class="cls-2" d="M180.24,51.43l-7.07-4.08-67-38.68L91.62.27a2,2,0,0,0-1-.27,2,2,0,0,0-1,.27L75.07,8.67l-67,38.69L1,51.43a2,2,0,0,0-1,1.74V155.5a2,2,0,0,0,1,1.73l7.06,4.08,67.85,39.17,13.71,7.91a2,2,0,0,0,1,.27,2,2,0,0,0,1-.27l13.71-7.91,67.84-39.17,7.07-4.08a2,2,0,0,0,1-1.73V53.17A2,2,0,0,0,180.24,51.43ZM170.17,150.5,90.62,196.43,11.06,150.5V58.63L90.62,12.71l79.55,45.92Z"/><path class="cls-3" d="M70.26,53.34C58.89,57.4,46.57,63.72,37.7,72,27.16,81.84,25.49,90.43,26.19,94c2.46,12.72,20,21,27,27.15-.36.19-.68.38-1,.54-3.51,1.73-16.88,8.73-20.23,16.13-3.78,8.37.59,14.4,3.51,15.21,9,2.51,18.26-2,23.26-9.43s4.37-17.07,2.08-21.47l-.08-.16,2.75-1.62c1.79-1,3.54-2,5.08-2.87a34.17,34.17,0,0,0-1.81,9.19c-.38,4.76,1.57,10.91,4.14,13.35a4.57,4.57,0,0,0,3.32,1.08c3,0,4.32-2.46,5.81-5.41,1.83-3.59,3.45-7.75,3.45-7.75S81.5,139.2,87,139.2c2,0,4-2.61,5-4v0l.16-.27c.11-.19.22-.34.32-.51v-.06c.81-1.4,2.62-4.62,5.32-9.94,3.49-6.86,6.84-15.45,6.84-15.45a48.79,48.79,0,0,0,1.32,5.56,51.68,51.68,0,0,0,2.9,6.48c-.81,1.14-1.3,1.79-1.3,1.79l0,0c-.65.86-1.38,1.78-2.14,2.7-2.75,3.28-6,7-6.47,8.13-.52,1.27-.41,2.21.59,3a5.38,5.38,0,0,0,3.4.54,15.28,15.28,0,0,0,5.08-1.16,17.68,17.68,0,0,0,4.39-2.3,9.76,9.76,0,0,0,4.19-8.62,17.19,17.19,0,0,0-1.6-6.07c.24-.36.49-.71.73-1.08a115.73,115.73,0,0,0,7.56-13.11,48.5,48.5,0,0,0,1.33,5.57,38.62,38.62,0,0,0,2.45,5.56c-4,3.27-6.51,7-7.37,9.54-1.6,4.58-.35,6.67,2,7.16a7.24,7.24,0,0,0,3.7-.76,16.57,16.57,0,0,0,4.67-2.41c2.7-2,5.3-4.78,5.16-8.54a16.57,16.57,0,0,0-1.16-5.05,26.43,26.43,0,0,1,13.4-1.54c12,1.41,14.4,8.93,13.94,12.06a8,8,0,0,1-3.81,5.4c-.84.54-1.11.71-1,1.08.11.57.48.55,1.21.44,1-.17,6.32-2.57,6.54-8.35.32-7.43-6.73-15.53-19.24-15.46h0a28.6,28.6,0,0,0-12.55,2.92c-1.29-2.57-2.59-4.81-2.8-6.48a18,18,0,0,1-.24-5.46,43.2,43.2,0,0,1,1.64-5.89c0-.27-.29-1.43-3.08-1.46s-5.18.54-5.45,1.27a31,31,0,0,0-1.17,4.14c-.48,2.53-5.56,11.53-8.45,16.26a16.79,16.79,0,0,1-1.93-4.76,17.9,17.9,0,0,1-.24-5.45,44.28,44.28,0,0,1,1.65-5.89c0-.27-.3-1.43-3.08-1.45s-5.19.54-5.46,1.27-.57,2.46-1.16,4.13-7.32,16.7-9.08,20.62c-.89,2-1.67,3.59-2.24,4.67s0,.08-.08.19c-.48.92-.76,1.43-.76,1.43v0c-.38.67-.78,1.32-1,1.32s-.41-1.81,0-4.29c1-5.22,3.43-13.35,3.4-13.65,0-.13.46-1.56-1.56-2.29a2.46,2.46,0,0,0-2.84.48c-.16,0-.3.43-.3.43s2.19-9.16-4.19-9.16c-4,0-9.5,4.34-12.23,8.32l-9.3,5.06c-1.48.81-3,1.69-4.48,2.46l-.3-.32c-7.71-8.24-22-14.08-21.42-25.15.22-4,1.62-14.65,27.45-27.5,21.15-10.54,38.09-7.65,41-1.21,4.19,9.19-9,26.26-31,28.72-8.37.95-12.78-2.29-13.88-3.51s-1.33-1.32-1.76-1.08c-.7.38-.27,1.51,0,2.19.65,1.7,3.35,4.72,7.95,6.24,4,1.32,13.85,2.05,25.74-2.54,13.32-5.16,23.72-19.48,20.67-31.45C109.57,50.57,89.36,46.57,70.26,53.34Zm58.81,65.25a6.56,6.56,0,0,1,.41,2.32c0,4.86-3.48,6.67-5.59,7.43-.43-.32-.38-1.32,1.08-4.46A16.79,16.79,0,0,1,129.07,118.59Zm-18.25,6.1V125c0,3.89-3.73,6.48-5.41,7.54h0c-.59.3-1.13.52-1.37.36s.24-.52.24-.52,3-3.21,4.19-4.7C109.14,126.83,110,125.83,110.82,124.69Zm-35.71-5.48a30,30,0,0,1,4.72-8.67c2.19-2.43,4.57-3.24,5.16-2.25.7,1.3-2.67,10.7-3.54,12.81h0c-1.37,3.38-4.29,12.06-6,11.56C73.89,132.26,73,125.69,75.11,119.21ZM55.9,124.28l.62-.38a17.25,17.25,0,0,1-4.1,16.94h0c-4,4.34-9.56,6-11.94,4.58-2.56-1.48-1.56-7.89,3.33-12.51a63,63,0,0,1,9.37-7l2.46-1.49Z"/></g></g></svg>