<svg xmlns="http://www.w3.org/2000/svg" viewBox="0 0 228.97 231.19"><defs><style>.cls-1{fill:#e9a18b;}.cls-2{fill:#f8f8f8;}.cls-3{fill:#1e1b19;}</style></defs><title>Asset 41</title><g id="Layer_2" data-name="Layer 2"><g id="Layer_14" data-name="Layer 14"><polygon class="cls-1" points="61.52 218.94 93.32 188.36 50.96 176.19 61.52 218.94"/><polygon class="cls-1" points="144.27 139.34 175.58 109.22 133.88 97.25 144.27 139.34"/><polygon class="cls-2" points="71.1 83.47 39.82 113.59 81.49 125.59 71.1 83.47"/><polygon class="cls-2" points="65.27 77.45 23.62 65.49 34 107.54 65.27 77.45"/><polygon class="cls-2" points="94.54 129.36 136.13 141.34 125.75 99.27 94.54 129.36"/><polygon class="cls-2" points="51.53 22.16 9.96 10.19 20.34 52.23 51.53 22.16"/><polygon class="cls-1" points="185.49 99.69 216.66 69.71 175.14 57.75 185.49 99.69"/><polygon class="cls-2" points="161.1 53.71 120.23 41.94 130.44 83.27 161.1 53.71"/><polygon class="cls-2" points="120.06 93.11 79.22 81.38 89.4 122.66 120.06 93.11"/><polygon class="cls-2" points="78.3 133.4 37.49 121.64 47.68 162.92 78.3 133.4"/><polygon class="cls-2" points="136.34 89.24 177.16 100.95 166.98 59.69 136.34 89.24"/><polygon class="cls-2" points="54.11 168.38 94.93 180.09 84.75 138.84 54.11 168.38"/><polygon class="cls-2" points="26.78 57.67 67.6 69.39 57.42 28.13 26.78 57.67"/><polygon class="cls-2" points="106.31 37.93 65.58 26.21 75.74 67.37 106.31 37.93"/><polygon class="cls-1" points="103.25 178.8 133.81 149.4 93.1 137.67 103.25 178.8"/><polygon class="cls-2" points="81.62 73.35 122.22 85 112.11 44 81.62 73.35"/><path class="cls-3" d="M228.82,66.59a4.58,4.58,0,0,0-3.62-3.17L168.76,47.19,59.23,15.66,9.71,1.39C8.58,1.06,7.45.75,6.28.43L4.84,0,4.62,0H4.51A4.5,4.5,0,0,0,.87,1.62,4.45,4.45,0,0,0,.15,5.49C.52,7,.91,8.59,1.3,10.13L53.37,220.94c.55,2.26,1.1,4.52,1.68,6.78A4.42,4.42,0,0,0,58,231a4.14,4.14,0,0,0,1.11.16,4.8,4.8,0,0,0,3.18-1.33l.83-.79,94-90.44q35-33.69,70.07-67.39A4.56,4.56,0,0,0,228.82,66.59ZM185.49,99.7,175.14,57.75l41.52,12Zm-41.22,39.64L133.89,97.25l41.69,12Zm-41,39.46L93.1,137.67l40.71,11.73ZM61.52,218.94,51,176.19l42.36,12.17Zm-10-196.78L20.34,52.23,10,10.19Zm54.78,15.77L75.74,67.37,65.58,26.21Zm54.8,15.78L130.44,83.27,120.23,41.94Zm-90,29.76,10.39,42.12-41.67-12Zm49,9.64L89.4,122.66,79.22,81.38ZM81.62,73.35,112.11,44l10.11,41ZM26.78,57.67,57.42,28.13,67.6,69.39ZM65.27,77.45,34,107.54,23.62,65.49Zm13,56L47.68,162.92,37.49,121.64Zm-24.19,35,30.64-29.55,10.18,41.26Zm40.43-39,31.21-30.09,10.38,42.07Zm41.79-40.12L167,59.69,177.16,101Z"/></g></g></svg>