<svg xmlns="http://www.w3.org/2000/svg" viewBox="0 0 219.93 219.93"><defs><style>.cls-1{fill:#e9a18b;}.cls-2{fill:#f8f8f8;}.cls-3{fill:#1e1b19;}</style></defs><title>Asset 28</title><g id="Layer_2" data-name="Layer 2"><g id="Layer_23" data-name="Layer 23"><rect class="cls-1" x="13.12" y="12.78" width="193.7" height="193.7"/><path class="cls-2" d="M39.58,105.23c-.77,7.92-1.87,22.11-2.75,30.25h2.75C43,123.05,50.58,113,64.33,113h2.75v66.44a11,11,0,0,1-11,11v2.75h44v-2.75a11,11,0,0,1-11-11V113h2.75c13.75,0,21.34,10,24.75,22.44h2.75c-.88-8.14-2-22.33-2.75-30.25Z"/><path class="cls-2" d="M173,144.28c-15.51-6.71-30.47-9.13-30.47-20.68,0-8.14,4.84-12.21,12.43-12.21,14.85,0,25.63,22.55,26.4,24.2h3.19V104.46h-2.2c-.77.77-2.09,2.2-3.85,4.29-11.66-3.3-16.06-5.17-26-5.17-16.94,0-29.37,11.77-29.37,27.72,0,28.82,50.49,24.31,50.49,43.34,0,6.71-4.51,12.54-13.2,12.54-10.56,0-20.24-2.09-29-24.31h-2.75v30c.33,0,12.21-1.43,15.07-2.09a48.86,48.86,0,0,0,18.15,4c18.92,0,32.89-12.21,32.89-27.83C194.79,153.08,184.23,149.12,173,144.28Z"/><path class="cls-3" d="M194.18,17a8.76,8.76,0,0,1,8.75,8.75V194.18a8.75,8.75,0,0,1-8.75,8.75H25.75A8.76,8.76,0,0,1,17,194.18V25.75A8.77,8.77,0,0,1,25.75,17H194.18m0-17H25.75A25.75,25.75,0,0,0,0,25.75V194.18a25.75,25.75,0,0,0,25.75,25.75H194.18a25.75,25.75,0,0,0,25.75-25.75V25.75A25.75,25.75,0,0,0,194.18,0Z"/></g></g></svg>