<svg xmlns="http://www.w3.org/2000/svg" viewBox="0 0 263.27 243.57"><defs><style>.cls-1{fill:#f8f8f8;}.cls-2{fill:#e9a18b;}.cls-3{fill:#1e1b19;}</style></defs><title>aboutme-icon</title><g id="Layer_2" data-name="Layer 2"><g id="Layer_4" data-name="Layer 4"><path class="cls-1" d="M120.21,130.3a41.35,41.35,0,0,0,41.42-41.39,42.59,42.59,0,0,0-.46-6.23,41.72,41.72,0,0,0-41-35.16H120A41.39,41.39,0,0,0,90.5,60,40.56,40.56,0,0,0,78.58,89,41.66,41.66,0,0,0,120,130.3Zm15.87-61.64h0c5.15,0,9.35,3.49,9.35,7.77a3.55,3.55,0,0,1-.67,2.25,2.43,2.43,0,0,1-2,.92,4.81,4.81,0,0,1-2.69-1,7,7,0,0,0-8.07,0,4.78,4.78,0,0,1-2.68,1,2.41,2.41,0,0,1-2-.92,3.55,3.55,0,0,1-.67-2.25C126.73,72.15,130.93,68.66,136.08,68.66Zm-41.21,10a3.55,3.55,0,0,1-.67-2.25c0-4.28,4.2-7.77,9.35-7.77h0c5.15,0,9.35,3.49,9.35,7.77a3.55,3.55,0,0,1-.67,2.25,2.41,2.41,0,0,1-2,.92,4.78,4.78,0,0,1-2.68-1,7,7,0,0,0-8.07,0,4.81,4.81,0,0,1-2.69,1A2.43,2.43,0,0,1,94.87,78.68Zm.81,22.8a4.35,4.35,0,0,1,4-6.18,4.38,4.38,0,0,1,4,2.53c.21.47,5.47,11.43,16.48,11.43,10.09,0,15.93-11.42,16-11.53a4.37,4.37,0,0,1,7.83,3.87c-.34.67-8.29,16.39-23.81,16.39C103.43,118,96,102.15,95.68,101.48Z"/><path class="cls-2" d="M197.7,159.5l.14-.27a12.82,12.82,0,0,1,2-3,13.06,13.06,0,0,1,2-1.75,12.68,12.68,0,0,1,7.47-2.4,12.81,12.81,0,0,1,3.41.45,13.1,13.1,0,0,1,2.35.9,13,13,0,0,1,1.44.85,12.79,12.79,0,0,1,4,4.36h0q1-2.7,1.9-5.46c.59-1.83,1.13-3.7,1.62-5.58.33-1.25.64-2.51.92-3.78.71-3.17,1.29-6.39,1.72-9.64s.72-6.53.86-9.84C228.78,94,217.57,61.81,189.56,38Q187.79,36.45,186,35c-.12-.1-.24-.2-.37-.29-1.15-.9-2.32-1.76-3.5-2.6l-.53-.38c-1.16-.82-2.34-1.61-3.52-2.37l-.58-.37c-1.19-.76-2.39-1.5-3.61-2.2l-.51-.3c-1.25-.72-2.51-1.42-3.78-2.08l-.32-.16c-2.67-1.39-5.38-2.65-8.13-3.8l-.34-.14c-1.32-.54-2.64-1.05-4-1.54l-.52-.19c-1.3-.47-2.62-.91-3.94-1.33l-.56-.18c-1.32-.41-2.66-.8-4-1.15l-.49-.13c-1.38-.36-2.75-.7-4.14-1l-.26-.05q-4.31-.94-8.66-1.51l-.41-.06c-1.37-.18-2.74-.32-4.11-.45l-.59-.05c-1.35-.11-2.69-.2-4-.26l-.66,0c-1.34-.05-2.69-.08-4-.08h-1l-1.49,0-1.18,0-1.44.06-1.21.06-1.4.09-1.24.09-1.37.13-1.26.12-1.35.16-1.26.15-1.34.19-1.27.18-1.33.23-1.26.21-1.37.27-1.87.38L96,15.1l-1.31.32-1.24.31-1.33.35-1.21.34-1.33.39-1.19.36L87,17.59l-1.19.4c-.44.14-.88.3-1.32.45l-1.18.43-1.3.48-1.18.46-1.28.52-1.18.49-1.27.54L76,21.89l-1.25.57L73.52,23l-1.22.59-1.2.62-1.18.61-1.31.71-1.68,1c-.54.31-1.09.62-1.62.94-.35.2-.69.42-1,.63L63,28.86l-1.06.69c-.41.26-.82.52-1.22.79l-1,.72c-.4.27-.81.55-1.2.83l-1,.74-1.19.87-1,.77-1.17.9-1,.79-1.16.95-1,.81-1.17,1-.93.82L47.64,40.6l-.88.82-1.22,1.16-.81.78-1.32,1.33-.66.67q-1,1-2,2.07A108.72,108.72,0,0,0,22.43,74.66q-1,2.19-1.95,4.4a105.94,105.94,0,0,0-7.83,33.63c-.15,2.24-.22,4.48-.23,6.7,0,1.48,0,3,.07,4.43,0,.74.07,1.48.11,2.21.17,2.93.45,5.84.85,8.71q.45,3.22,1.08,6.39c.28,1.41.58,2.8.92,4.19a105.44,105.44,0,0,0,6,17.85c.55,1.25,1.12,2.49,1.72,3.71.3.61.6,1.21.91,1.81q.93,1.8,1.92,3.54a93.22,93.22,0,0,0,5.32,8.3c9.89-25.16,27.57-43.47,52.59-54.47a52.18,52.18,0,0,1-13.47-22.22,51.36,51.36,0,0,1-.58-27.68,50.63,50.63,0,0,1,13.78-24c.62-.61,1.24-1.19,1.88-1.76l.64-.55c.43-.37.86-.74,1.3-1.09l.78-.61c.4-.32.8-.63,1.21-.93s.57-.4.86-.61l1.19-.82.9-.58,1.19-.74.94-.54,1.21-.67,1-.5c.4-.21.81-.41,1.22-.6l1-.46c.42-.19.83-.37,1.25-.54l1-.41,1.27-.48,1-.35c.43-.15.86-.29,1.3-.42l1-.31c.45-.13.89-.25,1.34-.36l1-.26,1.41-.3.93-.2c.51-.1,1-.18,1.53-.26l.83-.14c.66-.09,1.32-.17,2-.24l.37,0c.8-.08,1.59-.13,2.39-.17l.69,0c.56,0,1.12,0,1.69,0H120c.48,0,1,0,1.42,0l.66,0c.74,0,1.49.07,2.23.13l.37,0c.62.06,1.24.12,1.85.2l.78.12c.48.06,1,.13,1.43.22l.89.16,1.32.27.93.21c.42.1.85.2,1.27.32l.94.26c.41.11.83.23,1.24.36l.94.31c.41.13.82.27,1.22.42l.95.35,1.19.47.94.39,1.18.53.92.44c.4.19.79.39,1.18.59l.9.47c.4.21.79.44,1.18.66l.86.5c.41.24.81.5,1.21.75l.8.5c.44.29.88.6,1.32.91.21.15.43.29.64.45.65.46,1.29.95,1.93,1.45A49,49,0,0,1,171,78.83c3.33,17.85-1.58,33.74-14.62,47.26a100.54,100.54,0,0,1,28.37,18.43c1.61,1.51,3.16,3.06,4.66,4.67s2.94,3.28,4.33,5c.69.86,1.37,1.73,2,2.61s1.32,1.79,1.95,2.7Z"/><path class="cls-1" d="M119.85,37.14l1.55,0c-.47,0-.94,0-1.42,0Z"/><path class="cls-2" d="M143.9,101.6a4.37,4.37,0,0,0-7.83-3.87c0,.11-5.89,11.53-16,11.53-11,0-16.27-11-16.48-11.43a4.38,4.38,0,0,0-4-2.53,4.37,4.37,0,0,0-4,6.18c.31.67,7.75,16.51,24.41,16.51C135.61,118,143.56,102.27,143.9,101.6Z"/><path class="cls-2" d="M99.52,78.6a7,7,0,0,1,8.07,0,4.78,4.78,0,0,0,2.68,1,2.41,2.41,0,0,0,2-.92,3.55,3.55,0,0,0,.67-2.25c0-4.28-4.2-7.77-9.35-7.77h0c-5.15,0-9.34,3.49-9.35,7.77a3.55,3.55,0,0,0,.67,2.25,2.43,2.43,0,0,0,2,.92A4.81,4.81,0,0,0,99.52,78.6Z"/><path class="cls-2" d="M129.36,79.6a4.78,4.78,0,0,0,2.68-1,7,7,0,0,1,8.07,0,4.81,4.81,0,0,0,2.69,1,2.43,2.43,0,0,0,2-.92,3.55,3.55,0,0,0,.67-2.25c0-4.28-4.2-7.77-9.35-7.77h0c-5.15,0-9.35,3.49-9.35,7.77a3.55,3.55,0,0,0,.67,2.25A2.41,2.41,0,0,0,129.36,79.6Z"/><path class="cls-2" d="M237.47,180.92l-14.86-2.16a4,4,0,0,1-3-2.21l-6.65-13.46a4,4,0,0,0-7.26,0L199,176.55a4.05,4.05,0,0,1-3.05,2.21l-14.85,2.16a4.05,4.05,0,0,0-2.24,6.91l10.75,10.47a4,4,0,0,1,1.16,3.58l-2.54,14.8a4,4,0,0,0,5.88,4.26l13.28-7a4,4,0,0,1,3.77,0l13.28,7a4,4,0,0,0,1.89.48,4.06,4.06,0,0,0,4-4.74l-2.53-14.8A4,4,0,0,1,229,198.3l10.75-10.47A4.05,4.05,0,0,0,237.47,180.92Z"/><path class="cls-1" d="M238.72,172.28l-12.42-1.8-5.55-11.25c-.09-.19-.2-.38-.3-.56h0a12.79,12.79,0,0,0-4-4.36,13,13,0,0,0-1.44-.85,13.1,13.1,0,0,0-2.35-.9,12.81,12.81,0,0,0-3.41-.45,12.68,12.68,0,0,0-7.47,2.4,13.06,13.06,0,0,0-2,1.75,12.82,12.82,0,0,0-2,3l-.14.27h0l-5.33,10.81c-10-16.83-24.89-29-44.55-36.22a3.36,3.36,0,0,0-2.29.17c-16.81,8.79-33.89,8.82-50.74.07a3.66,3.66,0,0,0-2.49-.21c-26.47,9.8-44.32,28.45-53,55.45a1.73,1.73,0,0,0,.49,2.12c21.31,23.35,48.33,35.47,80.32,36h1.54c1.12,0,2.29,0,3.41,0,2.28-.09,4.13-.22,5.82-.41A108,108,0,0,0,180.71,209l-1.06,6.16a12.79,12.79,0,0,0,12.59,15,12.82,12.82,0,0,0,5.95-1.48l11.1-5.84,11.11,5.84a12.78,12.78,0,0,0,18.54-13.47l-2.12-12.37,9-8.75a12.78,12.78,0,0,0-7.08-21.8Zm1,15.55L229,198.3a4,4,0,0,0-1.16,3.58l2.53,14.8a4.06,4.06,0,0,1-4,4.74,4,4,0,0,1-1.89-.48l-13.28-7a4,4,0,0,0-3.77,0l-13.28,7a4,4,0,0,1-5.88-4.26l2.54-14.8a4,4,0,0,0-1.16-3.58l-10.75-10.47a4.05,4.05,0,0,1,2.24-6.91L196,178.76a4.05,4.05,0,0,0,3.05-2.21l6.64-13.46a4,4,0,0,1,7.26,0l6.65,13.46a4,4,0,0,0,3,2.21l14.86,2.16A4.05,4.05,0,0,1,239.71,187.83Z"/><path class="cls-3" d="M262,176.31a25,25,0,0,0-20.26-17.09l-7.15-1-.33-.67a117.69,117.69,0,0,0,4.79-21.2c4.27-32.84-3.64-62.73-23.51-88.84C197.5,23.75,173.79,8.71,145.08,2.77A130.11,130.11,0,0,0,118.8,0C93.17,0,69.18,8.3,47.49,24.68,24.1,42.33,9,66,2.72,95.09c-.76,3.5-1.21,7.06-1.63,10.5v.06c-.2,1.56-.4,3.17-.62,4.74-.08.5-.17,1-.26,1.51l-.15.81,0,.17v.18L0,127v.14l0,.17v.13c.17,1.32.33,2.65.49,4,.36,3,.73,6,1.25,9a119.47,119.47,0,0,0,22.47,51.88c17.93,23.7,41.9,39,71.25,45.36,3.45.75,7,1.17,10.34,1.57,1.48.18,3.15.38,4.76.61.42.06.86.15,1.32.24l.73.15.19,0H113l14,0h.13l.14,0h.09c1.4-.19,2.81-.36,4.22-.53,3.09-.37,6.29-.76,9.45-1.35A127.27,127.27,0,0,0,168.53,230a24.77,24.77,0,0,0,3.08,4.64,25,25,0,0,0,30.89,6l6.4-3.36,6.39,3.36a25.1,25.1,0,0,0,36.43-26.46l-1.22-7.12,5.17-5A25,25,0,0,0,262,176.31ZM245.8,194.08l-9,8.75,2.12,12.37a12.76,12.76,0,0,1-18.54,13.47l-11.11-5.84-11.1,5.84a12.73,12.73,0,0,1-15.73-3.09,12.69,12.69,0,0,1-2.81-10.38l1.06-6.16a108,108,0,0,1-49.88,18.25c-1.69.19-3.54.32-5.82.41-1.12.05-2.29,0-3.41,0h-1.54c-32-.56-59-12.68-80.32-36a1.73,1.73,0,0,1-.49-2.12c8.73-27,26.58-45.65,53.05-55.45a3.66,3.66,0,0,1,2.49.21c16.85,8.75,33.93,8.72,50.74-.07a3.36,3.36,0,0,1,2.29-.17c19.66,7.24,34.57,19.39,44.55,36.22l5.33-10.81q-.94-1.37-1.95-2.7c-.66-.88-1.34-1.75-2-2.61q-2.08-2.58-4.33-5c-1.5-1.61-3-3.16-4.66-4.67a100.54,100.54,0,0,0-28.37-18.43c13-13.52,17.95-29.41,14.62-47.26a49,49,0,0,0-18.31-30.17c-.64-.5-1.28-1-1.93-1.45-.21-.16-.43-.3-.64-.45-.44-.31-.88-.62-1.32-.91l-.8-.5c-.4-.25-.8-.51-1.21-.75l-.86-.5c-.39-.22-.78-.45-1.18-.66l-.9-.47c-.39-.2-.78-.4-1.18-.59l-.92-.44-1.18-.53-.94-.39-1.19-.47-.95-.35c-.4-.15-.81-.29-1.22-.42l-.94-.31c-.41-.13-.83-.25-1.24-.36l-.94-.26c-.42-.12-.85-.22-1.27-.32l-.93-.21-1.32-.27-.89-.16c-.47-.09-1-.16-1.43-.22l-.78-.12c-.61-.08-1.23-.14-1.85-.2l-.37,0c-.74-.06-1.49-.1-2.23-.13l-.66,0-1.55,0c-.57,0-1.13,0-1.69,0l-.69,0c-.8,0-1.59.09-2.39.17l-.37,0c-.67.07-1.33.15-2,.24l-.83.14c-.51.08-1,.16-1.53.26l-.93.2-1.41.3-1,.26c-.45.11-.89.23-1.34.36l-1,.31c-.44.13-.87.27-1.3.42l-1,.35-1.27.48-1,.41c-.42.17-.83.35-1.25.54l-1,.46c-.41.19-.82.39-1.22.6l-1,.5-1.21.67-.94.54-1.19.74-.9.58-1.19.82c-.29.21-.58.4-.86.61s-.81.61-1.21.93l-.78.61c-.44.35-.87.72-1.3,1.09l-.64.55c-.64.57-1.26,1.15-1.88,1.76a50.63,50.63,0,0,0-13.78,24,51.36,51.36,0,0,0,.58,27.68,52.18,52.18,0,0,0,13.47,22.22c-25,11-42.7,29.31-52.59,54.47a93.22,93.22,0,0,1-5.32-8.3q-1-1.74-1.92-3.54c-.31-.6-.61-1.2-.91-1.81-.6-1.22-1.17-2.46-1.72-3.71a105.44,105.44,0,0,1-6-17.85c-.34-1.39-.64-2.78-.92-4.19q-.63-3.16-1.08-6.39c-.4-2.87-.68-5.78-.85-8.71,0-.73-.08-1.47-.11-2.21-.05-1.47-.08-2.95-.07-4.43,0-2.22.08-4.46.23-6.7a105.94,105.94,0,0,1,7.83-33.63q.91-2.2,1.95-4.4A108.72,108.72,0,0,1,40.8,47.43q1-1.05,2-2.07l.66-.67,1.32-1.33.81-.78,1.22-1.16.88-.82,1.18-1.06.93-.82,1.17-1,1-.81L53.05,36l1-.79,1.17-.9,1-.77,1.19-.87,1-.74c.39-.28.8-.56,1.2-.83l1-.72c.4-.27.81-.53,1.22-.79L63,28.86l1.27-.78c.35-.21.69-.43,1-.63.53-.32,1.08-.63,1.62-.94l1.68-1,1.31-.71,1.18-.61,1.2-.62L73.52,23l1.18-.57L76,21.89l1.17-.53,1.27-.54,1.18-.49,1.28-.52L82,19.35l1.3-.48,1.18-.43c.44-.15.88-.31,1.32-.45l1.19-.4,1.32-.42,1.19-.36,1.33-.39,1.21-.34,1.33-.35,1.24-.31L96,15.1l1.82-.4,1.87-.38,1.37-.27,1.26-.21,1.33-.23,1.27-.18,1.34-.19,1.26-.15,1.35-.16,1.26-.12,1.37-.13,1.24-.09,1.4-.09,1.21-.06,1.44-.06,1.18,0,1.49,0h1c1.34,0,2.69,0,4,.08l.66,0c1.34.06,2.68.15,4,.26l.59.05c1.37.13,2.74.27,4.11.45l.41.06q4.35.57,8.66,1.51l.26.05c1.39.31,2.76.65,4.14,1l.49.13c1.33.35,2.67.74,4,1.15l.56.18c1.32.42,2.64.86,3.94,1.33l.52.19c1.33.49,2.65,1,4,1.54l.34.14c2.75,1.15,5.46,2.41,8.13,3.8l.32.16c1.27.66,2.53,1.36,3.78,2.08l.51.3c1.22.7,2.42,1.44,3.61,2.2l.58.37c1.18.76,2.36,1.55,3.52,2.37l.53.38c1.18.84,2.35,1.7,3.5,2.6.13.09.25.19.37.29q1.82,1.41,3.59,2.92c28,23.85,39.22,56,37.91,86.41q-.21,5-.86,9.84c-.43,3.25-1,6.47-1.72,9.64-.28,1.27-.59,2.53-.92,3.78-.49,1.88-1,3.75-1.62,5.58s-1.22,3.66-1.9,5.46h0c.1.18.21.37.3.56l5.55,11.25,12.42,1.8a12.78,12.78,0,0,1,7.08,21.8ZM78.58,89A40.56,40.56,0,0,1,90.5,60,41.39,41.39,0,0,1,120,47.52h.11a41.72,41.72,0,0,1,41,35.16,42.59,42.59,0,0,1,.46,6.23,41.35,41.35,0,0,1-41.42,41.39H120A41.66,41.66,0,0,1,78.58,89Z"/></g></g></svg>