<svg xmlns="http://www.w3.org/2000/svg" viewBox="0 0 277.18 219.62"><defs><style>.cls-1{fill:#f8f8f8;}.cls-2{fill:#e9a18b;}.cls-3{fill:#1e1b19;}.cls-4{fill:#fff;}</style></defs><title>contact-icon</title><g id="Layer_2" data-name="Layer 2"><g id="Layer_11" data-name="Layer 11"><path class="cls-1" d="M179.35,78.67V17.72a4.16,4.16,0,0,0-4.09-4.22h-158a4.17,4.17,0,0,0-4.1,4.22v138.5l15.42-17.49a17,17,0,0,1,12.75-5.82H75.21V97.26c0-10.25,8.1-18.59,18.05-18.59Zm-107.81-45A5.57,5.57,0,0,1,77,28h81.15a5.57,5.57,0,0,1,5.49,5.65v1.68A5.56,5.56,0,0,1,158.18,41H77a5.56,5.56,0,0,1-5.49-5.64Zm-46.84,0A5.57,5.57,0,0,1,30.18,28h26a5.56,5.56,0,0,1,5.48,5.65v1.68A5.56,5.56,0,0,1,56.18,41h-26a5.56,5.56,0,0,1-5.48-5.64Zm5.48,32.93a5.57,5.57,0,0,1-5.48-5.65V59.26a5.57,5.57,0,0,1,5.48-5.65h128a5.57,5.57,0,0,1,5.49,5.65v1.68a5.57,5.57,0,0,1-5.49,5.65Z"/><path class="cls-2" d="M259.13,92.18H93.26a5,5,0,0,0-4.93,5.08V201a5,5,0,0,0,4.93,5.08H259.13a5,5,0,0,0,4.94-5.08V97.26A5,5,0,0,0,259.13,92.18ZM185.75,113a5.56,5.56,0,0,1,5.48-5.64h16.56a5.57,5.57,0,0,1,5.49,5.64v1.69a5.56,5.56,0,0,1-5.49,5.64H191.23a5.56,5.56,0,0,1-5.48-5.64Zm-81.09,0a5.57,5.57,0,0,1,5.48-5.64h60.74a5.57,5.57,0,0,1,5.48,5.64v1.69a5.56,5.56,0,0,1-5.48,5.64H110.14a5.56,5.56,0,0,1-5.48-5.64Zm91,52.9a5.57,5.57,0,0,1-5.49,5.64h-80a5.57,5.57,0,0,1-5.48-5.64v-1.69a5.56,5.56,0,0,1,5.48-5.64h80a5.56,5.56,0,0,1,5.49,5.64Zm48-25.61a5.57,5.57,0,0,1-5.48,5.65h-128a5.57,5.57,0,0,1-5.48-5.65v-1.68a5.57,5.57,0,0,1,5.48-5.65h128a5.57,5.57,0,0,1,5.48,5.65Z"/><path class="cls-3" d="M259.13,78.67H192.47V17.72A17.49,17.49,0,0,0,175.26,0h-158A17.49,17.49,0,0,0,0,17.72v142a12.1,12.1,0,0,0,7.55,11.35,11.51,11.51,0,0,0,4.28.82,11.63,11.63,0,0,0,8.72-4L38.24,147.8a4.07,4.07,0,0,1,3-1.38H75.21V201c0,10.25,8.1,18.58,18.05,18.58H259.13c9.95,0,18.05-8.33,18.05-18.58V97.26C277.18,87,269.08,78.67,259.13,78.67ZM75.21,97.26v35.65H41.28a17,17,0,0,0-12.75,5.82L13.11,156.22V17.72a4.17,4.17,0,0,1,4.1-4.22h158a4.16,4.16,0,0,1,4.09,4.22v61H93.26C83.31,78.67,75.21,87,75.21,97.26ZM264.07,201a5,5,0,0,1-4.94,5.08H93.26A5,5,0,0,1,88.33,201V97.26a5,5,0,0,1,4.93-5.08H259.13a5,5,0,0,1,4.94,5.08Z"/><path class="cls-4" d="M191.23,120.28h16.56a5.56,5.56,0,0,0,5.49-5.64V113a5.57,5.57,0,0,0-5.49-5.64H191.23a5.56,5.56,0,0,0-5.48,5.64v1.69A5.56,5.56,0,0,0,191.23,120.28Z"/><path class="cls-4" d="M110.14,120.28h60.74a5.56,5.56,0,0,0,5.48-5.64V113a5.57,5.57,0,0,0-5.48-5.64H110.14a5.57,5.57,0,0,0-5.48,5.64v1.69A5.56,5.56,0,0,0,110.14,120.28Z"/><path class="cls-4" d="M238.15,132.91h-128a5.57,5.57,0,0,0-5.48,5.65v1.68a5.57,5.57,0,0,0,5.48,5.65h128a5.57,5.57,0,0,0,5.48-5.65v-1.68A5.57,5.57,0,0,0,238.15,132.91Z"/><path class="cls-4" d="M190.16,158.52h-80a5.56,5.56,0,0,0-5.48,5.64v1.69a5.57,5.57,0,0,0,5.48,5.64h80a5.57,5.57,0,0,0,5.49-5.64v-1.69A5.56,5.56,0,0,0,190.16,158.52Z"/><path class="cls-3" d="M30.18,41h26a5.56,5.56,0,0,0,5.48-5.64V33.66A5.56,5.56,0,0,0,56.18,28h-26a5.57,5.57,0,0,0-5.48,5.65v1.68A5.56,5.56,0,0,0,30.18,41Z"/><path class="cls-3" d="M77,41h81.15a5.56,5.56,0,0,0,5.49-5.64V33.66A5.57,5.57,0,0,0,158.18,28H77a5.57,5.57,0,0,0-5.49,5.65v1.68A5.56,5.56,0,0,0,77,41Z"/><path class="cls-3" d="M163.67,60.94V59.26a5.57,5.57,0,0,0-5.49-5.65h-128a5.57,5.57,0,0,0-5.48,5.65v1.68a5.57,5.57,0,0,0,5.48,5.65h128A5.57,5.57,0,0,0,163.67,60.94Z"/></g></g></svg>