<svg xmlns="http://www.w3.org/2000/svg" viewBox="0 0 219.91 219.91"><defs><style>.cls-1{fill:#f8f8f8;}.cls-2{fill:#1e1b19;}.cls-3{fill:#e9a18b;}</style></defs><title>github-icon</title><g id="Layer_2" data-name="Layer 2"><g id="Layer_13" data-name="Layer 13"><path class="cls-1" d="M192.78,17.18H27c-6.52,0-9.85,3.36-9.85,9.94V192.87c0,6.52,3.36,9.85,9.94,9.85H88a6.91,6.91,0,0,0,.14-1.6c-.06-5.4-.16-10.79-.13-16.18,0-1.47-.3-1.79-1.8-1.5-7.2,1.39-14.37,1.56-21.35-1.17a24,24,0,0,1-14.1-13.8c-2.74-6.69-6.57-12.56-13-16.39a12.7,12.7,0,0,1-2.6-2.2c-1.56-1.68-1.13-2.94,1.11-3.49a12.94,12.94,0,0,1,7.29.55c5.69,1.89,9.77,5.75,12.87,10.73s7.14,8.89,12.94,10.57c6.2,1.8,12.16.67,18-1.66a1.38,1.38,0,0,0,1-1.25,23.41,23.41,0,0,1,6.79-13.62c-3.85-.67-7.54-1.18-11.18-2-8.64-1.87-16.73-5-23.54-10.88-8.55-7.36-12.75-17-14.4-27.92-1.21-7.93-1.7-15.9.32-23.8a40.06,40.06,0,0,1,9-17,2.41,2.41,0,0,0,.58-2.82c-3-8.94-2-17.75,1.17-26.43.56-1.54,2-1.06,3.12-1a33.35,33.35,0,0,1,11.41,2.66,83.34,83.34,0,0,1,14.89,7.92,3,3,0,0,0,2.64.49,105.13,105.13,0,0,1,52.12-.1,3.6,3.6,0,0,0,3.16-.51c6.94-4.49,14.14-8.41,22.37-10.06,5.92-1.18,6.45-.91,8,4.8a39.06,39.06,0,0,1-.07,22.49,1.76,1.76,0,0,0,.25,2c7.88,8.82,11.09,19.27,10.6,31-.33,8-1.4,15.9-4.58,23.36-5.11,12-14.32,19.37-26.42,23.48a91.67,91.67,0,0,1-18.93,3.94c0,.15,0,.32,0,.38,5.14,5.21,6.85,11.75,6.94,18.77.12,10,0,19.92-.07,29.89a9.88,9.88,0,0,0,.21,2.28h50.12c6.52,0,9.85-3.37,9.85-9.94V27.24C202.72,20.5,199.44,17.18,192.78,17.18Z"/><path class="cls-2" d="M219.87,25.33C219.86,13.22,211,2.91,199,.44A11.63,11.63,0,0,1,197.57,0H22.33c-3.77,1.56-7.85,2.65-11.26,4.79C5.14,8.52,1.77,14.28.41,21.17A8.43,8.43,0,0,1,0,22.33V197.57c1.12,4.28,2.4,8.49,5.22,12.06,5.14,6.51,11.82,10.21,20.12,10.22q84.59.12,169.18,0a25.58,25.58,0,0,0,25.35-25.36Q220,109.93,219.87,25.33ZM202.72,192.78c0,6.57-3.33,9.94-9.85,9.94H142.75a9.88,9.88,0,0,1-.21-2.28c0-10,.19-19.93.07-29.89-.09-7-1.8-13.56-6.94-18.77-.06-.06,0-.23,0-.38a91.67,91.67,0,0,0,18.93-3.94C166.69,143.35,175.9,136,181,124c3.18-7.46,4.25-15.34,4.58-23.36.49-11.72-2.72-22.17-10.6-31a1.76,1.76,0,0,1-.25-2,39.06,39.06,0,0,0,.07-22.49c-1.59-5.71-2.12-6-8-4.8-8.23,1.65-15.43,5.57-22.37,10.06a3.6,3.6,0,0,1-3.16.51,105.13,105.13,0,0,0-52.12.1,3,3,0,0,1-2.64-.49,83.34,83.34,0,0,0-14.89-7.92,33.35,33.35,0,0,0-11.41-2.66c-1.09,0-2.56-.51-3.12,1-3.16,8.68-4.18,17.49-1.17,26.43a2.41,2.41,0,0,1-.58,2.82,40.06,40.06,0,0,0-9,17c-2,7.9-1.53,15.87-.32,23.8,1.65,10.89,5.85,20.56,14.4,27.92,6.81,5.85,14.9,9,23.54,10.88,3.64.79,7.33,1.3,11.18,2a23.41,23.41,0,0,0-6.79,13.62,1.38,1.38,0,0,1-1,1.25c-5.84,2.33-11.8,3.46-18,1.66-5.8-1.68-9.83-5.56-12.94-10.57s-7.18-8.84-12.87-10.73a12.94,12.94,0,0,0-7.29-.55c-2.24.55-2.67,1.81-1.11,3.49a12.7,12.7,0,0,0,2.6,2.2c6.41,3.83,10.24,9.7,13,16.39a24,24,0,0,0,14.1,13.8c7,2.73,14.15,2.56,21.35,1.17,1.5-.29,1.81,0,1.8,1.5,0,5.39.07,10.78.13,16.18a6.91,6.91,0,0,1-.14,1.6H27.12c-6.58,0-9.94-3.33-9.94-9.85V27.12c0-6.58,3.33-9.94,9.85-9.94H192.78c6.66,0,9.94,3.32,9.94,10.06V192.78Z"/><path class="cls-3" d="M136.07,120.27a3,3,0,0,0-4.17.8c-1.76,2.6-3.69,4-5.74,4.1-2.93.17-6-2.12-7.55-3.62v-8.27c2-.69,3.41-2,3.41-3.62,0-2.26-2.87-4.09-6.41-4.09s-6.42,1.83-6.42,4.09c0,1.57,1.39,2.93,3.42,3.62v8.27c-1.57,1.5-4.62,3.79-7.56,3.62-2-.12-4-1.5-5.74-4.1a3,3,0,1,0-5,3.37c2.87,4.23,6.36,6.49,10.38,6.72l.64,0c4.28,0,8-2.4,10.24-4.28,2.24,1.88,6,4.28,10.23,4.28l.65,0c4-.23,7.5-2.49,10.37-6.72A3,3,0,0,0,136.07,120.27Z"/><path class="cls-3" d="M137.28,91.55a7.78,7.78,0,0,1,9,0,5.41,5.41,0,0,0,3,1.12,2.7,2.7,0,0,0,2.19-1,4,4,0,0,0,.74-2.51c0-4.79-4.68-8.68-10.44-8.68h0c-5.76,0-10.44,3.89-10.44,8.68a4,4,0,0,0,.74,2.51,2.71,2.71,0,0,0,2.19,1A5.41,5.41,0,0,0,137.28,91.55Z"/><path class="cls-3" d="M84.91,91.55a7.78,7.78,0,0,1,9,0,5.41,5.41,0,0,0,3,1.12,2.7,2.7,0,0,0,2.19-1,3.91,3.91,0,0,0,.75-2.51c0-4.79-4.69-8.68-10.45-8.68h0C83.67,80.45,79,84.34,79,89.13a4,4,0,0,0,.74,2.51,2.73,2.73,0,0,0,2.2,1A5.38,5.38,0,0,0,84.91,91.55Z"/></g></g></svg>