<svg xmlns="http://www.w3.org/2000/svg" viewBox="0 0 219.91 219.91"><defs><style>.cls-1{fill:#1e1b19;}.cls-2{fill:#fff;}.cls-3{fill:#e9a18b;}</style></defs><title>linkedin-icon</title><g id="Layer_2" data-name="Layer 2"><g id="Layer_10" data-name="Layer 10"><path class="cls-1" d="M0,197.57V22.33a8.43,8.43,0,0,0,.41-1.16C1.77,14.28,5.14,8.52,11.07,4.79,14.48,2.65,18.56,1.56,22.33,0H197.57A11.63,11.63,0,0,0,199,.44C211,2.91,219.86,13.22,219.87,25.33q.09,84.6,0,169.18a25.58,25.58,0,0,1-25.35,25.36q-84.59.09-169.18,0c-8.3,0-15-3.71-20.12-10.22C2.4,206.06,1.12,201.85,0,197.57ZM202.72,109.9V27.24c0-6.74-3.28-10.06-9.94-10.06H27c-6.52,0-9.85,3.36-9.85,9.94V192.87c0,6.52,3.36,9.85,9.94,9.85H192.87c6.52,0,9.85-3.37,9.85-9.94Z"/><path class="cls-2" d="M202.72,109.9v82.88c0,6.57-3.33,9.94-9.85,9.94H27.12c-6.58,0-9.94-3.33-9.94-9.85V27.12c0-6.58,3.33-9.94,9.85-9.94H192.78c6.66,0,9.94,3.32,9.94,10.06Zm-21.54,71.69c0-.56.06-.91.06-1.26,0-18.82.14-37.65-.13-56.47A90.44,90.44,0,0,0,179,106.45c-1.92-9-6.65-16.24-15.4-20.18-6.75-3-13.94-3.79-21.21-3.25-10.43.77-19.19,4.83-25.11,13.9,0,.06-.23,0-.51.07V84.74h-29v96.83h29.05v-2.4c0-15.1,0-30.2,0-45.3a60.51,60.51,0,0,1,.89-10.24c1.59-8.82,6.42-13.56,14.67-14.81,10-1.52,16.64,3.2,18.31,13.13a57.56,57.56,0,0,1,.82,9.17c.09,16,0,32.07.06,48.1v2.37Zm-142.43-.07h29.8V84.73H38.75Zm33-127.7A17.61,17.61,0,1,0,54,71.29,17.65,17.65,0,0,0,71.72,53.82Z"/><path class="cls-1" d="M181.18,181.59H151.61v-2.37c0-16,0-32.07-.06-48.1a57.56,57.56,0,0,0-.82-9.17c-1.67-9.93-8.35-14.65-18.31-13.13-8.25,1.25-13.08,6-14.67,14.81a60.51,60.51,0,0,0-.89,10.24c-.09,15.1,0,30.2,0,45.3v2.4h-29V84.74h29V97c.28,0,.47,0,.51-.07C123.2,87.85,132,83.79,142.39,83c7.27-.54,14.46.2,21.21,3.25,8.75,3.94,13.48,11.16,15.4,20.18a90.44,90.44,0,0,1,2.11,17.41c.27,18.82.12,37.65.13,56.47C181.24,180.68,181.21,181,181.18,181.59Z"/><path class="cls-1" d="M38.75,181.52V84.73h29.8v96.79Z"/><path class="cls-3" d="M71.72,53.82A17.61,17.61,0,1,1,54.25,36.08,17.65,17.65,0,0,1,71.72,53.82Z"/></g></g></svg>