<?xml version="1.0" encoding="utf-8"?>
<!-- Generator: Adobe Illustrator 24.0.1, SVG Export Plug-In . SVG Version: 6.00 Build 0)  -->
<svg version="1.1" id="Layer_1" xmlns="http://www.w3.org/2000/svg" xmlns:xlink="http://www.w3.org/1999/xlink" x="0px" y="0px"
	 viewBox="0 0 372 282.1" style="enable-background:new 0 0 372 282.1;" xml:space="preserve">
<style type="text/css">
	.st0{fill:#E9A18B;}
	.st1{fill:#1C1C1C;}
	.st2{fill:#1E1B19;}
	.st3{fill:#F8F8F8;}
</style>
<title>projects-icon</title>
<g id="Layer_2_1_">
	<g id="Layer_2-2">
		<path class="st0" d="M66,38.5c4.3,4.5,8.7,8.9,12.6,12.8l9-8.3C82.2,37.7,77,32.1,71.3,27c-2-1.7-4.6-2.8-7.2-2.9
			C52.5,23.9,40.9,24,29.3,24c-7.6,0-15.2-0.3-22.8,0.2c-2.3,0.4-4.4,1.7-5.7,3.7c-0.8,1.3-0.3,4.5,0.8,5.7c1.7,1.5,4,2.3,6.3,2.3
			c17.4,0.2,34.7,0.2,52.1,0C62.2,35.8,64.5,36.7,66,38.5z"/>
		<path class="st1" d="M371.8,268.6c-1-3.4-3.5-4.5-6.9-4.5c-15.5,0-31,0-46.5,0.1c-2.5,0.2-4.9-0.8-6.5-2.6
			c-5.2-5.5-10.7-10.8-16-16.1l-8.4,8.4c6.8,6.8,13.5,13.8,20.5,20.6c1.1,1,2.5,1.5,4,1.6c18,0.1,36,0.1,54,0c3.2,0.1,5.9-2.5,6-5.7
			C372,269.7,372,269.1,371.8,268.6z"/>
		<path class="st1" d="M7.5,12c8.5,0,17,0,25.5,0s17,0,25.5,0c4.7,0,7.5-2.3,7.5-6s-2.8-6-7.5-6h-51C2.8,0,0,2.3,0,6S2.8,12,7.5,12z
			"/>
		<path class="st0" d="M312,245.9c-0.1,3.8,2.7,6.1,7.3,6.1c7.5,0,15,0,22.5,0s15.3,0,22.9,0c4.5,0,7.2-2.2,7.3-5.9
			s-2.7-6.1-7.3-6.1c-15.1,0-30.2,0-45.4,0C314.8,240.1,312.1,242.3,312,245.9z"/>
		<path class="st2" d="M294.4,225.2l-0.5-1.5c-1.1-3.6-2.5-7-3.5-10.6c-0.2-0.6-0.3-1.2-0.5-1.8c-0.5-2.4-0.3-4.8,0.5-7.1
			c0,0,0-0.1,0-0.1c2-5.3,4.3-10.4,6.4-15.6c0.5-1,0.9-1.9,1.4-2.9c1.2-2.2,3-4.1,5.2-5.3l1.2-0.6c3.2-1.1,6.4-2.2,9.5-3.5l1.6-0.5
			c1.8-0.6,2.5-1.4,2.5-3.4c0-6.2,0-12.5,0-18.7c0-2.5,0-4.9,0-7.4c0-6.2,0-12.4,0-18.6c0-1.9-0.6-2.9-2.5-3.5l-1.9-0.6
			c-3-1.2-6-2.3-9-3.3l-1.4-0.7c-2.3-1.2-4.1-3-5.3-5.2c-0.4-0.8-0.7-1.5-1-2.3c-2.1-5.4-4.6-10.7-6.6-16.2
			c-0.4-1.2-0.7-2.4-0.8-3.6c0-0.1,0-0.1,0-0.2c0-0.1,0-0.2,0-0.3c-0.1-1.2,0-2.4,0.3-3.6l0.1-0.3c1-3.9,2.5-7.7,3.7-11.5
			c0.3-0.7,0.5-1.3,0.7-2c0.8-1.7,0.4-3.8-1.1-4.9c-3.4-3.3-6.7-6.7-10.1-10c-5.6-5.7-11.3-11.3-16.8-16.9c-0.6-0.6-1.3-1.1-2.1-1.4
			c-0.1,0-0.2,0-0.3-0.1h-0.2c-0.9-0.1-1.7,0-2.5,0.3c-4.6,1.8-9.3,3.3-14,4.6l0,0c-2.4,0.5-4.8,0.3-7.1-0.5l-1.5-0.6
			c-4.7-1.8-9.3-3.8-13.9-5.7c-1.1-0.5-2.1-1-3.2-1.5c-2.3-1.2-4.1-3-5.3-5.2c-0.3-0.5-0.5-1-0.7-1.5c-1-2.9-2-5.8-3.2-8.7
			c-0.2-0.7-0.4-1.4-0.7-2.1c-0.6-1.8-1.4-2.5-3.4-2.5c-6.2,0-12.5,0-18.7,0h-7.4c-6.2,0-12.3,0-18.5,0c-1.9,0-2.9,0.6-3.5,2.5
			c-0.1,0.5-0.3,1-0.5,1.5c-1.3,3.2-2.5,6.4-3.6,9.7c-0.2,0.4-0.4,0.8-0.5,1.1c-1.2,2.3-3,4.1-5.2,5.3l-2.1,1
			c-5.5,2.2-10.9,4.7-16.4,6.7c-1.3,0.5-2.7,0.7-4.1,0.8c-1.2,0.1-2.3,0-3.5-0.3l-1.7-0.4c-3.3-1-6.5-2.2-9.8-3.3l-2.3-0.8
			c-1.7-0.8-3.8-0.3-4.9,1.1c-2.8,2.9-5.7,5.7-8.5,8.6c-3.4,3.4-6.8,6.8-10.2,10.2c-2.7,2.7-5.3,5.3-8,7.9c-1.6,1.6-2.1,3-1.3,5.2
			L78,76c1.3,4.3,3,8.4,4.1,12.8c0.5,2.4,0.3,4.8-0.5,7.1c-2.2,6.1-5.1,12.1-7.4,18.3c-0.9,2.8-3,4.9-5.8,5.8
			c-4.1,1.4-8.3,2.8-12.3,4.5c-1.1,0.6-1.9,1.6-2.1,2.8c-0.1,15.1-0.1,30.2,0,45.4c0.2,1.2,0.9,2.3,2,2.9l2.3,0.9
			c3.2,1.3,6.5,2.5,9.8,3.6c2.3,0.7,4.2,2.2,5.3,4.4c0.3,0.6,0.6,1.2,0.8,1.8c1.3,4.1,2.5,8.6,4.8,12.1c0.3,0.5,0.6,1,0.9,1.6
			c0.6,1.4,1.1,2.8,1.6,4.1c0.3,0.8,0.5,1.6,0.6,2.4c0.2,1.6,0.2,3.2,0,4.7c0,0.1,0,0.2-0.1,0.3c-0.6,2.3-1.3,4.5-2.1,6.8l-0.1,0.2
			c-1.2,3.1-2.3,6.3-3.2,9.6c0.6,0.8,1.3,1.6,2,2.4c4.5,4.5,9,9,13.5,13.5l0.2,0.2c4.1,4.1,8.2,8.1,12.3,12.1l1.4,1.3
			c1.2,0.9,2.7,1.3,4.1,1c4.9-1.4,9.7-3.4,14.6-4.7c2.4-0.5,4.8-0.3,7.1,0.5c6.2,2.3,12.2,5.1,18.3,7.5c2.3,0.8,4.3,2.4,5.4,4.6
			c0.1,0.3,0.3,0.6,0.4,0.9c1.1,3.1,2.1,6.3,3.4,9.3c0.4,1.1,0.8,2.1,1.3,3.2c0.6,1.1,1.6,1.9,2.8,2.1c15.1,0.1,30.2,0.1,45.4,0
			c1.2-0.2,2.3-0.9,2.9-2c1.7-4,3.2-8.1,4.5-12.3c1-3.1,3.1-4.7,6.2-5.9c4.7-1.8,8.2-3.4,12.1-4.8c5.9-2,10.6-3.4,15.6-2.4
			c1.5,0.4,3,0.9,4.4,1.5h0.1c2.4,0.8,4.8,1.7,7.2,2.4c1.6,0.3,3.2,0,4.5-1l0,0c0.1,0.1,0.1,0.1,0.2,0c6.8-6.8,13.6-13.5,20.3-20.3
			c2.2-2.2,4.4-4.4,6.7-6.6C295,228.8,295.1,227.3,294.4,225.2z M281.4,161.1c-0.3,2.5-0.6,5-1.1,7.4c-0.1,0.9-0.3,1.7-0.5,2.6
			c-3,12.8-8.5,24.9-16.4,35.5c-2.1,2.8-4.3,5.5-6.6,8.1c-1.3,1.3-2.6,2.6-3.9,3.9c-5.5,5.3-11.6,10-18.2,13.9
			c-0.7,0.4-1.4,0.9-2.2,1.4c-0.6,0.4-1.2,0.7-1.9,0.9c-7.9,4.2-16.4,7.3-25.1,9.1c-0.3,0.1-0.6,0.2-0.9,0.2
			c-1.3,0.2-2.6,0.4-3.9,0.6c-0.5,0.1-1.1,0.2-1.6,0.2l-1.1,0.1l-1.7,0.2c-3.2,0.4-6.4,0.6-9.7,0.6h-0.6c-0.9,0-1.7,0-2.5,0
			c-30.7-1.1-59.1-16.6-76.6-42c-9-13-14.6-28.2-16.1-43.9c-0.4-3.2-0.6-6.5-0.6-9.8c0-3.1,0.1-6.3,0.3-9.4
			c0.8-7.7,2.5-15.3,5.1-22.7c0.7-2.1,1.4-4.1,2.2-6c6.2-14.3,15.7-26.9,27.8-36.7l0.1-0.1c1.6-1.3,3.3-2.6,5-3.8l0.8-0.6
			c0.7-0.5,1.4-1,2.1-1.5l0.5-0.3c0.8-0.5,1.6-1,2.4-1.5l0.4-0.3c11.8-7.2,25.1-11.5,38.9-12.8c2.5-0.2,5-0.4,7.4-0.4
			c0.7-0.2,1.5-0.3,2.2-0.3c4,0,8,0.2,12,0.6c2.5,0.3,5,0.6,7.4,1.1c0.9,0.2,1.9,0.3,2.8,0.5c3.5,0.8,7,1.8,10.4,3
			c5.1,1.7,10.1,3.8,14.8,6.3c8.2,4.7,15.7,10.6,22.1,17.5c5.3,5.5,10,11.6,13.9,18.2c0.5,0.7,0.9,1.4,1.4,2.2
			c0.4,0.6,0.7,1.2,0.9,1.9c4.2,7.9,7.3,16.4,9.1,25.1c0,0.1,0,0.2,0.1,0.2c0.5,2.9,1,5.8,1.2,8.7c0.2,2.5,0.4,5,0.5,7.4
			c0.2,0.7,0.3,1.4,0.3,2.2C282,153.1,281.8,157.2,281.4,161.1L281.4,161.1z"/>
		<path class="st3" d="M281.3,139.6c-0.3-3-0.7-5.9-1.2-8.7c0-0.1,0-0.2-0.1-0.2c-1.8-8.8-4.9-17.2-9.1-25.1
			c-0.3-0.7-0.6-1.3-0.9-1.9c-0.5-0.7-0.9-1.5-1.4-2.2c-3.9-6.6-8.6-12.7-13.9-18.2c-6.4-6.9-13.9-12.8-22.1-17.5
			c-4.8-2.5-9.7-4.6-14.8-6.3c-3.4-1.2-6.9-2.2-10.4-3c-0.9-0.2-1.9-0.4-2.8-0.5c-2.4-0.5-4.9-0.8-7.4-1.1c-4-0.4-8-0.6-12-0.6
			c-0.7,0-1.5,0.1-2.2,0.3c-2.4,0.1-4.9,0.2-7.4,0.4c-13.8,1.2-27.1,5.6-38.9,12.8l-0.4,0.3c-0.8,0.5-1.6,1-2.4,1.5l-0.5,0.3
			c-0.7,0.5-1.4,1-2.1,1.5l-0.8,0.6c-1.7,1.2-3.4,2.5-5,3.8l-0.1,0.1c-12,9.9-21.6,22.4-27.8,36.7c-0.8,2-1.5,4-2.2,6
			c-2.6,7.3-4.3,14.9-5.1,22.7c-0.3,3.1-0.4,6.2-0.3,9.4c0,3.3,0.3,6.6,0.6,9.8c1.5,15.8,7.1,30.9,16.1,43.9
			c17.4,25.4,45.8,40.9,76.6,42c0.8,0,1.7,0,2.5,0h0.6c3.3-0.1,6.5-0.3,9.7-0.6l1.7-0.2l1.1-0.1c0.6-0.1,1.1-0.2,1.6-0.2
			c1.3-0.2,2.6-0.4,3.9-0.6c0.3-0.1,0.6-0.1,0.9-0.2c8.8-1.8,17.2-4.9,25.1-9.1c0.7-0.3,1.3-0.6,1.9-0.9c0.7-0.4,1.4-0.9,2.2-1.4
			c6.6-3.9,12.7-8.6,18.2-13.9c1.4-1.3,2.6-2.6,3.9-3.9c2.4-2.6,4.6-5.3,6.6-8.1c7.8-10.6,13.4-22.7,16.4-35.5
			c0.2-0.9,0.4-1.7,0.5-2.6c0.5-2.4,0.8-4.9,1.1-7.4c0.4-4,0.6-8,0.6-12c0-0.7-0.1-1.5-0.3-2.2C281.6,144.6,281.5,142.1,281.3,139.6
			z M260.7,171.7c-10.5,37.8-49.8,61.9-89,54.5c-2.1-0.4-4.1-0.7-6.2-1.2c-1.4-0.3-2.7-0.8-4-1.3c-7.3-2.6-14.2-6.1-20.7-10.3
			c-20.3-14.7-32.3-38.2-32.4-63.3c0-2.1-0.1-4.2,0-6.3c0.1-1.4,0.3-2.8,0.5-4.2c2.9-17.2,9.3-31.6,19.4-42.7
			c4.4-4.5,9.2-8.5,14.4-12c12.9-7.9,27.6-12.5,42.7-13.2c0.4,0,0.8,0,1.2,0c9.1,0,18.1,1.7,26.6,5c6.1,2.3,11.9,5.4,17.2,9.1
			c4.8,3.5,9.3,7.5,13.4,11.8c2,2.2,3.9,4.6,5.6,7.1c1.1,1.6,2.1,3.3,3.2,4.9C263.8,128.4,266.7,150.8,260.7,171.7z"/>
		<path class="st0" d="M252.8,109.7c-1.1-1.7-2.1-3.3-3.2-4.9c-1.7-2.5-3.6-4.8-5.6-7.1c-4.1-4.3-8.5-8.3-13.3-11.8
			c-5.3-3.7-11.1-6.8-17.2-9.1c-8.5-3.3-17.5-5-26.6-5c-0.4,0-0.8,0-1.2,0c-15.1,0.7-29.8,5.2-42.6,13.1c-5.2,3.5-10,7.5-14.4,12
			c-10.1,11.1-16.6,25.5-19.4,42.7c-0.3,1.4-0.4,2.8-0.5,4.2c-0.1,2.1,0,4.2,0,6.3c0,25.1,12.1,48.6,32.4,63.3
			c6.4,4.3,13.4,7.7,20.7,10.3c1.3,0.5,2.6,0.9,4,1.3c2,0.5,4.1,0.8,6.2,1.2c39.2,7.5,78.5-16.7,89-54.5
			C266.7,150.8,263.8,128.4,252.8,109.7z"/>
		<g>
			<path class="st3" d="M251.2,144.4c-3.8-3.8-7.6-7.6-11.4-11.4c-3-3-5.9-5.9-8.9-8.8l0,0c-0.7-0.7-1.3-1.3-2-2
				c-1.5-1.6-3.1-3.2-4.7-4.7c-2.9-2.6-6.5-2.7-9.2-0.2c-2.7,2.6-2.7,6.4-0.1,9.5c0.5,0.6,1.1,1.2,1.7,1.7l21.4,21.3
				c-0.1,0.1-0.3,0.3-0.4,0.4c-0.6,0.6-1,1.1-1.6,1.6c-2.6,2.6-5.3,5.3-7.9,7.9c-4.2,4.2-8.4,8.3-12.5,12.5c-3.3,3.4-3.6,7.1-0.8,10
				c1.3,1.3,2.8,2,4.5,2c0,0,0,0,0,0c1.9,0,3.8-0.9,5.5-2.6c8.9-8.8,17.8-17.7,26.4-26.4C255.1,151.7,255,148.3,251.2,144.4z"/>
			<path class="st3" d="M154.4,170.6l-20.7-20.7c0.7-0.7,1.4-1.4,2.1-2c1.9-1.8,3.6-3.5,5.3-5.2l2.4-2.3c4.3-4.3,8.8-8.8,13.2-13.2
				c2-2.1,2.7-4.9,1.9-7.4c-0.7-2.1-2.4-3.5-4.7-3.8l-0.1,0c-2.5-0.1-5,0.8-6.8,2.5c-6.8,6.5-13.5,13.3-20,19.8
				c-1.9,1.9-3.8,3.8-5.7,5.7c-2.4,2.4-3.4,4.2-3.4,6c0,1.9,1,3.6,3.4,6c8.4,8.4,16.8,16.8,25.1,25.2c2.6,2.6,4.8,3.4,6.5,3.4
				c1.9,0,3.3-1,4.2-1.8c1.3-1.2,1.9-2.7,2-4.2c0-2.1-1.2-4.4-3.5-6.8C155.2,171.3,154.8,170.9,154.4,170.6z"/>
			<path class="st3" d="M193.2,110L193.2,110c-3.9-0.9-7.1,1.3-8.2,5.8c-2,7.7-4,15.7-5.9,23.6c-3.5,13.9-6.9,27.7-10.4,41.6
				c-0.6,2.4-0.2,4.8,1.1,6.5c1.2,1.5,3,2.4,5.1,2.5l0.1,0l0.1,0c3.4-0.3,5.5-2.3,6.5-6.2c3.3-13.4,6.6-26.7,10-40.1
				c2.1-8.3,4.1-16.5,6.2-24.8c0.6-2.4,0.3-4.6-0.7-6.2C196.3,111.3,194.9,110.4,193.2,110z"/>
		</g>
	</g>
</g>
</svg>
