<svg xmlns="http://www.w3.org/2000/svg" viewBox="0 0 238.85 217.81"><defs><style>.cls-1{fill:none;}.cls-2{fill:#f8f8f8;}.cls-3{fill:#1e1b19;}.cls-4{fill:#e9a18b;}</style></defs><title>stack-icon</title><g id="Layer_2" data-name="Layer 2"><g id="Layer_12" data-name="Layer 12"><path class="cls-1" d="M24.4,123.66c-.21-.28-.42-.57-.62-.86C24,123.09,24.19,123.38,24.4,123.66Z"/><path class="cls-1" d="M25.52,125.09l-.63-.77Z"/><path class="cls-1" d="M23.37,122.17c-.21-.32-.41-.64-.61-1C23,121.53,23.16,121.85,23.37,122.17Z"/><path class="cls-1" d="M26.72,126.44c-.21-.23-.43-.45-.64-.69C26.29,126,26.5,126.21,26.72,126.44Z"/><path class="cls-1" d="M22.42,120.61c-.2-.36-.4-.71-.58-1.08C22,119.9,22.22,120.25,22.42,120.61Z"/><path class="cls-1" d="M29.35,128.9l-.65-.54Z"/><path class="cls-1" d="M30.76,130l-.65-.48Z"/><path class="cls-1" d="M198.15,197.19h0Z"/><path class="cls-1" d="M13.16,197.45h0Z"/><path class="cls-1" d="M21.56,119c-.19-.39-.37-.79-.55-1.19C21.19,118.19,21.37,118.59,21.56,119Z"/><path class="cls-1" d="M32.25,131l-.67-.42Z"/><path class="cls-1" d="M198.08,197.19h0Z"/><polygon class="cls-1" points="208.21 205.57 208.21 205.57 208.2 205.57 208.21 205.57"/><path class="cls-1" d="M11.07,205.4A5.09,5.09,0,0,1,10,202.78,5.09,5.09,0,0,0,11.07,205.4Z"/><path class="cls-1" d="M20.81,117.3c-.18-.44-.36-.88-.52-1.32C20.45,116.42,20.63,116.86,20.81,117.3Z"/><path class="cls-1" d="M19.91,114.87c.07.24.16.46.24.7-.18-.54-.36-1.09-.51-1.64Z"/><path class="cls-1" d="M41.67,115.05v3h.11c0-1,0-2,0-3Z"/><path class="cls-1" d="M28,127.71l-.64-.61Z"/><path class="cls-1" d="M48.72,16.58a3.36,3.36,0,0,0,1.34,1.68A3.36,3.36,0,0,1,48.72,16.58Z"/><path class="cls-1" d="M53.43,10.64a8.43,8.43,0,0,0-1.59.06A8.43,8.43,0,0,1,53.43,10.64Z"/><path class="cls-1" d="M185.78,68a26.44,26.44,0,0,0,16.67-13.88A26.44,26.44,0,0,1,185.78,68Z"/><path class="cls-1" d="M51.75,18.92a13.77,13.77,0,0,0,2.49.15h0A13.77,13.77,0,0,1,51.75,18.92Z"/><path class="cls-1" d="M33.81,131.91c-.23-.13-.47-.24-.7-.38C33.34,131.67,33.58,131.78,33.81,131.91Z"/><path class="cls-1" d="M120.72,60.58l21.35,0Z"/><path class="cls-1" d="M175.11,19.08h0c4.86-.34,9.46.25,13.47,2.77C184.58,19.33,180,18.74,175.11,19.08Z"/><path class="cls-1" d="M49.73,68l0,0Z"/><path class="cls-1" d="M50.22,68.35l-.15-.11Z"/><path class="cls-1" d="M190.58,44.55c2.86-8.17-2.48-17.34-10.46-17.93-.41,0-.82,0-1.23-.05h0q.62,0,1.23.06c8,.58,13.31,9.75,10.45,17.92a12.76,12.76,0,0,1-3.83,5.72A12.86,12.86,0,0,0,190.58,44.55Z"/><path class="cls-1" d="M37.2,133.43c-.29-.1-.58-.2-.87-.32C36.62,133.23,36.91,133.33,37.2,133.43Z"/><path class="cls-1" d="M39.73,134.22c-.58-.14-1.16-.31-1.72-.49C38.57,133.91,39.15,134.08,39.73,134.22Z"/><path class="cls-1" d="M35.44,132.72l-.74-.34Z"/><path class="cls-1" d="M50.45,61.12a3.51,3.51,0,0,0-1.88,2.58A3.54,3.54,0,0,1,50.45,61.12Z"/><path class="cls-1" d="M83.74,60.58h0Z"/><path class="cls-1" d="M196.09,49.14c-2.11,4.79-5.3,8.21-9.44,10C190.79,57.35,194,53.93,196.09,49.14Z"/><path class="cls-1" d="M62.84,53a31.64,31.64,0,0,0,2.9-9.57A31.64,31.64,0,0,1,62.84,53c.92,0,1.58.11,2.23.11h0C64.41,53.09,63.75,53,62.84,53Z"/><path class="cls-1" d="M60.2,197.19H14.56l-.3,0,.3,0Z"/><path class="cls-1" d="M218.57,182.46l.09-.28-.09.28q-.12.38-.27.75l-.09.23.09-.23C218.39,183,218.49,182.71,218.57,182.46Z"/><path class="cls-1" d="M216.66,186.69c.18-.32.36-.64.53-1,0-.07.07-.15.11-.22l0-.09,0,.09c0,.07-.07.15-.11.22-.17.33-.34.65-.53,1l0,.05c-.27.47-.56.92-.86,1.36.3-.44.59-.89.86-1.35Z"/><path class="cls-1" d="M221.77,189.69h-1.26C222.77,189.69,223.14,189.69,221.77,189.69Z"/><path class="cls-1" d="M219.82,175.12v.21c0,.12,0,.25,0,.37,0-.12,0-.25,0-.37Z"/><path class="cls-1" d="M198.54,152.3h0c8.94,0,16.29,5.36,19.54,13.66C214.84,157.66,207.49,152.3,198.54,152.3Z"/><path class="cls-1" d="M211.73,192.61s0,0,0,0l-.29.23.29-.23Z"/><path class="cls-1" d="M11.4,150.91a5.31,5.31,0,0,0,3.76,1.37h0A5.36,5.36,0,0,1,11.4,150.91Z"/><path class="cls-1" d="M35.92,142.32H142c9.1,0,18.2,0,27.3,0-9.1,0-18.2,0-27.29,0h-106c-6.88,0-13.77,0-20.65,0a6.43,6.43,0,0,0-1.75.25,6.41,6.41,0,0,1,1.74-.25C22.15,142.3,29,142.32,35.92,142.32Z"/><path class="cls-1" d="M40.31,152.29Z"/><path class="cls-1" d="M10.76,144.44a5.05,5.05,0,0,0-.8,2.92,4.89,4.89,0,0,0,0,.55,4.89,4.89,0,0,1,0-.55A5.05,5.05,0,0,1,10.76,144.44Z"/><path class="cls-1" d="M222,195.67v0l0,0a32.49,32.49,0,0,0,2.17-3.19.3.3,0,0,1,0-.08l0,.08A30.83,30.83,0,0,1,222,195.67Z"/><path class="cls-1" d="M226.11,188.67l-.12.3c-.21.46-.43.92-.65,1.37.22-.45.44-.91.65-1.37,0-.1.08-.2.13-.3.21-.52.43-1,.62-1.58C226.54,187.63,226.33,188.15,226.11,188.67Z"/><path class="cls-1" d="M225.05,190.9l.12-.2v0l0,0A1.28,1.28,0,0,1,225.05,190.9Z"/><path class="cls-1" d="M200.59,197.14c.36,0,.72,0,1.07-.09L202,197l.7-.1.14,0-.14,0-.69.1-.36.05q-.54.06-1.08.09c-.48,0-1,0-1.44,0h0C199.63,197.18,200.11,197.17,200.59,197.14Z"/><path class="cls-1" d="M210.13,193.83l-.14.1-.45.29.45-.29A.71.71,0,0,0,210.13,193.83Z"/><path class="cls-1" d="M208.18,195l.06,0-.06,0-.49.25-.44.21.44-.21Z"/><path class="cls-1" d="M209.38,194.33l-.28.17-.14.08.14-.08Z"/><path class="cls-1" d="M206.74,195.71l.47-.21-.46.2-.49.2L206,196l.22-.08Z"/><path class="cls-1" d="M219.72,172.74l0-.33,0,.33c0,.28.06.56.07.84,0,.13,0,.27,0,.4,0-.13,0-.27,0-.4C219.77,173.3,219.75,173,219.72,172.74Z"/><path class="cls-1" d="M213,203.41l.53-.29h0Z"/><path class="cls-1" d="M218.85,199.14c.27-.25.54-.5.81-.77a.12.12,0,0,1,.05-.05l-.05.05Z"/><path class="cls-1" d="M215,202.26l.07,0c.37-.25.74-.53,1.1-.8-.37.27-.73.55-1.11.8Z"/><path class="cls-1" d="M208.23,205.56l1-.37.16-.07-.16.07Z"/><path class="cls-1" d="M204.84,206.5c-.43.09-.85.17-1.28.24l-.46.07-.31,0,.32,0,.45-.07c.43-.07.86-.15,1.28-.24l.15,0,.36-.09-.36.09Z"/><path class="cls-1" d="M13,197.51a4.85,4.85,0,0,0-3,3.7A4.85,4.85,0,0,1,13,197.51Z"/><path class="cls-1" d="M201.52,207h0Z"/><path class="cls-1" d="M14.79,207.15h0Z"/><path class="cls-1" d="M214.6,189.69h0c.32-.4.62-.81.92-1.23C215.22,188.88,214.92,189.29,214.6,189.69Z"/><path class="cls-1" d="M214.59,189.7c-.21.26-.44.51-.66.75.22-.24.45-.49.66-.75Z"/><path class="cls-1" d="M198.85,197.19h0Z"/><path d="M178.58,26.57h0Z"/><path d="M159,19.08h1.72C160.14,19.06,159.56,19.08,159,19.08Z"/><path d="M150.16,19.08h0Z"/><path d="M214.59,189.7c-.21.26-.44.51-.66.75v0l.67-.77Z"/><path d="M215.52,188.46c-.3.42-.6.83-.92,1.23h0c.37-.46.73-.94,1.07-1.43Z"/><path d="M215.77,188.1l0,.05c.31-.46.61-.92.89-1.4C216.36,187.21,216.07,187.66,215.77,188.1Z"/><path class="cls-2" d="M15.4,197.18h0Z"/><path class="cls-2" d="M198.08,197.19h0Z"/><path class="cls-2" d="M226.11,188.67c.22-.52.43-1,.63-1.58l0-.09,0-.08c.21-.58.4-1.17.58-1.77l.12-.41q.27-.9.48-1.83c4.71-20.49-9.25-40.43-28.57-40.56q-15.09-.1-30.17-.07c-9.1,0-18.2,0-27.3,0h-106c-6.89,0-13.77,0-20.66,0a6.41,6.41,0,0,0-1.74.25,4.7,4.7,0,0,0-2.76,1.87,5.05,5.05,0,0,0-.8,2.92,4.89,4.89,0,0,0,0,.55,4.72,4.72,0,0,0,1.39,3,5.36,5.36,0,0,0,3.76,1.37H198.54c9,0,16.3,5.36,19.55,13.66a26.08,26.08,0,0,1,1.43,5.12c.07.42.12.83.17,1.25v.08l0,.33c0,.28.05.56.07.84,0,.13,0,.27,0,.4a.22.22,0,0,0,0,.08c0,.25,0,.51,0,.76,0,.1,0,.2,0,.3v.21c0,.12,0,.25,0,.37s0,.24,0,.36l0,.5-.06.72-.06.5c0,.24-.07.48-.1.72s-.06.32-.08.48-.09.48-.14.72-.07.31-.1.46l-.18.72-.12.44c-.07.25-.15.49-.22.73,0,0,0,.09-.05.13l-.09.28c-.08.25-.18.5-.27.75l-.09.23,0,.13-.33.79c-.05.1-.09.2-.13.3-.12.25-.24.5-.37.75l0,.09c0,.07-.07.15-.11.22-.17.33-.35.65-.53,1l0,.06c-.28.48-.58.94-.89,1.4l-.07.11c-.34.49-.7,1-1.07,1.43h7.17c1.37,0,1,0-1.26,0h-5.92l-.67.77c-.44.49-.9,1-1.38,1.43l-.06.06-.56.5-.19.15,0,0-.29.23-.23.19-.3.24-.51.37-.22.14a.71.71,0,0,1-.14.1l-.45.29,0,0-.11.07-.28.17-.14.08-.35.21-.37.2-.06,0-.49.25-.44.21h0l-.47.21-.49.2L206,196l-.25.1-.53.18-.47.15-.56.15-.46.12-.61.13-.29.05-.14,0-.7.1-.36.05c-.35,0-.71.07-1.07.09s-1,0-1.44,0h21.61c.43-.48.84-1,1.24-1.49h0v0a30.83,30.83,0,0,0,2.17-3.19l0-.08a.25.25,0,0,1,0-.07c.27-.46.53-.94.78-1.43a1.28,1.28,0,0,0,.11-.2l0,0s0,0,0,0,.09-.21.15-.32c.22-.45.44-.91.65-1.37Z"/><path class="cls-2" d="M198.59,197.19h-.76c-.57,0-1.16,0-1.73,0H14.56l-.3,0-.22,0a4.57,4.57,0,0,0-.83.2h-.05l-.13.06A5.16,5.16,0,0,0,10,202.36a3,3,0,0,0,0,.42,5.09,5.09,0,0,0,1.06,2.62,4.56,4.56,0,0,0,3.07,1.72,4.64,4.64,0,0,0,.65,0h35.7q74,0,148.07,0c.51,0,1,0,1.51,0l.46,0,1-.07h.09l.48-.06.7-.09.31,0,.46-.07c.43-.07.85-.15,1.28-.24l.15,0,.36-.09c.36-.09.73-.17,1.09-.27l.27-.08c.38-.1.76-.22,1.14-.34l.35-.12h0l1-.37.16-.07.16-.06c.42-.16.84-.34,1.25-.53l.07,0c.72-.33,1.43-.7,2.13-1.09l.53-.29h0l.15-.1c.38-.22.74-.45,1.11-.69l.1-.06.06,0c.38-.25.74-.53,1.11-.8a31.13,31.13,0,0,0,2.46-2s0,0,0,0,.17-.16.25-.25l.81-.77.05-.05s0,0,0,0c.34-.35.68-.72,1-1.09H198.59Z"/><path class="cls-2" d="M190.57,44.55c2.86-8.17-2.47-17.34-10.45-17.92q-.62,0-1.23-.06h-.34q-.84,0-1.68,0H62.81a29.69,29.69,0,0,1,2.93,16.85A31.64,31.64,0,0,1,62.84,53c.91,0,1.57.11,2.23.11H178.42a12.18,12.18,0,0,0,12.15-8.53Z"/><path class="cls-2" d="M48.57,63.7a5.36,5.36,0,0,0-.1,1.29,4,4,0,0,0,1.23,3l0,0c.1.09.22.17.34.26l.15.11a4.91,4.91,0,0,0,1.21.52,8.12,8.12,0,0,0,2.26.13q62.25,0,124.48,0a28.31,28.31,0,0,0,7.61-1,26.44,26.44,0,0,0,16.67-13.88,31.39,31.39,0,0,0,2.5-6.94C209.2,29,196.84,11,179.76,10.7c-9.62-.18-19.23,0-28.85,0H53.43a8.43,8.43,0,0,0-1.59.06l-.19,0a3.73,3.73,0,0,0-3.16,3.67,5.24,5.24,0,0,0,.23,2.18,3.36,3.36,0,0,0,1.34,1.68,3.86,3.86,0,0,0,1,.5,4.74,4.74,0,0,0,.65.16,13.77,13.77,0,0,0,2.49.15H159c.57,0,1.15,0,1.72,0h14.4c4.87-.34,9.47.25,13.48,2.77a18.91,18.91,0,0,1,4,3.49c5.56,6.37,7.1,13.9,4.15,22.06-.22.6-.46,1.18-.7,1.74-2.11,4.79-5.3,8.21-9.44,10a18,18,0,0,1-6.8,1.36c-12.6.13-25.19.14-37.78.13l-21.35,0H53a6.34,6.34,0,0,0-1.91.26,4.1,4.1,0,0,0-.64.27A3.54,3.54,0,0,0,48.57,63.7Z"/><path class="cls-3" d="M238.83,169.81l-.05-.26c-.15-.65-.28-1.29-.42-1.94l0-.15c-.32-1.56-.66-3.17-1.09-4.77-2.3-8.61-6.28-14.91-13.9-21.82a15.44,15.44,0,0,0,3.15-14.78c-1.84-6.15-6.79-10.17-12.61-10.24-.64,0-.95-.06-1.7-1.21a16.42,16.42,0,0,1,.69-18.84,1.33,1.33,0,0,1,.45-.2c8.12-.48,13.93-6.89,13.8-15.25S221,65.88,212.86,65.85H206.8C215.5,55,218,42.46,214.12,28.53c-4.31-15.62-14.32-25-29.75-28a31.82,31.82,0,0,0-6-.49C139.86,0,98.84,0,53,0A14.17,14.17,0,0,0,42.22,4.64a15.23,15.23,0,0,0-3.7,10.52c.13,8,5.93,14.27,13.48,14.5.5,0,.65,0,1.15.72a16.49,16.49,0,0,1-.31,19.2,1.79,1.79,0,0,1-.34.34C47.2,50.58,43.34,52.65,41,56c-1.84,2.72-2.64,6.23-2.36,10.46C24,70,14.43,79.34,10.28,94.32,6.48,108.06,9,120.6,17.65,131.69h-1a23.21,23.21,0,0,0-5.27.43C4.13,133.8-.71,141.05.09,149S7,162.81,14.22,162.86c.75,0,1.12.1,1.83,1.11,4.61,6.59,4.4,16.08-.51,22.08a1.76,1.76,0,0,1-.78.43c-8.62.36-14.82,7-14.73,15.89S6.49,217.8,15.19,217.8H198.27c20.83,0,36.57-14.53,40.15-36.95.07-.15.14-.3.2-.45l.23-.57ZM50.45,61.12a4.1,4.1,0,0,1,.64-.27A6.34,6.34,0,0,1,53,60.59h67.72l21.35,0c12.59,0,25.18,0,37.78-.13a18,18,0,0,0,6.8-1.36c4.14-1.76,7.33-5.18,9.44-10,.24-.56.48-1.14.7-1.74,3-8.16,1.41-15.69-4.15-22.06a18.91,18.91,0,0,0-4-3.49c-4-2.52-8.61-3.11-13.47-2.77H54.24a13.77,13.77,0,0,1-2.49-.15,4.74,4.74,0,0,1-.65-.16,3.86,3.86,0,0,1-1-.5,3.36,3.36,0,0,1-1.34-1.68,5.24,5.24,0,0,1-.23-2.18,3.73,3.73,0,0,1,3.16-3.67l.19,0a8.43,8.43,0,0,1,1.59-.06h97.48c9.62,0,19.23-.13,28.85,0C196.84,11,209.2,29,205,47.14a31.39,31.39,0,0,1-2.5,6.94A26.44,26.44,0,0,1,185.78,68a28.31,28.31,0,0,1-7.61,1q-62.23,0-124.48,0a8.12,8.12,0,0,1-2.26-.13,4.91,4.91,0,0,1-1.21-.52l-.15-.11c-.12-.09-.24-.17-.34-.26l0,0a4,4,0,0,1-1.23-3,5.36,5.36,0,0,1,.1-1.29A3.51,3.51,0,0,1,50.45,61.12Zm128-8H65.07c-.65,0-1.31-.07-2.23-.11a31.64,31.64,0,0,0,2.9-9.57,29.69,29.69,0,0,0-2.93-16.85H176.87q.84,0,1.68,0h.34c.41,0,.82,0,1.23.05,8,.59,13.32,9.76,10.46,17.93a12.21,12.21,0,0,1-12.16,8.53ZM45.71,76.5q83.22,0,166.44,0a14.06,14.06,0,0,1,1.59,0,3.9,3.9,0,0,1,3.44,3.92,4,4,0,0,1-3,4.32,13,13,0,0,1-2.72.14H48c-1.14,0-2.28,0-3.41,0-9.09.33-16.95,8.12-18.17,18s4.32,19.42,13,22.47l2.24.8.12,0a14.79,14.79,0,0,0,2.26.17c40,0,127.88,0,167.84,0a10.61,10.61,0,0,1,2.26.12,4,4,0,0,1,3.08,4.29,3.92,3.92,0,0,1-3.4,4,13.87,13.87,0,0,1-2,.05H41.63l-.92-.29c-.23-.06-.68-.25-1-.32-.58-.14-1.16-.31-1.72-.49l-.81-.3c-.29-.1-.58-.2-.87-.32s-.59-.26-.89-.39l-.74-.34-.89-.47c-.23-.13-.47-.24-.7-.38l-.86-.53-.67-.42-.82-.58-.65-.48c-.26-.2-.51-.41-.76-.62l-.65-.54-.71-.65-.64-.61c-.21-.21-.42-.44-.63-.66s-.43-.45-.64-.69-.37-.44-.56-.66l-.63-.77-.49-.66c-.21-.28-.42-.57-.62-.86s-.28-.42-.41-.63-.41-.64-.61-1-.23-.39-.34-.59c-.2-.36-.4-.71-.58-1.08-.1-.18-.19-.36-.28-.55-.19-.39-.37-.79-.55-1.19-.07-.16-.14-.33-.2-.49-.18-.44-.36-.88-.52-1.32-.05-.14-.09-.28-.14-.41s-.17-.46-.24-.7l-.27-.94q-.27-1-.48-2c-.08-.39-.15-.78-.21-1.18-.12-.79-.22-1.58-.28-2.39,0-.4-.05-.81-.07-1.21C18,90.21,30.12,76.5,45.71,76.5Zm157,42.22c-37.63,0-122.91-.63-160.25-.63h-.81a10.87,10.87,0,0,1-5.87-4.1l0,0c-.18-.24-.35-.49-.51-.74l-.06-.09c-.15-.24-.3-.48-.43-.73l-.09-.17c-.12-.22-.24-.45-.34-.68l-.11-.26c-.09-.21-.19-.42-.27-.64s-.07-.23-.11-.35-.14-.38-.2-.57l-.12-.47-.12-.48c0-.19-.07-.39-.1-.59s-.05-.25-.07-.38c0-.32-.08-.65-.1-1-.48-8.13,5-14.41,12.7-14.42q77.55,0,155.09,0a18.42,18.42,0,0,1,1.87.22C198.52,101.44,198.7,110.1,202.69,118.72Zm9.85,60c-.11.42-.22.83-.36,1.23-.05.17-.12.33-.18.5s-.16.45-.25.66-.19.42-.29.62-.15.33-.23.48-.25.46-.39.69-.13.23-.2.35-.33.49-.5.73c-.06.07-.11.16-.16.23-.2.26-.4.51-.61.75l-.13.15c-.23.26-.47.5-.72.74l-.08.08c-.27.25-.55.49-.83.72l0,0a14.43,14.43,0,0,1-8.91,3H25.39A34.17,34.17,0,0,0,27.14,186a32.22,32.22,0,0,0,1.23-3.71c0-.13.05-.27.09-.4.12-.49.23-1,.33-1.48l.06-.38a31,31,0,0,0,.48-5.39,31.57,31.57,0,0,0-3.78-14.73H41.63v-.16H197.84c.69,0,1.37,0,2,0C208.65,160.29,214.81,169.52,212.54,178.73ZM226,189c-.21.46-.43.92-.65,1.37-.06.11-.1.22-.15.32s0,0,0,0v0l-.12.2c-.25.49-.51,1-.78,1.43a.25.25,0,0,0,0,.07.3.3,0,0,0,0,.08,32.49,32.49,0,0,1-2.17,3.19l0,0h0c-.4.51-.81,1-1.24,1.49h0c-.33.37-.67.74-1,1.09,0,0,0,0,0,0a.12.12,0,0,0-.05.05c-.27.27-.54.52-.81.77-.08.09-.17.17-.25.25s0,0,0,0a31.13,31.13,0,0,1-2.46,2c-.36.27-.73.55-1.1.8l-.07,0-.1.06c-.37.24-.73.47-1.11.69l-.15.1h0l-.53.29c-.7.39-1.41.76-2.13,1.09l-.07,0c-.41.19-.83.37-1.25.53l-.16.06-.16.07-1,.37h0l-.35.12c-.38.12-.76.24-1.14.34l-.27.08c-.36.1-.73.18-1.09.27l-.36.09-.15,0c-.42.09-.85.17-1.28.24l-.45.07-.32,0-.7.09-.48.06h-.09l-1,.07-.46,0c-.5,0-1,0-1.51,0q-74,0-148.07,0H14.79a4.64,4.64,0,0,1-.65,0,4.56,4.56,0,0,1-3.07-1.72A5.09,5.09,0,0,1,10,202.78a3,3,0,0,1,0-.42A5.16,5.16,0,0,1,13,197.51l.13-.06h.05a4.57,4.57,0,0,1,.83-.2l.22,0,.3,0H196.1c.57,0,1.16,0,1.73,0h1.32c.48,0,1,0,1.44,0s.72,0,1.08-.09L202,197l.69-.1.14,0,.29-.05.61-.13.46-.12.56-.15.47-.15.53-.18.25-.1.23-.09.49-.2.46-.2h0l.44-.21.49-.25.06,0,.37-.2.35-.21.14-.08.28-.17.11-.07,0,0,.45-.29.14-.1.22-.14.51-.37.3-.24.23-.19.29-.23s0,0,0,0l.19-.15.56-.5.06-.06c.48-.45.94-.94,1.38-1.43v0c.22-.24.45-.49.66-.75h0c.32-.4.62-.81.92-1.23l.15-.2.07-.11,0-.05c.3-.44.59-.89.86-1.36l0-.05c.19-.32.36-.64.53-1,0-.07.07-.15.11-.22l0-.09c.13-.25.25-.5.37-.75,0-.1.08-.2.13-.3l.33-.79,0-.13.09-.23q.15-.37.27-.75l.09-.28s0-.08.05-.13c.07-.24.15-.48.22-.73l.12-.44.18-.72c0-.15.07-.31.1-.46s.09-.48.14-.72.05-.32.08-.48.07-.48.1-.72l.06-.5.06-.72,0-.5c0-.12,0-.24,0-.36s0-.25,0-.37v-.21c0-.1,0-.2,0-.3,0-.25,0-.51,0-.76a.22.22,0,0,1,0-.08c0-.13,0-.27,0-.4,0-.28,0-.56-.07-.84l0-.33v-.08c-.05-.42-.1-.83-.17-1.25a26.08,26.08,0,0,0-1.43-5.12c-3.25-8.3-10.6-13.65-19.54-13.66H15.16a5.31,5.31,0,0,1-3.76-1.37,4.72,4.72,0,0,1-1.39-3,4.89,4.89,0,0,1,0-.55,5.05,5.05,0,0,1,.8-2.92,4.7,4.7,0,0,1,2.76-1.87,6.43,6.43,0,0,1,1.75-.25c6.88,0,13.77,0,20.65,0H142c9.09,0,18.19,0,27.29,0q15.08,0,30.17.07c19.32.13,33.28,20.07,28.57,40.56q-.21.93-.48,1.83l-.12.41c-.18.6-.37,1.19-.58,1.77l0,.08,0,.09c-.19.53-.41,1.06-.62,1.58C226.07,188.77,226,188.87,226,189Z"/><path class="cls-2" d="M199.89,159.8c-.68,0-1.36,0-2,0H41.63v.16H25.55a31.57,31.57,0,0,1,3.78,14.73,31,31,0,0,1-.48,5.39l-.06.38c-.1.5-.21,1-.33,1.48,0,.13-.06.27-.09.4A32.22,32.22,0,0,1,27.14,186a34.17,34.17,0,0,1-1.75,3.68H198.66a14.43,14.43,0,0,0,8.91-3l0,0c.28-.23.56-.47.83-.72l.08-.08c.25-.24.49-.48.72-.74l.13-.15c.21-.24.41-.49.61-.75.05-.07.1-.16.16-.23.17-.24.34-.48.5-.73s.13-.24.2-.35.27-.45.39-.69.15-.32.23-.48.2-.4.29-.62.17-.44.25-.66.13-.33.18-.5c.14-.4.25-.81.36-1.23C214.81,169.52,208.65,160.29,199.89,159.8Z"/><path class="cls-4" d="M18.67,108.35c.06.81.16,1.6.28,2.39.06.4.13.79.21,1.18q.21,1,.48,2c.15.55.33,1.1.51,1.64.05.13.09.27.14.41.16.44.34.88.52,1.32.06.16.13.33.2.49.18.4.36.8.55,1.19.09.19.18.37.28.55.18.37.38.72.58,1.08.11.2.22.4.34.59s.4.65.61,1,.27.42.41.63.41.58.62.86l.49.66.63.77c.19.22.37.45.56.66s.43.46.64.69.42.45.63.66l.64.61.71.65.65.54c.25.21.5.42.76.62l.65.48.82.58.67.42.86.53c.23.14.47.25.7.38l.89.47.74.34c.3.13.59.27.89.39s.58.22.87.32l.81.3c.56.18,1.14.35,1.72.49.3.07.75.26,1,.32l.92.29H211.74a13.87,13.87,0,0,0,2-.05,3.92,3.92,0,0,0,3.4-4,4,4,0,0,0-3.08-4.29,10.61,10.61,0,0,0-2.26-.12c-40,0-127.88,0-167.84,0a14.79,14.79,0,0,1-2.26-.17l-.12,0-2.24-.8c-8.69-3-14.24-12.62-13-22.47s9.08-17.66,18.17-18c1.13,0,2.27,0,3.41,0H211.43a13,13,0,0,0,2.72-.14,4,4,0,0,0,3-4.32,3.9,3.9,0,0,0-3.44-3.92,14.06,14.06,0,0,0-1.59,0q-83.22,0-166.44,0C30.12,76.5,18,90.21,18.6,107.14,18.62,107.54,18.64,108,18.67,108.35Z"/><path class="cls-2" d="M200.89,92.39q-77.55,0-155.09,0c-7.74,0-13.18,6.29-12.7,14.42,0,.33.06.66.1,1,0,.13,0,.25.07.38s.06.4.1.59l.12.48.12.47c.06.19.13.38.2.57s.07.24.11.35.18.43.27.64l.11.26c.1.23.22.46.34.68l.09.17c.13.25.28.49.43.73l.06.09c.16.25.33.5.51.74l0,0a10.87,10.87,0,0,0,5.87,4.1h0v-3h.1c0,1,0,2,0,3h.66c37.34,0,122.62.63,160.25.63-4-8.62-4.17-17.28.07-26.11A18.42,18.42,0,0,0,200.89,92.39Zm-89,22c-6.59,0-13.17,0-19.76,0H90.41v0H41.73c0-1.06,0-2.12,0-3.18,0-2.9,1.26-4.26,3.92-4.27q33.15,0,66.3,0c2.51,0,3.93,1.43,3.91,3.75S114.42,114.32,111.91,114.34Z"/><path class="cls-3" d="M112,106.88q-33.15,0-66.3,0c-2.66,0-3.87,1.37-3.92,4.27,0,1.06,0,2.12,0,3.18H90.41v0h1.74c6.59,0,13.17,0,19.76,0,2.51,0,4-1.43,4-3.71S114.48,106.88,112,106.88Z"/><path class="cls-3" d="M82.1,114.31v51.34l-3.43-1.93c-3.48-1.95-6.77-3.79-10.07-5.75a5.2,5.2,0,0,0-5.84,0c-3.3,1.95-6.58,3.79-10,5.74l-3.45,2V114.31H41.77c0,1,0,2,0,3.08l-.11,0V159.2h.1c0,4.22,0,8.28,0,12.34,0,4.5,2.26,6,5.88,4,5.38-3,10.77-6,16.1-9.17a3.2,3.2,0,0,1,3.74,0c5.32,3.15,10.72,6.16,16.1,9.18,3.68,2.07,5.91.6,5.94-3.88,0-4.13,0-8.26,0-12.59h.07V114.31Z"/><path class="cls-4" d="M52.71,163.7c3.47-1.95,6.75-3.79,10-5.74a5.2,5.2,0,0,1,5.84,0c3.3,2,6.59,3.8,10.07,5.75l3.43,1.93V114.31H49.26v51.34Z"/></g></g></svg>