{
	"asset":{
		"generator":"Khronos glTF Blender I/O v3.5.30",
		"version":"2.0"
	},
	"extensionsUsed":[
		"KHR_materials_unlit"
	],
	"scene":0,
	"scenes":[
		{
			"name":"Scene",
			"nodes":[
				32
			]
		}
	],
	"nodes":[
		{
			"mesh":0,
			"name":"Bag_low_lambert1_0"
		},
		{
			"children":[
				0
			],
			"name":"Bag_low"
		},
		{
			"mesh":1,
			"name":"Bread1_low_lambert1_0"
		},
		{
			"children":[
				2
			],
			"name":"Bread1_low"
		},
		{
			"mesh":2,
			"name":"Bread2_low_lambert1_0"
		},
		{
			"children":[
				4
			],
			"name":"Bread2_low"
		},
		{
			"mesh":3,
			"name":"Bread3_low_lambert1_0"
		},
		{
			"children":[
				6
			],
			"name":"Bread3_low"
		},
		{
			"mesh":4,
			"name":"Bread4_low_lambert1_0"
		},
		{
			"children":[
				8
			],
			"name":"Bread4_low"
		},
		{
			"mesh":5,
			"name":"Bread5_low_lambert1_0"
		},
		{
			"children":[
				10
			],
			"name":"Bread5_low"
		},
		{
			"mesh":6,
			"name":"Bread6_low_lambert1_0"
		},
		{
			"children":[
				12
			],
			"name":"Bread6_low"
		},
		{
			"mesh":7,
			"name":"pCube2_lambert2_0"
		},
		{
			"children":[
				14
			],
			"name":"pCube2"
		},
		{
			"mesh":8,
			"name":"pPlatonic10_lambert2_0"
		},
		{
			"children":[
				16
			],
			"name":"pPlatonic10"
		},
		{
			"mesh":9,
			"name":"pPlatonic11_lambert2_0"
		},
		{
			"children":[
				18
			],
			"name":"pPlatonic11"
		},
		{
			"mesh":10,
			"name":"pPlatonic12_lambert2_0"
		},
		{
			"children":[
				20
			],
			"name":"pPlatonic12"
		},
		{
			"mesh":11,
			"name":"pPlatonic13_lambert2_0"
		},
		{
			"children":[
				22
			],
			"name":"pPlatonic13"
		},
		{
			"mesh":12,
			"name":"pPlatonic14_lambert2_0"
		},
		{
			"children":[
				24
			],
			"name":"pPlatonic14"
		},
		{
			"mesh":13,
			"name":"pPlatonic9_lambert2_0"
		},
		{
			"children":[
				26
			],
			"name":"pPlatonic9"
		},
		{
			"children":[
				15,
				17,
				19,
				21,
				23,
				25,
				27
			],
			"name":"Outline"
		},
		{
			"children":[
				1,
				3,
				5,
				7,
				9,
				11,
				13,
				28
			],
			"name":"Lowpoly"
		},
		{
			"children":[
				29
			],
			"name":"RootNode"
		},
		{
			"children":[
				30
			],
			"name":"5c280c49dc2c4620bd1158aaa4711237.fbx"
		},
		{
			"children":[
				31
			],
			"name":"Sketchfab_model"
		}
	],
	"materials":[
		{
			"doubleSided":true,
			"extensions":{
				"KHR_materials_unlit":{}
			},
			"name":"lambert1",
			"pbrMetallicRoughness":{
				"baseColorTexture":{
					"index":0,
					"texCoord":0
				},
				"metallicFactor":0,
				"roughnessFactor":0.9
			}
		},
		{
			"extensions":{
				"KHR_materials_unlit":{}
			},
			"name":"lambert2",
			"pbrMetallicRoughness":{
				"baseColorTexture":{
					"index":1,
					"texCoord":0
				},
				"metallicFactor":0,
				"roughnessFactor":0.9
			}
		}
	],
	"meshes":[
		{
			"name":"Bag_low_lambert1_0",
			"primitives":[
				{
					"attributes":{
						"POSITION":0,
						"TEXCOORD_0":1,
						"NORMAL":2
					},
					"indices":3,
					"material":0
				}
			]
		},
		{
			"name":"Bread1_low_lambert1_0",
			"primitives":[
				{
					"attributes":{
						"POSITION":4,
						"TEXCOORD_0":5,
						"NORMAL":6
					},
					"indices":7,
					"material":0
				}
			]
		},
		{
			"name":"Bread2_low_lambert1_0",
			"primitives":[
				{
					"attributes":{
						"POSITION":8,
						"TEXCOORD_0":9,
						"NORMAL":10
					},
					"indices":7,
					"material":0
				}
			]
		},
		{
			"name":"Bread3_low_lambert1_0",
			"primitives":[
				{
					"attributes":{
						"POSITION":11,
						"TEXCOORD_0":12,
						"NORMAL":13
					},
					"indices":7,
					"material":0
				}
			]
		},
		{
			"name":"Bread4_low_lambert1_0",
			"primitives":[
				{
					"attributes":{
						"POSITION":14,
						"TEXCOORD_0":15,
						"NORMAL":16
					},
					"indices":7,
					"material":0
				}
			]
		},
		{
			"name":"Bread5_low_lambert1_0",
			"primitives":[
				{
					"attributes":{
						"POSITION":17,
						"TEXCOORD_0":18,
						"NORMAL":19
					},
					"indices":7,
					"material":0
				}
			]
		},
		{
			"name":"Bread6_low_lambert1_0",
			"primitives":[
				{
					"attributes":{
						"POSITION":20,
						"TEXCOORD_0":21,
						"NORMAL":22
					},
					"indices":7,
					"material":0
				}
			]
		},
		{
			"name":"pCube2_lambert2_0",
			"primitives":[
				{
					"attributes":{
						"POSITION":23,
						"TEXCOORD_0":24,
						"NORMAL":25
					},
					"indices":26,
					"material":1
				}
			]
		},
		{
			"name":"pPlatonic10_lambert2_0",
			"primitives":[
				{
					"attributes":{
						"POSITION":27,
						"TEXCOORD_0":28,
						"NORMAL":29
					},
					"indices":30,
					"material":1
				}
			]
		},
		{
			"name":"pPlatonic11_lambert2_0",
			"primitives":[
				{
					"attributes":{
						"POSITION":31,
						"TEXCOORD_0":32,
						"NORMAL":33
					},
					"indices":30,
					"material":1
				}
			]
		},
		{
			"name":"pPlatonic12_lambert2_0",
			"primitives":[
				{
					"attributes":{
						"POSITION":34,
						"TEXCOORD_0":35,
						"NORMAL":36
					},
					"indices":30,
					"material":1
				}
			]
		},
		{
			"name":"pPlatonic13_lambert2_0",
			"primitives":[
				{
					"attributes":{
						"POSITION":37,
						"TEXCOORD_0":38,
						"NORMAL":39
					},
					"indices":30,
					"material":1
				}
			]
		},
		{
			"name":"pPlatonic14_lambert2_0",
			"primitives":[
				{
					"attributes":{
						"POSITION":40,
						"TEXCOORD_0":41,
						"NORMAL":42
					},
					"indices":30,
					"material":1
				}
			]
		},
		{
			"name":"pPlatonic9_lambert2_0",
			"primitives":[
				{
					"attributes":{
						"POSITION":43,
						"TEXCOORD_0":44,
						"NORMAL":45
					},
					"indices":30,
					"material":1
				}
			]
		}
	],
	"textures":[
		{
			"sampler":0,
			"source":0
		},
		{
			"sampler":0,
			"source":1
		}
	],
	"images":[
		{
			"bufferView":4,
			"mimeType":"image/png",
			"name":"lambert1_baseColor"
		},
		{
			"bufferView":28,
			"mimeType":"image/jpeg",
			"name":"lambert2_baseColor"
		}
	],
	"accessors":[
		{
			"bufferView":0,
			"componentType":5126,
			"count":306,
			"max":[
				17.9977970123291,
				25.975927352905273,
				9.183027267456055
			],
			"min":[
				-21.7687931060791,
				-10.912040710449219,
				-18.4735107421875
			],
			"type":"VEC3"
		},
		{
			"bufferView":1,
			"componentType":5126,
			"count":306,
			"type":"VEC2"
		},
		{
			"bufferView":2,
			"componentType":5126,
			"count":306,
			"type":"VEC3"
		},
		{
			"bufferView":3,
			"componentType":5123,
			"count":1038,
			"type":"SCALAR"
		},
		{
			"bufferView":5,
			"componentType":5126,
			"count":158,
			"max":[
				10.77772045135498,
				32.46392059326172,
				4.504879474639893
			],
			"min":[
				-5.460356712341309,
				7.414705753326416,
				-5.956150054931641
			],
			"type":"VEC3"
		},
		{
			"bufferView":6,
			"componentType":5126,
			"count":158,
			"type":"VEC2"
		},
		{
			"bufferView":7,
			"componentType":5126,
			"count":158,
			"type":"VEC3"
		},
		{
			"bufferView":8,
			"componentType":5123,
			"count":768,
			"type":"SCALAR"
		},
		{
			"bufferView":9,
			"componentType":5126,
			"count":158,
			"max":[
				16.962337493896484,
				26.737865447998047,
				1.5288658142089844
			],
			"min":[
				0.10750198364257812,
				3.950335741043091,
				-11.192397117614746
			],
			"type":"VEC3"
		},
		{
			"bufferView":10,
			"componentType":5126,
			"count":158,
			"type":"VEC2"
		},
		{
			"bufferView":11,
			"componentType":5126,
			"count":158,
			"type":"VEC3"
		},
		{
			"bufferView":12,
			"componentType":5126,
			"count":158,
			"max":[
				1.6081302165985107,
				31.61309242248535,
				-2.6422040462493896
			],
			"min":[
				-10.275811195373535,
				5.166092395782471,
				-14.625174522399902
			],
			"type":"VEC3"
		},
		{
			"bufferView":13,
			"componentType":5126,
			"count":158,
			"type":"VEC2"
		},
		{
			"bufferView":14,
			"componentType":5126,
			"count":158,
			"type":"VEC3"
		},
		{
			"bufferView":15,
			"componentType":5126,
			"count":158,
			"max":[
				7.634807109832764,
				24.850589752197266,
				1.7640057802200317
			],
			"min":[
				-5.623488426208496,
				-0.19914346933364868,
				-12.083474159240723
			],
			"type":"VEC3"
		},
		{
			"bufferView":16,
			"componentType":5126,
			"count":158,
			"type":"VEC2"
		},
		{
			"bufferView":17,
			"componentType":5126,
			"count":158,
			"type":"VEC3"
		},
		{
			"bufferView":18,
			"componentType":5126,
			"count":158,
			"max":[
				-2.734987735748291,
				25.02370834350586,
				2.3184196949005127
			],
			"min":[
				-11.688364028930664,
				1.6944725513458252,
				-6.485021591186523
			],
			"type":"VEC3"
		},
		{
			"bufferView":19,
			"componentType":5126,
			"count":158,
			"type":"VEC2"
		},
		{
			"bufferView":20,
			"componentType":5126,
			"count":158,
			"type":"VEC3"
		},
		{
			"bufferView":21,
			"componentType":5126,
			"count":158,
			"max":[
				12.019584655761719,
				19.991647720336914,
				6.66253662109375
			],
			"min":[
				-1.5576598644256592,
				-0.9689601063728333,
				-2.828742742538452
			],
			"type":"VEC3"
		},
		{
			"bufferView":22,
			"componentType":5126,
			"count":158,
			"type":"VEC2"
		},
		{
			"bufferView":23,
			"componentType":5126,
			"count":158,
			"type":"VEC3"
		},
		{
			"bufferView":24,
			"componentType":5126,
			"count":306,
			"max":[
				18.960895538330078,
				26.806652069091797,
				9.809126853942871
			],
			"min":[
				-22.671958923339844,
				-11.689905166625977,
				-19.558359146118164
			],
			"type":"VEC3"
		},
		{
			"bufferView":25,
			"componentType":5126,
			"count":306,
			"type":"VEC2"
		},
		{
			"bufferView":26,
			"componentType":5126,
			"count":306,
			"type":"VEC3"
		},
		{
			"bufferView":27,
			"componentType":5123,
			"count":1038,
			"type":"SCALAR"
		},
		{
			"bufferView":29,
			"componentType":5126,
			"count":158,
			"max":[
				-2.1505990028381348,
				25.6795654296875,
				2.911590099334717
			],
			"min":[
				-12.271581649780273,
				1.0388202667236328,
				-7.0788421630859375
			],
			"type":"VEC3"
		},
		{
			"bufferView":30,
			"componentType":5126,
			"count":158,
			"type":"VEC2"
		},
		{
			"bufferView":31,
			"componentType":5126,
			"count":158,
			"type":"VEC3"
		},
		{
			"bufferView":32,
			"componentType":5123,
			"count":768,
			"type":"SCALAR"
		},
		{
			"bufferView":33,
			"componentType":5126,
			"count":158,
			"max":[
				12.23273754119873,
				20.587478637695312,
				7.057838439941406
			],
			"min":[
				-2.05029296875,
				-1.5838489532470703,
				-3.256779670715332
			],
			"type":"VEC3"
		},
		{
			"bufferView":34,
			"componentType":5126,
			"count":158,
			"type":"VEC2"
		},
		{
			"bufferView":35,
			"componentType":5126,
			"count":158,
			"type":"VEC3"
		},
		{
			"bufferView":36,
			"componentType":5126,
			"count":158,
			"max":[
				2.1718482971191406,
				32.356834411621094,
				-2.0746936798095703
			],
			"min":[
				-10.839717864990234,
				4.423064231872559,
				-15.192642211914062
			],
			"type":"VEC3"
		},
		{
			"bufferView":37,
			"componentType":5126,
			"count":158,
			"type":"VEC2"
		},
		{
			"bufferView":38,
			"componentType":5126,
			"count":158,
			"type":"VEC3"
		},
		{
			"bufferView":39,
			"componentType":5126,
			"count":158,
			"max":[
				8.124526023864746,
				25.260780334472656,
				2.2642998695373535
			],
			"min":[
				-6.114919662475586,
				-0.4806976318359375,
				-12.409270286560059
			],
			"type":"VEC3"
		},
		{
			"bufferView":40,
			"componentType":5126,
			"count":158,
			"type":"VEC2"
		},
		{
			"bufferView":41,
			"componentType":5126,
			"count":158,
			"type":"VEC3"
		},
		{
			"bufferView":42,
			"componentType":5126,
			"count":158,
			"max":[
				17.66561508178711,
				27.574674606323242,
				1.5838074684143066
			],
			"min":[
				0.05452919006347656,
				4.059353828430176,
				-11.817140579223633
			],
			"type":"VEC3"
		},
		{
			"bufferView":43,
			"componentType":5126,
			"count":158,
			"type":"VEC2"
		},
		{
			"bufferView":44,
			"componentType":5126,
			"count":158,
			"type":"VEC3"
		},
		{
			"bufferView":45,
			"componentType":5126,
			"count":158,
			"max":[
				11.417232513427734,
				33.207916259765625,
				4.702189922332764
			],
			"min":[
				-6.102360725402832,
				6.672055244445801,
				-6.573540210723877
			],
			"type":"VEC3"
		},
		{
			"bufferView":46,
			"componentType":5126,
			"count":158,
			"type":"VEC2"
		},
		{
			"bufferView":47,
			"componentType":5126,
			"count":158,
			"type":"VEC3"
		}
	],
	"bufferViews":[
		{
			"buffer":0,
			"byteLength":3672,
			"byteOffset":0,
			"target":34962
		},
		{
			"buffer":0,
			"byteLength":2448,
			"byteOffset":3672,
			"target":34962
		},
		{
			"buffer":0,
			"byteLength":3672,
			"byteOffset":6120,
			"target":34962
		},
		{
			"buffer":0,
			"byteLength":2076,
			"byteOffset":9792,
			"target":34963
		},
		{
			"buffer":0,
			"byteLength":1408997,
			"byteOffset":11868
		},
		{
			"buffer":0,
			"byteLength":1896,
			"byteOffset":1420868,
			"target":34962
		},
		{
			"buffer":0,
			"byteLength":1264,
			"byteOffset":1422764,
			"target":34962
		},
		{
			"buffer":0,
			"byteLength":1896,
			"byteOffset":1424028,
			"target":34962
		},
		{
			"buffer":0,
			"byteLength":1536,
			"byteOffset":1425924,
			"target":34963
		},
		{
			"buffer":0,
			"byteLength":1896,
			"byteOffset":1427460,
			"target":34962
		},
		{
			"buffer":0,
			"byteLength":1264,
			"byteOffset":1429356,
			"target":34962
		},
		{
			"buffer":0,
			"byteLength":1896,
			"byteOffset":1430620,
			"target":34962
		},
		{
			"buffer":0,
			"byteLength":1896,
			"byteOffset":1432516,
			"target":34962
		},
		{
			"buffer":0,
			"byteLength":1264,
			"byteOffset":1434412,
			"target":34962
		},
		{
			"buffer":0,
			"byteLength":1896,
			"byteOffset":1435676,
			"target":34962
		},
		{
			"buffer":0,
			"byteLength":1896,
			"byteOffset":1437572,
			"target":34962
		},
		{
			"buffer":0,
			"byteLength":1264,
			"byteOffset":1439468,
			"target":34962
		},
		{
			"buffer":0,
			"byteLength":1896,
			"byteOffset":1440732,
			"target":34962
		},
		{
			"buffer":0,
			"byteLength":1896,
			"byteOffset":1442628,
			"target":34962
		},
		{
			"buffer":0,
			"byteLength":1264,
			"byteOffset":1444524,
			"target":34962
		},
		{
			"buffer":0,
			"byteLength":1896,
			"byteOffset":1445788,
			"target":34962
		},
		{
			"buffer":0,
			"byteLength":1896,
			"byteOffset":1447684,
			"target":34962
		},
		{
			"buffer":0,
			"byteLength":1264,
			"byteOffset":1449580,
			"target":34962
		},
		{
			"buffer":0,
			"byteLength":1896,
			"byteOffset":1450844,
			"target":34962
		},
		{
			"buffer":0,
			"byteLength":3672,
			"byteOffset":1452740,
			"target":34962
		},
		{
			"buffer":0,
			"byteLength":2448,
			"byteOffset":1456412,
			"target":34962
		},
		{
			"buffer":0,
			"byteLength":3672,
			"byteOffset":1458860,
			"target":34962
		},
		{
			"buffer":0,
			"byteLength":2076,
			"byteOffset":1462532,
			"target":34963
		},
		{
			"buffer":0,
			"byteLength":49440,
			"byteOffset":1464608
		},
		{
			"buffer":0,
			"byteLength":1896,
			"byteOffset":1514048,
			"target":34962
		},
		{
			"buffer":0,
			"byteLength":1264,
			"byteOffset":1515944,
			"target":34962
		},
		{
			"buffer":0,
			"byteLength":1896,
			"byteOffset":1517208,
			"target":34962
		},
		{
			"buffer":0,
			"byteLength":1536,
			"byteOffset":1519104,
			"target":34963
		},
		{
			"buffer":0,
			"byteLength":1896,
			"byteOffset":1520640,
			"target":34962
		},
		{
			"buffer":0,
			"byteLength":1264,
			"byteOffset":1522536,
			"target":34962
		},
		{
			"buffer":0,
			"byteLength":1896,
			"byteOffset":1523800,
			"target":34962
		},
		{
			"buffer":0,
			"byteLength":1896,
			"byteOffset":1525696,
			"target":34962
		},
		{
			"buffer":0,
			"byteLength":1264,
			"byteOffset":1527592,
			"target":34962
		},
		{
			"buffer":0,
			"byteLength":1896,
			"byteOffset":1528856,
			"target":34962
		},
		{
			"buffer":0,
			"byteLength":1896,
			"byteOffset":1530752,
			"target":34962
		},
		{
			"buffer":0,
			"byteLength":1264,
			"byteOffset":1532648,
			"target":34962
		},
		{
			"buffer":0,
			"byteLength":1896,
			"byteOffset":1533912,
			"target":34962
		},
		{
			"buffer":0,
			"byteLength":1896,
			"byteOffset":1535808,
			"target":34962
		},
		{
			"buffer":0,
			"byteLength":1264,
			"byteOffset":1537704,
			"target":34962
		},
		{
			"buffer":0,
			"byteLength":1896,
			"byteOffset":1538968,
			"target":34962
		},
		{
			"buffer":0,
			"byteLength":1896,
			"byteOffset":1540864,
			"target":34962
		},
		{
			"buffer":0,
			"byteLength":1264,
			"byteOffset":1542760,
			"target":34962
		},
		{
			"buffer":0,
			"byteLength":1896,
			"byteOffset":1544024,
			"target":34962
		}
	],
	"samplers":[
		{
			"magFilter":9729,
			"minFilter":9987
		}
	],
	"buffers":[
		{
			"byteLength":1545920,
			"uri":"data:application/octet-stream;base64,"
		}
	]
}
