{
	"asset":{
		"generator":"Khronos glTF Blender I/O v3.5.30",
		"version":"2.0"
	},
	"extensionsUsed":[
		"KHR_materials_specular",
		"KHR_materials_ior"
	],
	"scene":0,
	"scenes":[
		{
			"name":"Scene",
			"nodes":[
				0
			]
		}
	],
	"nodes":[
		{
			"mesh":0,
			"name":"gg",
			"rotation":[
				0.7071068286895752,
				0,
				0,
				0.7071068286895752
			]
		}
	],
	"materials":[
		{
			"doubleSided":true,
			"extensions":{
				"KHR_materials_specular":{
					"specularColorFactor":[
						0,
						0,
						0
					]
				},
				"KHR_materials_ior":{
					"ior":1.4500000476837158
				}
			},
			"name":"aiStandardSurface2SG.002",
			"pbrMetallicRoughness":{
				"baseColorFactor":[
					0.800000011920929,
					0.800000011920929,
					0.800000011920929,
					1
				],
				"metallicFactor":0
			}
		}
	],
	"meshes":[
		{
			"name":"gg.002",
			"primitives":[
				{
					"attributes":{
						"POSITION":0,
						"TEXCOORD_0":1,
						"NORMAL":2
					},
					"indices":3,
					"material":0
				}
			]
		}
	],
	"accessors":[
		{
			"bufferView":0,
			"componentType":5126,
			"count":30914,
			"max":[
				5.944924831390381,
				9.636459350585938,
				0.023881999775767326
			],
			"min":[
				-5.603240966796875,
				-14.14907455444336,
				-17.77733612060547
			],
			"type":"VEC3"
		},
		{
			"bufferView":1,
			"componentType":5126,
			"count":30914,
			"type":"VEC2"
		},
		{
			"bufferView":2,
			"componentType":5126,
			"count":30914,
			"type":"VEC3"
		},
		{
			"bufferView":3,
			"componentType":5123,
			"count":176592,
			"type":"SCALAR"
		}
	],
	"bufferViews":[
		{
			"buffer":0,
			"byteLength":370968,
			"byteOffset":0,
			"target":34962
		},
		{
			"buffer":0,
			"byteLength":247312,
			"byteOffset":370968,
			"target":34962
		},
		{
			"buffer":0,
			"byteLength":370968,
			"byteOffset":618280,
			"target":34962
		},
		{
			"buffer":0,
			"byteLength":353184,
			"byteOffset":989248,
			"target":34963
		}
	],
	"buffers":[
		{
			"byteLength":1342432,
			"uri":"data:application/octet-stream;base64,"
		}
	]
}
